{
	"asset":{
		"generator":"Khronos glTF Blender I/O v3.5.30",
		"version":"2.0"
	},
	"scene":0,
	"scenes":[
		{
			"name":"Scene",
			"nodes":[
				0
			]
		}
	],
	"nodes":[
		{
			"mesh":0,
			"name":"Cylinder"
		}
	],
	"meshes":[
		{
			"name":"Cylinder.001",
			"primitives":[
				{
					"attributes":{
						"POSITION":0,
						"TEXCOORD_0":1,
						"NORMAL":2
					},
					"indices":3
				}
			]
		}
	],
	"accessors":[
		{
			"bufferView":0,
			"componentType":5126,
			"count":1603,
			"max":[
				1.0027351379394531,
				1.4616934061050415,
				1.0027351379394531
			],
			"min":[
				-1.0027351379394531,
				-1.0000001192092896,
				-1.0027351379394531
			],
			"type":"VEC3"
		},
		{
			"bufferView":1,
			"componentType":5126,
			"count":1603,
			"type":"VEC2"
		},
		{
			"bufferView":2,
			"componentType":5126,
			"count":1603,
			"type":"VEC3"
		},
		{
			"bufferView":3,
			"componentType":5123,
			"count":2880,
			"type":"SCALAR"
		}
	],
	"bufferViews":[
		{
			"buffer":0,
			"byteLength":19236,
			"byteOffset":0,
			"target":34962
		},
		{
			"buffer":0,
			"byteLength":12824,
			"byteOffset":19236,
			"target":34962
		},
		{
			"buffer":0,
			"byteLength":19236,
			"byteOffset":32060,
			"target":34962
		},
		{
			"buffer":0,
			"byteLength":5760,
			"byteOffset":51296,
			"target":34963
		}
	],
	"buffers":[
		{
			"byteLength":57056,
			"uri":"data:application/octet-stream;base64,"
		}
	]
}
