{
	"asset":{
		"generator":"Khronos glTF Blender I/O v3.5.30",
		"version":"2.0"
	},
	"scene":0,
	"scenes":[
		{
			"name":"Scene",
			"nodes":[
				0
			]
		}
	],
	"nodes":[
		{
			"mesh":0,
			"name":"Cylinder"
		}
	],
	"meshes":[
		{
			"name":"Cylinder",
			"primitives":[
				{
					"attributes":{
						"POSITION":0,
						"TEXCOORD_0":1,
						"NORMAL":2
					},
					"indices":3
				}
			]
		}
	],
	"accessors":[
		{
			"bufferView":0,
			"componentType":5126,
			"count":399,
			"max":[
				3.472062826156616,
				0.0713123306632042,
				3.472062826156616
			],
			"min":[
				-3.472062826156616,
				-4.348249912261963,
				-3.472062826156616
			],
			"type":"VEC3"
		},
		{
			"bufferView":1,
			"componentType":5126,
			"count":399,
			"type":"VEC2"
		},
		{
			"bufferView":2,
			"componentType":5126,
			"count":399,
			"type":"VEC3"
		},
		{
			"bufferView":3,
			"componentType":5123,
			"count":2112,
			"type":"SCALAR"
		}
	],
	"bufferViews":[
		{
			"buffer":0,
			"byteLength":4788,
			"byteOffset":0,
			"target":34962
		},
		{
			"buffer":0,
			"byteLength":3192,
			"byteOffset":4788,
			"target":34962
		},
		{
			"buffer":0,
			"byteLength":4788,
			"byteOffset":7980,
			"target":34962
		},
		{
			"buffer":0,
			"byteLength":4224,
			"byteOffset":12768,
			"target":34963
		}
	],
	"buffers":[
		{
			"byteLength":16992,
			"uri":"data:application/octet-stream;base64,"
		}
	]
}
