<svg width="380" height="795" viewBox="0 0 380 795" fill="none" xmlns="http://www.w3.org/2000/svg">
<rect width="380" height="795" rx="16" fill="#D9D9D9"/>
<rect y="94" width="380" height="577" fill="#EBEBEB"/>
<circle cx="324.5" cy="45.5" r="30.5" fill="#66BB6A"/>
<path d="M339.609 58.7669L330.715 49.8662C332.468 47.7633 333.523 45.0759 333.523 42.1408C333.523 35.4446 328.028 30 321.268 30C314.508 30 309 35.451 309 42.1471C309 48.8433 314.495 54.2879 321.255 54.2879C324.127 54.2879 326.77 53.3032 328.866 51.6578L337.792 60.5839C338.313 61.1048 339.088 61.1048 339.609 60.5839C340.13 60.0629 340.13 59.2878 339.609 58.7669ZM311.605 42.1471C311.605 36.8868 315.938 32.6111 321.255 32.6111C326.573 32.6111 330.906 36.8868 330.906 42.1471C330.906 47.4075 326.573 51.6832 321.255 51.6832C315.938 51.6832 311.605 47.4012 311.605 42.1471Z" fill="white"/>
<path d="M370 111H340V642.77H370V111Z" fill="#D9D9D9"/>
<path d="M353.816 111L365.78 135.192H341.851L353.816 111Z" fill="#A6A6A6"/>
<path d="M355.122 643L343.158 618.808H367.087L355.122 643Z" fill="#A6A6A6"/>
<path d="M366.842 144.178H343.158V200.396H366.842V144.178Z" fill="#A6A6A6"/>
<path d="M329 123H14V233H329V123Z" fill="#D9D9D9"/>
<path d="M310 139H130V169H310V139Z" fill="#A6A6A6"/>
<rect x="130" y="176" width="71" height="38" rx="6" fill="#66BB6A"/>
<path d="M142.523 187.455V202H140.761V187.455H142.523ZM147.503 195.438V202H145.827V191.091H147.446V192.795H147.588C147.844 192.241 148.232 191.796 148.753 191.46C149.274 191.119 149.946 190.949 150.77 190.949C151.509 190.949 152.155 191.1 152.709 191.403C153.263 191.702 153.694 192.156 154.002 192.767C154.31 193.373 154.463 194.14 154.463 195.068V202H152.787V195.182C152.787 194.325 152.565 193.657 152.12 193.179C151.675 192.696 151.064 192.455 150.287 192.455C149.752 192.455 149.274 192.571 148.853 192.803C148.436 193.035 148.107 193.373 147.865 193.818C147.624 194.263 147.503 194.803 147.503 195.438ZM166.056 191.091L162.022 202H160.317L156.283 191.091H158.102L161.113 199.784H161.227L164.238 191.091H166.056ZM168.268 202V191.091H169.945V202H168.268ZM169.121 189.273C168.794 189.273 168.512 189.161 168.276 188.939C168.044 188.716 167.928 188.449 167.928 188.136C167.928 187.824 168.044 187.556 168.276 187.334C168.512 187.111 168.794 187 169.121 187C169.447 187 169.727 187.111 169.959 187.334C170.196 187.556 170.314 187.824 170.314 188.136C170.314 188.449 170.196 188.716 169.959 188.939C169.727 189.161 169.447 189.273 169.121 189.273ZM177.759 191.091V192.511H172.105V191.091H177.759ZM173.753 188.477H175.429V198.875C175.429 199.348 175.498 199.704 175.635 199.94C175.777 200.172 175.957 200.329 176.175 200.409C176.398 200.485 176.632 200.523 176.878 200.523C177.063 200.523 177.214 200.513 177.333 200.494C177.451 200.471 177.546 200.452 177.617 200.438L177.958 201.943C177.844 201.986 177.685 202.028 177.482 202.071C177.278 202.118 177.02 202.142 176.708 202.142C176.234 202.142 175.77 202.04 175.316 201.837C174.866 201.633 174.492 201.323 174.194 200.906C173.9 200.49 173.753 199.964 173.753 199.33V188.477ZM184.737 202.227C183.686 202.227 182.779 201.995 182.017 201.531C181.259 201.062 180.674 200.409 180.262 199.571C179.855 198.728 179.652 197.748 179.652 196.631C179.652 195.513 179.855 194.528 180.262 193.676C180.674 192.819 181.247 192.152 181.981 191.673C182.72 191.19 183.582 190.949 184.566 190.949C185.135 190.949 185.696 191.044 186.25 191.233C186.804 191.422 187.308 191.73 187.762 192.156C188.217 192.578 188.579 193.136 188.849 193.832C189.119 194.528 189.254 195.385 189.254 196.403V197.114H180.845V195.665H187.549C187.549 195.049 187.426 194.5 187.18 194.017C186.939 193.534 186.593 193.153 186.143 192.874C185.698 192.594 185.172 192.455 184.566 192.455C183.899 192.455 183.321 192.62 182.833 192.952C182.35 193.278 181.979 193.705 181.718 194.23C181.458 194.756 181.328 195.319 181.328 195.92V196.886C181.328 197.71 181.47 198.409 181.754 198.982C182.043 199.55 182.443 199.983 182.954 200.281C183.466 200.575 184.06 200.722 184.737 200.722C185.177 200.722 185.575 200.66 185.93 200.537C186.29 200.409 186.6 200.22 186.86 199.969C187.121 199.713 187.322 199.396 187.464 199.017L189.083 199.472C188.913 200.021 188.627 200.504 188.224 200.92C187.822 201.332 187.324 201.654 186.733 201.886C186.141 202.114 185.475 202.227 184.737 202.227Z" fill="white"/>
<rect x="27" y="139" width="78" height="78" rx="39" fill="#A6A6A6"/>
<path d="M329 262H14V372H329V262Z" fill="#D9D9D9"/>
<path d="M310 278H130V308H310V278Z" fill="#A6A6A6"/>
<rect x="130" y="315" width="71" height="38" rx="6" fill="#66BB6A"/>
<path d="M142.523 326.455V341H140.761V326.455H142.523ZM147.503 334.438V341H145.827V330.091H147.446V331.795H147.588C147.844 331.241 148.232 330.796 148.753 330.46C149.274 330.119 149.946 329.949 150.77 329.949C151.509 329.949 152.155 330.1 152.709 330.403C153.263 330.702 153.694 331.156 154.002 331.767C154.31 332.373 154.463 333.14 154.463 334.068V341H152.787V334.182C152.787 333.325 152.565 332.657 152.12 332.179C151.675 331.696 151.064 331.455 150.287 331.455C149.752 331.455 149.274 331.571 148.853 331.803C148.436 332.035 148.107 332.373 147.865 332.818C147.624 333.263 147.503 333.803 147.503 334.438ZM166.056 330.091L162.022 341H160.317L156.283 330.091H158.102L161.113 338.784H161.227L164.238 330.091H166.056ZM168.268 341V330.091H169.945V341H168.268ZM169.121 328.273C168.794 328.273 168.512 328.161 168.276 327.939C168.044 327.716 167.928 327.449 167.928 327.136C167.928 326.824 168.044 326.556 168.276 326.334C168.512 326.111 168.794 326 169.121 326C169.447 326 169.727 326.111 169.959 326.334C170.196 326.556 170.314 326.824 170.314 327.136C170.314 327.449 170.196 327.716 169.959 327.939C169.727 328.161 169.447 328.273 169.121 328.273ZM177.759 330.091V331.511H172.105V330.091H177.759ZM173.753 327.477H175.429V337.875C175.429 338.348 175.498 338.704 175.635 338.94C175.777 339.172 175.957 339.329 176.175 339.409C176.398 339.485 176.632 339.523 176.878 339.523C177.063 339.523 177.214 339.513 177.333 339.494C177.451 339.471 177.546 339.452 177.617 339.438L177.958 340.943C177.844 340.986 177.685 341.028 177.482 341.071C177.278 341.118 177.02 341.142 176.708 341.142C176.234 341.142 175.77 341.04 175.316 340.837C174.866 340.633 174.492 340.323 174.194 339.906C173.9 339.49 173.753 338.964 173.753 338.33V327.477ZM184.737 341.227C183.686 341.227 182.779 340.995 182.017 340.531C181.259 340.062 180.674 339.409 180.262 338.571C179.855 337.728 179.652 336.748 179.652 335.631C179.652 334.513 179.855 333.528 180.262 332.676C180.674 331.819 181.247 331.152 181.981 330.673C182.72 330.19 183.582 329.949 184.566 329.949C185.135 329.949 185.696 330.044 186.25 330.233C186.804 330.422 187.308 330.73 187.762 331.156C188.217 331.578 188.579 332.136 188.849 332.832C189.119 333.528 189.254 334.385 189.254 335.403V336.114H180.845V334.665H187.549C187.549 334.049 187.426 333.5 187.18 333.017C186.939 332.534 186.593 332.153 186.143 331.874C185.698 331.594 185.172 331.455 184.566 331.455C183.899 331.455 183.321 331.62 182.833 331.952C182.35 332.278 181.979 332.705 181.718 333.23C181.458 333.756 181.328 334.319 181.328 334.92V335.886C181.328 336.71 181.47 337.409 181.754 337.982C182.043 338.55 182.443 338.983 182.954 339.281C183.466 339.575 184.06 339.722 184.737 339.722C185.177 339.722 185.575 339.66 185.93 339.537C186.29 339.409 186.6 339.22 186.86 338.969C187.121 338.713 187.322 338.396 187.464 338.017L189.083 338.472C188.913 339.021 188.627 339.504 188.224 339.92C187.822 340.332 187.324 340.654 186.733 340.886C186.141 341.114 185.475 341.227 184.737 341.227Z" fill="white"/>
<rect x="27" y="278" width="78" height="78" rx="39" fill="#A6A6A6"/>
<rect x="22" y="40" width="261" height="34" rx="6" fill="white"/>
<path d="M31.7159 23.0909C31.6307 22.3712 31.285 21.8125 30.679 21.4148C30.0729 21.017 29.3295 20.8182 28.4489 20.8182C27.8049 20.8182 27.2415 20.9223 26.7585 21.1307C26.2803 21.339 25.9063 21.6255 25.6364 21.9901C25.3712 22.3546 25.2386 22.7689 25.2386 23.233C25.2386 23.6212 25.331 23.955 25.5156 24.2344C25.705 24.509 25.9465 24.7386 26.2401 24.9233C26.5336 25.1032 26.8414 25.2524 27.1634 25.3707C27.4853 25.4844 27.7812 25.5767 28.0511 25.6477L29.5284 26.0455C29.9072 26.1449 30.3286 26.2822 30.7926 26.4574C31.2614 26.6326 31.7088 26.8717 32.1349 27.1747C32.5658 27.473 32.9209 27.8565 33.2003 28.3253C33.4796 28.794 33.6193 29.3693 33.6193 30.0511C33.6193 30.8371 33.4134 31.5473 33.0014 32.1818C32.5942 32.8163 31.9976 33.3205 31.2116 33.6946C30.4304 34.0687 29.4811 34.2557 28.3636 34.2557C27.322 34.2557 26.42 34.0876 25.6577 33.7514C24.9001 33.4152 24.3035 32.9465 23.8679 32.3452C23.437 31.7438 23.1932 31.0455 23.1364 30.25H24.9545C25.0019 30.7992 25.1866 31.2538 25.5085 31.6136C25.8352 31.9687 26.2472 32.2339 26.7443 32.4091C27.2462 32.5795 27.786 32.6648 28.3636 32.6648C29.036 32.6648 29.6397 32.5559 30.1747 32.3381C30.7098 32.1155 31.1335 31.8078 31.446 31.4148C31.7585 31.017 31.9148 30.553 31.9148 30.0227C31.9148 29.5398 31.7798 29.1468 31.5099 28.8438C31.2401 28.5407 30.8849 28.2945 30.4446 28.1051C30.0043 27.9157 29.5284 27.75 29.017 27.608L27.2273 27.0966C26.0909 26.7699 25.1913 26.3035 24.5284 25.6974C23.8655 25.0914 23.5341 24.2983 23.5341 23.3182C23.5341 22.5038 23.7543 21.7936 24.1946 21.1875C24.6397 20.5767 25.2363 20.1032 25.9844 19.767C26.7372 19.4261 27.5777 19.2557 28.5057 19.2557C29.4432 19.2557 30.2765 19.4238 31.0057 19.7599C31.7348 20.0914 32.3125 20.5459 32.7386 21.1236C33.1695 21.7012 33.3968 22.357 33.4205 23.0909H31.7159ZM40.8619 34.2273C39.8107 34.2273 38.904 33.9953 38.1417 33.5312C37.3841 33.0625 36.7994 32.4091 36.3874 31.571C35.9802 30.7282 35.7766 29.7481 35.7766 28.6307C35.7766 27.5133 35.9802 26.5284 36.3874 25.6761C36.7994 24.8191 37.3723 24.1515 38.1062 23.6733C38.8448 23.1903 39.7066 22.9489 40.6914 22.9489C41.2596 22.9489 41.8207 23.0436 42.3746 23.233C42.9286 23.4223 43.4329 23.7301 43.8874 24.1562C44.342 24.5777 44.7042 25.1364 44.9741 25.8324C45.244 26.5284 45.3789 27.3854 45.3789 28.4034V29.1136H36.9698V27.6648H43.6744C43.6744 27.0492 43.5513 26.5 43.305 26.017C43.0636 25.5341 42.7179 25.1529 42.2681 24.8736C41.823 24.5942 41.2975 24.4545 40.6914 24.4545C40.0238 24.4545 39.4461 24.6203 38.9585 24.9517C38.4755 25.2784 38.1038 25.7045 37.8434 26.2301C37.583 26.7557 37.4528 27.3191 37.4528 27.9205V28.8864C37.4528 29.7102 37.5948 30.4086 37.8789 30.9815C38.1677 31.5497 38.5678 31.983 39.0792 32.2812C39.5906 32.5748 40.1848 32.7216 40.8619 32.7216C41.3022 32.7216 41.6999 32.66 42.055 32.5369C42.4149 32.4091 42.725 32.2197 42.9854 31.9688C43.2459 31.7131 43.4471 31.3958 43.5891 31.017L45.2085 31.4716C45.038 32.0208 44.7515 32.5038 44.3491 32.9205C43.9466 33.3324 43.4495 33.6544 42.8576 33.8864C42.2657 34.1136 41.6005 34.2273 40.8619 34.2273ZM51.1388 34.2557C50.4476 34.2557 49.8202 34.1255 49.2567 33.8651C48.6933 33.5999 48.2459 33.2188 47.9144 32.7216C47.583 32.2197 47.4173 31.6136 47.4173 30.9034C47.4173 30.2784 47.5404 29.7718 47.7866 29.3835C48.0328 28.9905 48.3619 28.6828 48.7738 28.4602C49.1857 28.2377 49.6403 28.072 50.1374 27.9631C50.6393 27.8494 51.1436 27.7595 51.6502 27.6932C52.3131 27.608 52.8505 27.544 53.2624 27.5014C53.6791 27.4541 53.9821 27.3759 54.1715 27.267C54.3656 27.1581 54.4627 26.9687 54.4627 26.6989V26.642C54.4627 25.9413 54.271 25.3968 53.8874 25.0085C53.5086 24.6203 52.9334 24.4261 52.1616 24.4261C51.3614 24.4261 50.734 24.6013 50.2795 24.9517C49.8249 25.3021 49.5053 25.6761 49.3207 26.0739L47.7298 25.5057C48.0138 24.8428 48.3926 24.3267 48.8661 23.9574C49.3443 23.5833 49.8652 23.3229 50.4286 23.1761C50.9968 23.0246 51.5555 22.9489 52.1048 22.9489C52.4551 22.9489 52.8576 22.9915 53.3121 23.0767C53.7714 23.1572 54.2141 23.3253 54.6403 23.581C55.0711 23.8366 55.4286 24.2225 55.7127 24.7386C55.9968 25.2547 56.1388 25.946 56.1388 26.8125V34H54.4627V32.5227H54.3775C54.2638 32.7595 54.0745 33.0128 53.8093 33.2827C53.5442 33.5526 53.1914 33.7822 52.7511 33.9716C52.3107 34.161 51.7733 34.2557 51.1388 34.2557ZM51.3945 32.75C52.0574 32.75 52.6161 32.6198 53.0707 32.3594C53.5299 32.099 53.8756 31.7628 54.1076 31.3509C54.3443 30.9389 54.4627 30.5057 54.4627 30.0511V28.517C54.3917 28.6023 54.2354 28.6804 53.994 28.7514C53.7572 28.8177 53.4826 28.8769 53.1701 28.929C52.8623 28.9763 52.5617 29.0189 52.2681 29.0568C51.9793 29.09 51.7449 29.1184 51.565 29.142C51.1294 29.1989 50.7222 29.2912 50.3434 29.419C49.9693 29.5421 49.6663 29.7292 49.4343 29.9801C49.207 30.2263 49.0934 30.5625 49.0934 30.9886C49.0934 31.571 49.3088 32.0114 49.7397 32.3097C50.1753 32.6032 50.7269 32.75 51.3945 32.75ZM59.1982 34V23.0909H60.8175V24.7386H60.9311C61.13 24.1989 61.4898 23.7609 62.0107 23.4247C62.5315 23.0885 63.1186 22.9205 63.772 22.9205C63.8951 22.9205 64.049 22.9228 64.2337 22.9276C64.4183 22.9323 64.558 22.9394 64.6527 22.9489V24.6534C64.5959 24.6392 64.4657 24.6179 64.2621 24.5895C64.0632 24.5563 63.8525 24.5398 63.63 24.5398C63.0997 24.5398 62.6262 24.651 62.2095 24.8736C61.7976 25.0914 61.4709 25.3944 61.2294 25.7827C60.9927 26.1662 60.8743 26.6042 60.8743 27.0966V34H59.1982ZM70.7393 34.2273C69.7166 34.2273 68.8359 33.9858 68.0973 33.5028C67.3587 33.0199 66.7905 32.3546 66.3928 31.5071C65.995 30.6596 65.7962 29.6913 65.7962 28.6023C65.7962 27.4943 65.9998 26.5166 66.407 25.669C66.8189 24.8168 67.3918 24.1515 68.1257 23.6733C68.8643 23.1903 69.7261 22.9489 70.7109 22.9489C71.478 22.9489 72.1693 23.0909 72.7848 23.375C73.4003 23.6591 73.9046 24.0568 74.2976 24.5682C74.6906 25.0795 74.9344 25.6761 75.0291 26.358H73.353C73.2251 25.8608 72.9411 25.4205 72.5007 25.0369C72.0651 24.6487 71.478 24.4545 70.7393 24.4545C70.0859 24.4545 69.513 24.625 69.0206 24.9659C68.5329 25.3021 68.1518 25.7779 67.8771 26.3935C67.6072 27.0043 67.4723 27.7216 67.4723 28.5455C67.4723 29.3883 67.6049 30.1222 67.87 30.7472C68.1399 31.3722 68.5187 31.8575 69.0064 32.2031C69.4988 32.5488 70.0765 32.7216 70.7393 32.7216C71.175 32.7216 71.5703 32.6458 71.9254 32.4943C72.2805 32.3428 72.5812 32.125 72.8274 31.8409C73.0736 31.5568 73.2488 31.2159 73.353 30.8182H75.0291C74.9344 31.4621 74.7 32.0421 74.326 32.5582C73.9567 33.0696 73.4666 33.4768 72.8558 33.7798C72.2498 34.0781 71.5443 34.2273 70.7393 34.2273ZM79.1555 27.4375V34H77.4794V19.4545H79.1555V24.7955H79.2976C79.5533 24.232 79.9368 23.7846 80.4482 23.4531C80.9643 23.117 81.6508 22.9489 82.5078 22.9489C83.2512 22.9489 83.9022 23.098 84.4609 23.3963C85.0196 23.6899 85.4529 24.142 85.7607 24.7528C86.0732 25.3589 86.2294 26.1307 86.2294 27.0682V34H84.5533V27.1818C84.5533 26.3153 84.3284 25.6454 83.8786 25.1719C83.4335 24.6937 82.8156 24.4545 82.0249 24.4545C81.4756 24.4545 80.9832 24.5705 80.5476 24.8026C80.1167 25.0346 79.7758 25.3731 79.5249 25.8182C79.2786 26.2633 79.1555 26.803 79.1555 27.4375ZM90.5174 34.1136C90.167 34.1136 89.8664 33.9882 89.6154 33.7372C89.3645 33.4863 89.239 33.1856 89.239 32.8352C89.239 32.4848 89.3645 32.1842 89.6154 31.9332C89.8664 31.6823 90.167 31.5568 90.5174 31.5568C90.8678 31.5568 91.1684 31.6823 91.4194 31.9332C91.6703 32.1842 91.7958 32.4848 91.7958 32.8352C91.7958 33.0672 91.7366 33.2803 91.6183 33.4744C91.5046 33.6686 91.3507 33.8248 91.1566 33.9432C90.9672 34.0568 90.7541 34.1136 90.5174 34.1136ZM96.0252 34.1136C95.6748 34.1136 95.3742 33.9882 95.1232 33.7372C94.8723 33.4863 94.7468 33.1856 94.7468 32.8352C94.7468 32.4848 94.8723 32.1842 95.1232 31.9332C95.3742 31.6823 95.6748 31.5568 96.0252 31.5568C96.3756 31.5568 96.6763 31.6823 96.9272 31.9332C97.1781 32.1842 97.3036 32.4848 97.3036 32.8352C97.3036 33.0672 97.2444 33.2803 97.1261 33.4744C97.0124 33.6686 96.8585 33.8248 96.6644 33.9432C96.475 34.0568 96.262 34.1136 96.0252 34.1136ZM101.533 34.1136C101.183 34.1136 100.882 33.9882 100.631 33.7372C100.38 33.4863 100.255 33.1856 100.255 32.8352C100.255 32.4848 100.38 32.1842 100.631 31.9332C100.882 31.6823 101.183 31.5568 101.533 31.5568C101.883 31.5568 102.184 31.6823 102.435 31.9332C102.686 32.1842 102.811 32.4848 102.811 32.8352C102.811 33.0672 102.752 33.2803 102.634 33.4744C102.52 33.6686 102.366 33.8248 102.172 33.9432C101.983 34.0568 101.77 34.1136 101.533 34.1136Z" fill="#A6A6A6"/>
</svg>
