<svg width="885" height="665" viewBox="0 0 885 665" fill="none" xmlns="http://www.w3.org/2000/svg">
<rect width="885" height="665" fill="#D9D9D9"/>
<rect x="36" y="118" width="824" height="514" rx="10" fill="#EBEBEB"/>
<rect x="36" y="31" width="126" height="46" rx="10" fill="#66BB6A"/>
<path d="M62.7727 52H61.3636C61.2803 51.5947 61.1345 51.2386 60.9261 50.9318C60.7216 50.625 60.4716 50.3674 60.1761 50.1591C59.8845 49.947 59.5606 49.7879 59.2045 49.6818C58.8485 49.5758 58.4773 49.5227 58.0909 49.5227C57.3864 49.5227 56.7481 49.7008 56.1761 50.0568C55.608 50.4129 55.1553 50.9375 54.8182 51.6307C54.4848 52.3239 54.3182 53.1742 54.3182 54.1818C54.3182 55.1894 54.4848 56.0398 54.8182 56.733C55.1553 57.4261 55.608 57.9508 56.1761 58.3068C56.7481 58.6629 57.3864 58.8409 58.0909 58.8409C58.4773 58.8409 58.8485 58.7879 59.2045 58.6818C59.5606 58.5758 59.8845 58.4186 60.1761 58.2102C60.4716 57.9981 60.7216 57.7386 60.9261 57.4318C61.1345 57.1212 61.2803 56.7652 61.3636 56.3636H62.7727C62.6667 56.9583 62.4735 57.4905 62.1932 57.9602C61.9129 58.4299 61.5644 58.8295 61.1477 59.1591C60.7311 59.4848 60.2633 59.733 59.7443 59.9034C59.2292 60.0739 58.678 60.1591 58.0909 60.1591C57.0985 60.1591 56.2159 59.9167 55.4432 59.4318C54.6705 58.947 54.0625 58.2576 53.6193 57.3636C53.1761 56.4697 52.9545 55.4091 52.9545 54.1818C52.9545 52.9545 53.1761 51.8939 53.6193 51C54.0625 50.1061 54.6705 49.4167 55.4432 48.9318C56.2159 48.447 57.0985 48.2045 58.0909 48.2045C58.678 48.2045 59.2292 48.2898 59.7443 48.4602C60.2633 48.6307 60.7311 48.8807 61.1477 49.2102C61.5644 49.536 61.9129 49.9337 62.1932 50.4034C62.4735 50.8693 62.6667 51.4015 62.7727 52ZM64.8679 60V51.2727H66.1634V52.5909H66.2543C66.4134 52.1591 66.7012 51.8087 67.1179 51.5398C67.5346 51.2708 68.0043 51.1364 68.527 51.1364C68.6255 51.1364 68.7486 51.1383 68.8963 51.142C69.044 51.1458 69.1558 51.1515 69.2315 51.1591V52.5227C69.1861 52.5114 69.0819 52.4943 68.919 52.4716C68.7599 52.4451 68.5914 52.4318 68.4134 52.4318C67.9891 52.4318 67.6103 52.5208 67.277 52.6989C66.9474 52.8731 66.6861 53.1155 66.4929 53.4261C66.3035 53.733 66.2088 54.0833 66.2088 54.4773V60H64.8679ZM74.2145 60.1818C73.3736 60.1818 72.6482 59.9962 72.0384 59.625C71.4323 59.25 70.9645 58.7273 70.6349 58.0568C70.3092 57.3826 70.1463 56.5985 70.1463 55.7045C70.1463 54.8106 70.3092 54.0227 70.6349 53.3409C70.9645 52.6553 71.4228 52.1212 72.0099 51.7386C72.6009 51.3523 73.2902 51.1591 74.0781 51.1591C74.5327 51.1591 74.9815 51.2348 75.4247 51.3864C75.8679 51.5379 76.2713 51.7841 76.6349 52.125C76.9986 52.4621 77.2884 52.9091 77.5043 53.4659C77.7202 54.0227 77.8281 54.7083 77.8281 55.5227V56.0909H71.1009V54.9318H76.4645C76.4645 54.4394 76.366 54 76.169 53.6136C75.9759 53.2273 75.6993 52.9223 75.3395 52.6989C74.9834 52.4754 74.563 52.3636 74.0781 52.3636C73.544 52.3636 73.0819 52.4962 72.6918 52.7614C72.3054 53.0227 72.008 53.3636 71.7997 53.7841C71.5914 54.2045 71.4872 54.6553 71.4872 55.1364V55.9091C71.4872 56.5682 71.6009 57.1269 71.8281 57.5852C72.0592 58.0398 72.3793 58.3864 72.7884 58.625C73.1974 58.8598 73.6728 58.9773 74.2145 58.9773C74.5668 58.9773 74.8849 58.928 75.169 58.8295C75.4569 58.7273 75.705 58.5758 75.9134 58.375C76.1217 58.1705 76.2827 57.9167 76.3963 57.6136L77.6918 57.9773C77.5554 58.4167 77.3262 58.803 77.0043 59.1364C76.6823 59.4659 76.2846 59.7235 75.8111 59.9091C75.3376 60.0909 74.8054 60.1818 74.2145 60.1818ZM82.4361 60.2045C81.883 60.2045 81.3812 60.1004 80.9304 59.892C80.4796 59.6799 80.1217 59.375 79.8565 58.9773C79.5914 58.5758 79.4588 58.0909 79.4588 57.5227C79.4588 57.0227 79.5573 56.6174 79.7543 56.3068C79.9512 55.9924 80.2145 55.7462 80.544 55.5682C80.8736 55.3902 81.2372 55.2576 81.6349 55.1705C82.0365 55.0795 82.4399 55.0076 82.8452 54.9545C83.3755 54.8864 83.8054 54.8352 84.1349 54.8011C84.4683 54.7633 84.7107 54.7008 84.8622 54.6136C85.0175 54.5265 85.0952 54.375 85.0952 54.1591V54.1136C85.0952 53.553 84.9418 53.1174 84.6349 52.8068C84.3319 52.4962 83.8717 52.3409 83.2543 52.3409C82.6141 52.3409 82.1122 52.4811 81.7486 52.7614C81.3849 53.0417 81.1293 53.3409 80.9815 53.6591L79.7088 53.2045C79.9361 52.6742 80.2391 52.2614 80.6179 51.9659C81.0005 51.6667 81.4171 51.4583 81.8679 51.3409C82.3224 51.2197 82.7694 51.1591 83.2088 51.1591C83.4891 51.1591 83.8111 51.1932 84.1747 51.2614C84.5421 51.3258 84.8963 51.4602 85.2372 51.6648C85.5819 51.8693 85.8679 52.178 86.0952 52.5909C86.3224 53.0038 86.4361 53.5568 86.4361 54.25V60H85.0952V58.8182H85.027C84.9361 59.0076 84.7846 59.2102 84.5724 59.4261C84.3603 59.642 84.0781 59.8258 83.7259 59.9773C83.3736 60.1288 82.9437 60.2045 82.4361 60.2045ZM82.6406 59C83.1709 59 83.6179 58.8958 83.9815 58.6875C84.349 58.4792 84.6255 58.2102 84.8111 57.8807C85.0005 57.5511 85.0952 57.2045 85.0952 56.8409V55.6136C85.0384 55.6818 84.9134 55.7443 84.7202 55.8011C84.5308 55.8542 84.3111 55.9015 84.0611 55.9432C83.8149 55.9811 83.5743 56.0152 83.3395 56.0455C83.1084 56.072 82.9209 56.0947 82.777 56.1136C82.4285 56.1591 82.1027 56.233 81.7997 56.3352C81.5005 56.4337 81.258 56.5833 81.0724 56.7841C80.8906 56.9811 80.7997 57.25 80.7997 57.5909C80.7997 58.0568 80.9721 58.4091 81.3168 58.6477C81.6652 58.8826 82.1065 59 82.6406 59ZM92.679 51.2727V52.4091H88.1562V51.2727H92.679ZM89.4744 49.1818H90.8153V57.5C90.8153 57.8788 90.8703 58.1629 90.9801 58.3523C91.0938 58.5379 91.2377 58.6629 91.4119 58.7273C91.59 58.7879 91.7775 58.8182 91.9744 58.8182C92.1222 58.8182 92.2434 58.8106 92.3381 58.7955C92.4328 58.7765 92.5085 58.7614 92.5653 58.75L92.8381 59.9545C92.7472 59.9886 92.6203 60.0227 92.4574 60.0568C92.2945 60.0947 92.0881 60.1136 91.8381 60.1136C91.4593 60.1136 91.0881 60.0322 90.7244 59.8693C90.3646 59.7064 90.0653 59.4583 89.8267 59.125C89.5919 58.7917 89.4744 58.3712 89.4744 57.8636V49.1818ZM98.2614 60.1818C97.4205 60.1818 96.6951 59.9962 96.0852 59.625C95.4792 59.25 95.0114 58.7273 94.6818 58.0568C94.3561 57.3826 94.1932 56.5985 94.1932 55.7045C94.1932 54.8106 94.3561 54.0227 94.6818 53.3409C95.0114 52.6553 95.4697 52.1212 96.0568 51.7386C96.6477 51.3523 97.3371 51.1591 98.125 51.1591C98.5795 51.1591 99.0284 51.2348 99.4716 51.3864C99.9148 51.5379 100.318 51.7841 100.682 52.125C101.045 52.4621 101.335 52.9091 101.551 53.4659C101.767 54.0227 101.875 54.7083 101.875 55.5227V56.0909H95.1477V54.9318H100.511C100.511 54.4394 100.413 54 100.216 53.6136C100.023 53.2273 99.7462 52.9223 99.3864 52.6989C99.0303 52.4754 98.6098 52.3636 98.125 52.3636C97.5909 52.3636 97.1288 52.4962 96.7386 52.7614C96.3523 53.0227 96.0549 53.3636 95.8466 53.7841C95.6383 54.2045 95.5341 54.6553 95.5341 55.1364V55.9091C95.5341 56.5682 95.6477 57.1269 95.875 57.5852C96.1061 58.0398 96.4261 58.3864 96.8352 58.625C97.2443 58.8598 97.7197 58.9773 98.2614 58.9773C98.6136 58.9773 98.9318 58.928 99.2159 58.8295C99.5038 58.7273 99.7519 58.5758 99.9602 58.375C100.169 58.1705 100.33 57.9167 100.443 57.6136L101.739 57.9773C101.602 58.4167 101.373 58.803 101.051 59.1364C100.729 59.4659 100.331 59.7235 99.858 59.9091C99.3845 60.0909 98.8523 60.1818 98.2614 60.1818ZM112.188 60H108.597V48.3636H112.347C113.475 48.3636 114.441 48.5966 115.244 49.0625C116.047 49.5246 116.663 50.1894 117.091 51.0568C117.519 51.9205 117.733 52.9545 117.733 54.1591C117.733 55.3712 117.517 56.4148 117.085 57.2898C116.653 58.161 116.025 58.8314 115.199 59.3011C114.373 59.767 113.369 60 112.188 60ZM110.006 58.75H112.097C113.059 58.75 113.856 58.5644 114.489 58.1932C115.121 57.822 115.593 57.2936 115.903 56.608C116.214 55.9223 116.369 55.1061 116.369 54.1591C116.369 53.2197 116.216 52.411 115.909 51.733C115.602 51.0511 115.144 50.5284 114.534 50.1648C113.924 49.7973 113.165 49.6136 112.256 49.6136H110.006V58.75ZM123.574 60.1818C122.733 60.1818 122.008 59.9962 121.398 59.625C120.792 59.25 120.324 58.7273 119.994 58.0568C119.669 57.3826 119.506 56.5985 119.506 55.7045C119.506 54.8106 119.669 54.0227 119.994 53.3409C120.324 52.6553 120.782 52.1212 121.369 51.7386C121.96 51.3523 122.65 51.1591 123.438 51.1591C123.892 51.1591 124.341 51.2348 124.784 51.3864C125.227 51.5379 125.631 51.7841 125.994 52.125C126.358 52.4621 126.648 52.9091 126.864 53.4659C127.08 54.0227 127.188 54.7083 127.188 55.5227V56.0909H120.46V54.9318H125.824C125.824 54.4394 125.725 54 125.528 53.6136C125.335 53.2273 125.059 52.9223 124.699 52.6989C124.343 52.4754 123.922 52.3636 123.438 52.3636C122.903 52.3636 122.441 52.4962 122.051 52.7614C121.665 53.0227 121.367 53.3636 121.159 53.7841C120.951 54.2045 120.847 54.6553 120.847 55.1364V55.9091C120.847 56.5682 120.96 57.1269 121.188 57.5852C121.419 58.0398 121.739 58.3864 122.148 58.625C122.557 58.8598 123.032 58.9773 123.574 58.9773C123.926 58.9773 124.244 58.928 124.528 58.8295C124.816 58.7273 125.064 58.5758 125.273 58.375C125.481 58.1705 125.642 57.9167 125.756 57.6136L127.051 57.9773C126.915 58.4167 126.686 58.803 126.364 59.1364C126.042 59.4659 125.644 59.7235 125.17 59.9091C124.697 60.0909 124.165 60.1818 123.574 60.1818ZM132.773 60.1818C131.955 60.1818 131.25 59.9886 130.659 59.6023C130.068 59.2159 129.614 58.6837 129.295 58.0057C128.977 57.3277 128.818 56.553 128.818 55.6818C128.818 54.7955 128.981 54.0133 129.307 53.3352C129.636 52.6534 130.095 52.1212 130.682 51.7386C131.273 51.3523 131.962 51.1591 132.75 51.1591C133.364 51.1591 133.917 51.2727 134.409 51.5C134.902 51.7273 135.305 52.0455 135.619 52.4545C135.934 52.8636 136.129 53.3409 136.205 53.8864H134.864C134.761 53.4886 134.534 53.1364 134.182 52.8295C133.833 52.5189 133.364 52.3636 132.773 52.3636C132.25 52.3636 131.792 52.5 131.398 52.7727C131.008 53.0417 130.703 53.4223 130.483 53.9148C130.267 54.4034 130.159 54.9773 130.159 55.6364C130.159 56.3106 130.265 56.8977 130.477 57.3977C130.693 57.8977 130.996 58.286 131.386 58.5625C131.78 58.839 132.242 58.9773 132.773 58.9773C133.121 58.9773 133.438 58.9167 133.722 58.7955C134.006 58.6742 134.246 58.5 134.443 58.2727C134.64 58.0455 134.78 57.7727 134.864 57.4545H136.205C136.129 57.9697 135.941 58.4337 135.642 58.8466C135.347 59.2557 134.955 59.5814 134.466 59.8239C133.981 60.0625 133.417 60.1818 132.773 60.1818ZM139.415 56.8182L139.392 55.1591H139.665L143.483 51.2727H145.142L141.074 55.3864H140.96L139.415 56.8182ZM138.165 60V48.3636H139.506V60H138.165ZM143.71 60L140.301 55.6818L141.256 54.75L145.415 60H143.71Z" fill="white"/>
<rect x="80" y="158" width="137" height="140" fill="#D9D9D9"/>
<rect x="102" y="179" width="89" height="59" fill="#A6A6A6"/>
<rect x="102" y="255" width="89" height="27" fill="#A6A6A6"/>
<rect x="261" y="158" width="137" height="140" fill="#D9D9D9"/>
<rect x="283" y="179" width="89" height="59" fill="#A6A6A6"/>
<rect x="283" y="255" width="89" height="27" fill="#A6A6A6"/>
<rect x="442" y="158" width="137" height="140" fill="#D9D9D9"/>
<rect x="464" y="179" width="89" height="59" fill="#A6A6A6"/>
<rect x="464" y="255" width="89" height="27" fill="#A6A6A6"/>
<rect x="623" y="158" width="137" height="140" fill="#D9D9D9"/>
<rect x="645" y="179" width="89" height="59" fill="#A6A6A6"/>
<rect x="645" y="255" width="89" height="27" fill="#A6A6A6"/>
<rect x="80" y="328" width="137" height="140" fill="#D9D9D9"/>
<rect x="102" y="349" width="89" height="59" fill="#A6A6A6"/>
<rect x="102" y="425" width="89" height="27" fill="#A6A6A6"/>
<rect x="261" y="328" width="137" height="140" fill="#D9D9D9"/>
<rect x="283" y="349" width="89" height="59" fill="#A6A6A6"/>
<rect x="283" y="425" width="89" height="27" fill="#A6A6A6"/>
<rect x="442" y="328" width="137" height="140" fill="#D9D9D9"/>
<rect x="464" y="349" width="89" height="59" fill="#A6A6A6"/>
<rect x="464" y="425" width="89" height="27" fill="#A6A6A6"/>
<rect x="621" y="328" width="137" height="140" fill="#D9D9D9"/>
<rect x="643" y="349" width="89" height="59" fill="#A6A6A6"/>
<rect x="643" y="425" width="89" height="27" fill="#A6A6A6"/>
<rect x="80" y="506" width="137" height="140" fill="#D9D9D9"/>
<rect x="102" y="527" width="89" height="59" fill="#A6A6A6"/>
<rect x="102" y="603" width="89" height="27" fill="#A6A6A6"/>
<rect x="261" y="506" width="137" height="140" fill="#D9D9D9"/>
<rect x="283" y="527" width="89" height="59" fill="#A6A6A6"/>
<rect x="283" y="603" width="89" height="27" fill="#A6A6A6"/>
<rect x="442" y="506" width="137" height="140" fill="#D9D9D9"/>
<rect x="464" y="527" width="89" height="59" fill="#A6A6A6"/>
<rect x="464" y="603" width="89" height="27" fill="#A6A6A6"/>
<rect x="621" y="506" width="137" height="140" fill="#D9D9D9"/>
<rect x="643" y="527" width="89" height="59" fill="#A6A6A6"/>
<rect x="643" y="603" width="89" height="27" fill="#A6A6A6"/>
<rect x="792" y="158" width="38" height="468" fill="#D9D9D9"/>
<path d="M809.5 158L824.655 184.25H794.345L809.5 158Z" fill="#A6A6A6"/>
<path d="M810.5 626L795.345 599.75L825.655 599.75L810.5 626Z" fill="#A6A6A6"/>
<rect x="796" y="194" width="30" height="61" fill="#A6A6A6"/>
<rect x="191" y="31" width="669" height="46" rx="10" fill="#EBEBEB"/>
<path d="M223.836 51.2727C223.768 50.697 223.491 50.25 223.007 49.9318C222.522 49.6136 221.927 49.4545 221.223 49.4545C220.707 49.4545 220.257 49.5379 219.87 49.7045C219.488 49.8712 219.188 50.1004 218.973 50.392C218.76 50.6837 218.654 51.0152 218.654 51.3864C218.654 51.697 218.728 51.964 218.876 52.1875C219.027 52.4072 219.221 52.5909 219.455 52.7386C219.69 52.8826 219.937 53.0019 220.194 53.0966C220.452 53.1875 220.688 53.2614 220.904 53.3182L222.086 53.6364C222.389 53.7159 222.726 53.8258 223.098 53.9659C223.473 54.1061 223.83 54.2973 224.171 54.5398C224.516 54.7784 224.8 55.0852 225.024 55.4602C225.247 55.8352 225.359 56.2955 225.359 56.8409C225.359 57.4697 225.194 58.0379 224.865 58.5455C224.539 59.053 224.062 59.4564 223.433 59.7557C222.808 60.0549 222.048 60.2045 221.154 60.2045C220.321 60.2045 219.599 60.0701 218.99 59.8011C218.383 59.5322 217.906 59.1572 217.558 58.6761C217.213 58.1951 217.018 57.6364 216.973 57H218.427C218.465 57.4394 218.613 57.803 218.87 58.0909C219.132 58.375 219.461 58.5871 219.859 58.7273C220.26 58.8636 220.692 58.9318 221.154 58.9318C221.692 58.9318 222.175 58.8447 222.603 58.6705C223.031 58.4924 223.37 58.2462 223.62 57.9318C223.87 57.6136 223.995 57.2424 223.995 56.8182C223.995 56.4318 223.887 56.1174 223.671 55.875C223.455 55.6326 223.171 55.4356 222.819 55.2841C222.467 55.1326 222.086 55 221.677 54.8864L220.245 54.4773C219.336 54.2159 218.616 53.8428 218.086 53.358C217.556 52.8731 217.291 52.2386 217.291 51.4545C217.291 50.803 217.467 50.2348 217.819 49.75C218.175 49.2614 218.652 48.8826 219.251 48.6136C219.853 48.3409 220.526 48.2045 221.268 48.2045C222.018 48.2045 222.685 48.339 223.268 48.608C223.851 48.8731 224.313 49.2367 224.654 49.6989C224.999 50.161 225.181 50.6856 225.2 51.2727H223.836ZM231.153 60.1818C230.312 60.1818 229.587 59.9962 228.977 59.625C228.371 59.25 227.903 58.7273 227.573 58.0568C227.248 57.3826 227.085 56.5985 227.085 55.7045C227.085 54.8106 227.248 54.0227 227.573 53.3409C227.903 52.6553 228.361 52.1212 228.948 51.7386C229.539 51.3523 230.229 51.1591 231.017 51.1591C231.471 51.1591 231.92 51.2348 232.363 51.3864C232.806 51.5379 233.21 51.7841 233.573 52.125C233.937 52.4621 234.227 52.9091 234.443 53.4659C234.659 54.0227 234.767 54.7083 234.767 55.5227V56.0909H228.039V54.9318H233.403C233.403 54.4394 233.304 54 233.107 53.6136C232.914 53.2273 232.638 52.9223 232.278 52.6989C231.922 52.4754 231.501 52.3636 231.017 52.3636C230.482 52.3636 230.02 52.4962 229.63 52.7614C229.244 53.0227 228.946 53.3636 228.738 53.7841C228.53 54.2045 228.426 54.6553 228.426 55.1364V55.9091C228.426 56.5682 228.539 57.1269 228.767 57.5852C228.998 58.0398 229.318 58.3864 229.727 58.625C230.136 58.8598 230.611 58.9773 231.153 58.9773C231.505 58.9773 231.823 58.928 232.107 58.8295C232.395 58.7273 232.643 58.5758 232.852 58.375C233.06 58.1705 233.221 57.9167 233.335 57.6136L234.63 57.9773C234.494 58.4167 234.265 58.803 233.943 59.1364C233.621 59.4659 233.223 59.7235 232.749 59.9091C232.276 60.0909 231.744 60.1818 231.153 60.1818ZM238.147 48.3636V60H236.806V48.3636H238.147ZM244.262 60.1818C243.421 60.1818 242.696 59.9962 242.086 59.625C241.48 59.25 241.012 58.7273 240.683 58.0568C240.357 57.3826 240.194 56.5985 240.194 55.7045C240.194 54.8106 240.357 54.0227 240.683 53.3409C241.012 52.6553 241.471 52.1212 242.058 51.7386C242.649 51.3523 243.338 51.1591 244.126 51.1591C244.58 51.1591 245.029 51.2348 245.473 51.3864C245.916 51.5379 246.319 51.7841 246.683 52.125C247.046 52.4621 247.336 52.9091 247.552 53.4659C247.768 54.0227 247.876 54.7083 247.876 55.5227V56.0909H241.149V54.9318H246.512C246.512 54.4394 246.414 54 246.217 53.6136C246.024 53.2273 245.747 52.9223 245.387 52.6989C245.031 52.4754 244.611 52.3636 244.126 52.3636C243.592 52.3636 243.13 52.4962 242.74 52.7614C242.353 53.0227 242.056 53.3636 241.848 53.7841C241.639 54.2045 241.535 54.6553 241.535 55.1364V55.9091C241.535 56.5682 241.649 57.1269 241.876 57.5852C242.107 58.0398 242.427 58.3864 242.836 58.625C243.245 58.8598 243.721 58.9773 244.262 58.9773C244.615 58.9773 244.933 58.928 245.217 58.8295C245.505 58.7273 245.753 58.5758 245.961 58.375C246.169 58.1705 246.33 57.9167 246.444 57.6136L247.74 57.9773C247.603 58.4167 247.374 58.803 247.052 59.1364C246.73 59.4659 246.332 59.7235 245.859 59.9091C245.385 60.0909 244.853 60.1818 244.262 60.1818ZM253.461 60.1818C252.643 60.1818 251.938 59.9886 251.348 59.6023C250.757 59.2159 250.302 58.6837 249.984 58.0057C249.666 57.3277 249.507 56.553 249.507 55.6818C249.507 54.7955 249.669 54.0133 249.995 53.3352C250.325 52.6534 250.783 52.1212 251.37 51.7386C251.961 51.3523 252.651 51.1591 253.438 51.1591C254.052 51.1591 254.605 51.2727 255.098 51.5C255.59 51.7273 255.993 52.0455 256.308 52.4545C256.622 52.8636 256.817 53.3409 256.893 53.8864H255.552C255.45 53.4886 255.223 53.1364 254.87 52.8295C254.522 52.5189 254.052 52.3636 253.461 52.3636C252.938 52.3636 252.48 52.5 252.086 52.7727C251.696 53.0417 251.391 53.4223 251.171 53.9148C250.955 54.4034 250.848 54.9773 250.848 55.6364C250.848 56.3106 250.954 56.8977 251.166 57.3977C251.382 57.8977 251.685 58.286 252.075 58.5625C252.469 58.839 252.931 58.9773 253.461 58.9773C253.81 58.9773 254.126 58.9167 254.41 58.7955C254.694 58.6742 254.935 58.5 255.132 58.2727C255.329 58.0455 255.469 57.7727 255.552 57.4545H256.893C256.817 57.9697 256.63 58.4337 256.33 58.8466C256.035 59.2557 255.643 59.5814 255.154 59.8239C254.669 60.0625 254.105 60.1818 253.461 60.1818ZM262.649 51.2727V52.4091H258.126V51.2727H262.649ZM259.444 49.1818H260.785V57.5C260.785 57.8788 260.84 58.1629 260.95 58.3523C261.063 58.5379 261.207 58.6629 261.382 58.7273C261.56 58.7879 261.747 58.8182 261.944 58.8182C262.092 58.8182 262.213 58.8106 262.308 58.7955C262.402 58.7765 262.478 58.7614 262.535 58.75L262.808 59.9545C262.717 59.9886 262.59 60.0227 262.427 60.0568C262.264 60.0947 262.058 60.1136 261.808 60.1136C261.429 60.1136 261.058 60.0322 260.694 59.8693C260.334 59.7064 260.035 59.4583 259.796 59.125C259.562 58.7917 259.444 58.3712 259.444 57.8636V49.1818ZM268.231 60.1818C267.39 60.1818 266.665 59.9962 266.055 59.625C265.449 59.25 264.981 58.7273 264.651 58.0568C264.326 57.3826 264.163 56.5985 264.163 55.7045C264.163 54.8106 264.326 54.0227 264.651 53.3409C264.981 52.6553 265.439 52.1212 266.026 51.7386C266.617 51.3523 267.307 51.1591 268.095 51.1591C268.549 51.1591 268.998 51.2348 269.441 51.3864C269.884 51.5379 270.288 51.7841 270.651 52.125C271.015 52.4621 271.305 52.9091 271.521 53.4659C271.737 54.0227 271.845 54.7083 271.845 55.5227V56.0909H265.117V54.9318H270.481C270.481 54.4394 270.383 54 270.186 53.6136C269.992 53.2273 269.716 52.9223 269.356 52.6989C269 52.4754 268.58 52.3636 268.095 52.3636C267.561 52.3636 267.098 52.4962 266.708 52.7614C266.322 53.0227 266.025 53.3636 265.816 53.7841C265.608 54.2045 265.504 54.6553 265.504 55.1364V55.9091C265.504 56.5682 265.617 57.1269 265.845 57.5852C266.076 58.0398 266.396 58.3864 266.805 58.625C267.214 58.8598 267.689 58.9773 268.231 58.9773C268.583 58.9773 268.901 58.928 269.186 58.8295C269.473 58.7273 269.722 58.5758 269.93 58.375C270.138 58.1705 270.299 57.9167 270.413 57.6136L271.708 57.9773C271.572 58.4167 271.343 58.803 271.021 59.1364C270.699 59.4659 270.301 59.7235 269.828 59.9091C269.354 60.0909 268.822 60.1818 268.231 60.1818ZM277.18 60.1818C276.453 60.1818 275.811 59.9981 275.254 59.6307C274.697 59.2595 274.261 58.7367 273.947 58.0625C273.633 57.3845 273.475 56.5833 273.475 55.6591C273.475 54.7424 273.633 53.947 273.947 53.2727C274.261 52.5985 274.699 52.0777 275.259 51.7102C275.82 51.3428 276.468 51.1591 277.203 51.1591C277.771 51.1591 278.22 51.2538 278.549 51.4432C278.883 51.6288 279.136 51.8409 279.311 52.0795C279.489 52.3144 279.627 52.5076 279.725 52.6591H279.839V48.3636H281.18V60H279.884V58.6591H279.725C279.627 58.8182 279.487 59.0189 279.305 59.2614C279.123 59.5 278.864 59.714 278.526 59.9034C278.189 60.089 277.74 60.1818 277.18 60.1818ZM277.362 58.9773C277.9 58.9773 278.354 58.8371 278.725 58.5568C279.097 58.2727 279.379 57.8807 279.572 57.3807C279.765 56.8769 279.862 56.2955 279.862 55.6364C279.862 54.9848 279.767 54.4148 279.578 53.9261C279.388 53.4337 279.108 53.0511 278.737 52.7784C278.365 52.5019 277.907 52.3636 277.362 52.3636C276.794 52.3636 276.32 52.5095 275.941 52.8011C275.566 53.089 275.284 53.4811 275.095 53.9773C274.909 54.4697 274.816 55.0227 274.816 55.6364C274.816 56.2576 274.911 56.822 275.1 57.3295C275.294 57.8333 275.578 58.2348 275.953 58.5341C276.331 58.8295 276.801 58.9773 277.362 58.9773ZM289.913 48.3636V60H288.504V48.3636H289.913ZM296.352 51.2727V52.4091H291.829V51.2727H296.352ZM293.147 49.1818H294.488V57.5C294.488 57.8788 294.543 58.1629 294.653 58.3523C294.767 58.5379 294.91 58.6629 295.085 58.7273C295.263 58.7879 295.45 58.8182 295.647 58.8182C295.795 58.8182 295.916 58.8106 296.011 58.7955C296.106 58.7765 296.181 58.7614 296.238 58.75L296.511 59.9545C296.42 59.9886 296.293 60.0227 296.13 60.0568C295.967 60.0947 295.761 60.1136 295.511 60.1136C295.132 60.1136 294.761 60.0322 294.397 59.8693C294.037 59.7064 293.738 59.4583 293.499 59.125C293.265 58.7917 293.147 58.3712 293.147 57.8636V49.1818ZM301.934 60.1818C301.093 60.1818 300.368 59.9962 299.758 59.625C299.152 59.25 298.684 58.7273 298.355 58.0568C298.029 57.3826 297.866 56.5985 297.866 55.7045C297.866 54.8106 298.029 54.0227 298.355 53.3409C298.684 52.6553 299.142 52.1212 299.73 51.7386C300.321 51.3523 301.01 51.1591 301.798 51.1591C302.252 51.1591 302.701 51.2348 303.144 51.3864C303.588 51.5379 303.991 51.7841 304.355 52.125C304.718 52.4621 305.008 52.9091 305.224 53.4659C305.44 54.0227 305.548 54.7083 305.548 55.5227V56.0909H298.821V54.9318H304.184C304.184 54.4394 304.086 54 303.889 53.6136C303.696 53.2273 303.419 52.9223 303.059 52.6989C302.703 52.4754 302.283 52.3636 301.798 52.3636C301.264 52.3636 300.802 52.4962 300.411 52.7614C300.025 53.0227 299.728 53.3636 299.519 53.7841C299.311 54.2045 299.207 54.6553 299.207 55.1364V55.9091C299.207 56.5682 299.321 57.1269 299.548 57.5852C299.779 58.0398 300.099 58.3864 300.508 58.625C300.917 58.8598 301.392 58.9773 301.934 58.9773C302.286 58.9773 302.605 58.928 302.889 58.8295C303.177 58.7273 303.425 58.5758 303.633 58.375C303.841 58.1705 304.002 57.9167 304.116 57.6136L305.411 57.9773C305.275 58.4167 305.046 58.803 304.724 59.1364C304.402 59.4659 304.004 59.7235 303.531 59.9091C303.057 60.0909 302.525 60.1818 301.934 60.1818ZM307.588 60V51.2727H308.883V52.6364H308.997C309.178 52.1705 309.472 51.8087 309.877 51.5511C310.283 51.2898 310.769 51.1591 311.338 51.1591C311.913 51.1591 312.392 51.2898 312.775 51.5511C313.161 51.8087 313.463 52.1705 313.678 52.6364H313.769C313.993 52.1856 314.328 51.8277 314.775 51.5625C315.222 51.2936 315.758 51.1591 316.383 51.1591C317.163 51.1591 317.802 51.4034 318.298 51.892C318.794 52.3769 319.042 53.1326 319.042 54.1591V60H317.701V54.1591C317.701 53.5152 317.525 53.0549 317.173 52.7784C316.821 52.5019 316.406 52.3636 315.928 52.3636C315.315 52.3636 314.839 52.5492 314.502 52.9205C314.165 53.2879 313.997 53.7538 313.997 54.3182V60H312.633V54.0227C312.633 53.5265 312.472 53.1269 312.15 52.8239C311.828 52.517 311.413 52.3636 310.906 52.3636C310.557 52.3636 310.232 52.4564 309.928 52.642C309.629 52.8277 309.387 53.0852 309.201 53.4148C309.019 53.7405 308.928 54.1174 308.928 54.5455V60H307.588ZM327.676 53.2273L326.471 53.5682C326.395 53.3674 326.284 53.1723 326.136 52.983C325.992 52.7898 325.795 52.6307 325.545 52.5057C325.295 52.3807 324.975 52.3182 324.585 52.3182C324.051 52.3182 323.606 52.4413 323.249 52.6875C322.897 52.9299 322.721 53.2386 322.721 53.6136C322.721 53.947 322.842 54.2102 323.085 54.4034C323.327 54.5966 323.706 54.7576 324.221 54.8864L325.517 55.2045C326.297 55.3939 326.878 55.6837 327.261 56.0739C327.643 56.4602 327.835 56.9583 327.835 57.5682C327.835 58.0682 327.691 58.5152 327.403 58.9091C327.119 59.303 326.721 59.6136 326.21 59.8409C325.698 60.0682 325.104 60.1818 324.426 60.1818C323.535 60.1818 322.799 59.9886 322.215 59.6023C321.632 59.2159 321.263 58.6515 321.107 57.9091L322.38 57.5909C322.501 58.0606 322.731 58.4129 323.068 58.6477C323.409 58.8826 323.854 59 324.403 59C325.028 59 325.524 58.8674 325.892 58.6023C326.263 58.3333 326.448 58.0114 326.448 57.6364C326.448 57.3333 326.342 57.0795 326.13 56.875C325.918 56.6667 325.592 56.5114 325.153 56.4091L323.698 56.0682C322.899 55.8788 322.312 55.5852 321.937 55.1875C321.566 54.786 321.38 54.2841 321.38 53.6818C321.38 53.1894 321.518 52.7538 321.795 52.375C322.075 51.9962 322.456 51.6989 322.937 51.483C323.422 51.267 323.971 51.1591 324.585 51.1591C325.448 51.1591 326.126 51.3485 326.619 51.7273C327.115 52.1061 327.467 52.6061 327.676 53.2273ZM330.83 60.0909C330.55 60.0909 330.31 59.9905 330.109 59.7898C329.908 59.589 329.808 59.3485 329.808 59.0682C329.808 58.7879 329.908 58.5473 330.109 58.3466C330.31 58.1458 330.55 58.0455 330.83 58.0455C331.111 58.0455 331.351 58.1458 331.552 58.3466C331.753 58.5473 331.853 58.7879 331.853 59.0682C331.853 59.2538 331.806 59.4242 331.711 59.5795C331.62 59.7348 331.497 59.8598 331.342 59.9545C331.19 60.0455 331.02 60.0909 330.83 60.0909ZM330.83 53.6136C330.55 53.6136 330.31 53.5133 330.109 53.3125C329.908 53.1117 329.808 52.8712 329.808 52.5909C329.808 52.3106 329.908 52.0701 330.109 51.8693C330.31 51.6686 330.55 51.5682 330.83 51.5682C331.111 51.5682 331.351 51.6686 331.552 51.8693C331.753 52.0701 331.853 52.3106 331.853 52.5909C331.853 52.7765 331.806 52.947 331.711 53.1023C331.62 53.2576 331.497 53.3826 331.342 53.4773C331.19 53.5682 331.02 53.6136 330.83 53.6136ZM342.532 60.1591C341.676 60.1591 340.947 59.9261 340.345 59.4602C339.742 58.9905 339.282 58.3106 338.964 57.4205C338.646 56.5265 338.487 55.447 338.487 54.1818C338.487 52.9242 338.646 51.8504 338.964 50.9602C339.286 50.0663 339.748 49.3845 340.35 48.9148C340.956 48.4413 341.684 48.2045 342.532 48.2045C343.381 48.2045 344.106 48.4413 344.708 48.9148C345.314 49.3845 345.776 50.0663 346.095 50.9602C346.417 51.8504 346.578 52.9242 346.578 54.1818C346.578 55.447 346.419 56.5265 346.1 57.4205C345.782 58.3106 345.322 58.9905 344.72 59.4602C344.117 59.9261 343.388 60.1591 342.532 60.1591ZM342.532 58.9091C343.381 58.9091 344.04 58.5 344.509 57.6818C344.979 56.8636 345.214 55.697 345.214 54.1818C345.214 53.1742 345.106 52.3163 344.89 51.608C344.678 50.8996 344.371 50.3598 343.97 49.9886C343.572 49.6174 343.093 49.4318 342.532 49.4318C341.691 49.4318 341.034 49.8466 340.561 50.6761C340.087 51.5019 339.85 52.6705 339.85 54.1818C339.85 55.1894 339.956 56.0455 340.169 56.75C340.381 57.4545 340.686 57.9905 341.083 58.358C341.485 58.7254 341.968 58.9091 342.532 58.9091Z" fill="#A6A6A6"/>
</svg>
