<svg width="1187" height="1014" viewBox="0 0 1187 1014" fill="none" xmlns="http://www.w3.org/2000/svg">
<rect width="1187" height="1014" rx="10" fill="#D9D9D9"/>
<rect x="48" y="908" width="252" height="74" rx="10" fill="#66BB6A"/>
<path d="M68.2443 956H64.9205L74.5341 929.818H77.8068L87.4205 956H84.0966L76.2727 933.96H76.0682L68.2443 956ZM69.4716 945.773H82.8693V948.585H69.4716V945.773ZM99.0668 956.409C97.2259 956.409 95.6406 955.974 94.3111 955.105C92.9815 954.236 91.9588 953.038 91.2429 951.513C90.527 949.987 90.169 948.244 90.169 946.284C90.169 944.29 90.5355 942.53 91.2685 941.004C92.0099 939.47 93.0412 938.273 94.3622 937.412C95.6918 936.543 97.2429 936.108 99.0156 936.108C100.396 936.108 101.641 936.364 102.749 936.875C103.857 937.386 104.764 938.102 105.472 939.023C106.179 939.943 106.618 941.017 106.788 942.244H103.771C103.541 941.349 103.03 940.557 102.237 939.866C101.453 939.168 100.396 938.818 99.0668 938.818C97.8906 938.818 96.8594 939.125 95.973 939.739C95.0952 940.344 94.4091 941.2 93.9148 942.308C93.429 943.408 93.1861 944.699 93.1861 946.182C93.1861 947.699 93.4247 949.02 93.902 950.145C94.3878 951.27 95.0696 952.143 95.9474 952.766C96.8338 953.388 97.8736 953.699 99.0668 953.699C99.8509 953.699 100.562 953.562 101.202 953.29C101.841 953.017 102.382 952.625 102.825 952.114C103.268 951.602 103.584 950.989 103.771 950.273H106.788C106.618 951.432 106.196 952.476 105.523 953.405C104.858 954.325 103.976 955.058 102.876 955.604C101.786 956.141 100.516 956.409 99.0668 956.409ZM119.176 956.409C117.335 956.409 115.75 955.974 114.42 955.105C113.091 954.236 112.068 953.038 111.352 951.513C110.636 949.987 110.278 948.244 110.278 946.284C110.278 944.29 110.645 942.53 111.378 941.004C112.119 939.47 113.151 938.273 114.472 937.412C115.801 936.543 117.352 936.108 119.125 936.108C120.506 936.108 121.75 936.364 122.858 936.875C123.966 937.386 124.874 938.102 125.581 939.023C126.288 939.943 126.727 941.017 126.898 942.244H123.881C123.651 941.349 123.139 940.557 122.347 939.866C121.563 939.168 120.506 938.818 119.176 938.818C118 938.818 116.969 939.125 116.082 939.739C115.205 940.344 114.518 941.2 114.024 942.308C113.538 943.408 113.295 944.699 113.295 946.182C113.295 947.699 113.534 949.02 114.011 950.145C114.497 951.27 115.179 952.143 116.057 952.766C116.943 953.388 117.983 953.699 119.176 953.699C119.96 953.699 120.672 953.562 121.311 953.29C121.95 953.017 122.491 952.625 122.935 952.114C123.378 951.602 123.693 950.989 123.881 950.273H126.898C126.727 951.432 126.305 952.476 125.632 953.405C124.967 954.325 124.085 955.058 122.986 955.604C121.895 956.141 120.625 956.409 119.176 956.409ZM139.541 956.409C137.649 956.409 136.017 955.991 134.645 955.156C133.281 954.312 132.229 953.136 131.487 951.628C130.754 950.111 130.388 948.347 130.388 946.335C130.388 944.324 130.754 942.551 131.487 941.017C132.229 939.474 133.26 938.273 134.581 937.412C135.911 936.543 137.462 936.108 139.234 936.108C140.257 936.108 141.267 936.278 142.264 936.619C143.261 936.96 144.169 937.514 144.987 938.281C145.805 939.04 146.457 940.045 146.943 941.298C147.429 942.551 147.672 944.094 147.672 945.926V947.205H132.536V944.597H144.604C144.604 943.489 144.382 942.5 143.939 941.631C143.504 940.761 142.882 940.075 142.072 939.572C141.271 939.07 140.325 938.818 139.234 938.818C138.033 938.818 136.993 939.116 136.115 939.713C135.246 940.301 134.577 941.068 134.108 942.014C133.639 942.96 133.405 943.974 133.405 945.057V946.795C133.405 948.278 133.661 949.536 134.172 950.567C134.692 951.589 135.412 952.369 136.332 952.906C137.253 953.435 138.322 953.699 139.541 953.699C140.334 953.699 141.05 953.588 141.689 953.366C142.337 953.136 142.895 952.795 143.364 952.344C143.832 951.884 144.195 951.312 144.45 950.631L147.365 951.449C147.058 952.438 146.543 953.307 145.818 954.057C145.094 954.798 144.199 955.378 143.134 955.795C142.068 956.205 140.871 956.409 139.541 956.409ZM152.261 963.364V936.364H155.176V939.483H155.534C155.756 939.142 156.063 938.707 156.455 938.179C156.855 937.642 157.426 937.165 158.168 936.747C158.918 936.321 159.932 936.108 161.21 936.108C162.864 936.108 164.321 936.521 165.582 937.348C166.844 938.175 167.828 939.347 168.536 940.864C169.243 942.381 169.597 944.17 169.597 946.233C169.597 948.312 169.243 950.115 168.536 951.641C167.828 953.158 166.848 954.334 165.595 955.169C164.342 955.996 162.898 956.409 161.261 956.409C160 956.409 158.99 956.2 158.232 955.783C157.473 955.357 156.889 954.875 156.48 954.338C156.071 953.793 155.756 953.341 155.534 952.983H155.278V963.364H152.261ZM155.227 946.182C155.227 947.665 155.445 948.973 155.879 950.107C156.314 951.232 156.949 952.114 157.784 952.753C158.619 953.384 159.642 953.699 160.852 953.699C162.114 953.699 163.166 953.366 164.01 952.702C164.862 952.028 165.501 951.125 165.928 949.991C166.362 948.849 166.58 947.58 166.58 946.182C166.58 944.801 166.366 943.557 165.94 942.449C165.523 941.332 164.888 940.45 164.036 939.803C163.192 939.146 162.131 938.818 160.852 938.818C159.625 938.818 158.594 939.129 157.759 939.751C156.923 940.365 156.293 941.226 155.866 942.334C155.44 943.433 155.227 944.716 155.227 946.182ZM182.739 936.364V938.92H172.562V936.364H182.739ZM175.528 931.659H178.545V950.375C178.545 951.227 178.669 951.866 178.916 952.293C179.172 952.71 179.496 952.991 179.888 953.136C180.288 953.273 180.71 953.341 181.153 953.341C181.486 953.341 181.759 953.324 181.972 953.29C182.185 953.247 182.355 953.213 182.483 953.188L183.097 955.898C182.892 955.974 182.607 956.051 182.24 956.128C181.874 956.213 181.409 956.256 180.847 956.256C179.994 956.256 179.159 956.072 178.341 955.706C177.531 955.339 176.858 954.781 176.321 954.031C175.793 953.281 175.528 952.335 175.528 951.193V931.659ZM196.379 932.631V929.818H216.016V932.631H207.783V956H204.612V932.631H196.379ZM218.461 956V936.364H221.375V939.33H221.58C221.938 938.358 222.586 937.57 223.523 936.964C224.461 936.359 225.517 936.057 226.694 936.057C226.915 936.057 227.192 936.061 227.525 936.07C227.857 936.078 228.108 936.091 228.279 936.108V939.176C228.176 939.151 227.942 939.112 227.576 939.061C227.218 939.001 226.838 938.972 226.438 938.972C225.483 938.972 224.631 939.172 223.881 939.572C223.14 939.964 222.551 940.51 222.117 941.209C221.691 941.899 221.478 942.687 221.478 943.574V956H218.461ZM237.634 956.46C236.389 956.46 235.26 956.226 234.246 955.757C233.232 955.28 232.426 954.594 231.83 953.699C231.233 952.795 230.935 951.705 230.935 950.426C230.935 949.301 231.156 948.389 231.599 947.69C232.043 946.983 232.635 946.429 233.376 946.028C234.118 945.628 234.936 945.33 235.831 945.134C236.734 944.929 237.642 944.767 238.554 944.648C239.747 944.494 240.714 944.379 241.456 944.303C242.206 944.217 242.751 944.077 243.092 943.881C243.442 943.685 243.616 943.344 243.616 942.858V942.756C243.616 941.494 243.271 940.514 242.581 939.815C241.899 939.116 240.864 938.767 239.474 938.767C238.034 938.767 236.905 939.082 236.087 939.713C235.268 940.344 234.693 941.017 234.361 941.733L231.497 940.71C232.009 939.517 232.69 938.588 233.543 937.923C234.403 937.25 235.341 936.781 236.355 936.517C237.378 936.244 238.384 936.108 239.372 936.108C240.003 936.108 240.727 936.185 241.545 936.338C242.372 936.483 243.169 936.786 243.936 937.246C244.712 937.706 245.355 938.401 245.866 939.33C246.378 940.259 246.634 941.503 246.634 943.062V956H243.616V953.341H243.463C243.259 953.767 242.918 954.223 242.44 954.709C241.963 955.195 241.328 955.608 240.536 955.949C239.743 956.29 238.776 956.46 237.634 956.46ZM238.094 953.75C239.287 953.75 240.293 953.516 241.111 953.047C241.938 952.578 242.56 951.973 242.977 951.232C243.403 950.49 243.616 949.71 243.616 948.892V946.131C243.489 946.284 243.207 946.425 242.773 946.553C242.347 946.672 241.852 946.778 241.29 946.872C240.736 946.957 240.195 947.034 239.666 947.102C239.146 947.162 238.724 947.213 238.401 947.256C237.616 947.358 236.884 947.524 236.202 947.754C235.528 947.976 234.983 948.312 234.565 948.764C234.156 949.207 233.952 949.812 233.952 950.58C233.952 951.628 234.339 952.42 235.115 952.957C235.899 953.486 236.892 953.75 238.094 953.75ZM259.555 956.409C257.919 956.409 256.474 955.996 255.221 955.169C253.968 954.334 252.988 953.158 252.281 951.641C251.574 950.115 251.22 948.312 251.22 946.233C251.22 944.17 251.574 942.381 252.281 940.864C252.988 939.347 253.973 938.175 255.234 937.348C256.495 936.521 257.953 936.108 259.606 936.108C260.885 936.108 261.895 936.321 262.636 936.747C263.386 937.165 263.957 937.642 264.349 938.179C264.75 938.707 265.061 939.142 265.282 939.483H265.538V929.818H268.555V956H265.64V952.983H265.282C265.061 953.341 264.745 953.793 264.336 954.338C263.927 954.875 263.343 955.357 262.585 955.783C261.826 956.2 260.816 956.409 259.555 956.409ZM259.964 953.699C261.174 953.699 262.197 953.384 263.032 952.753C263.868 952.114 264.502 951.232 264.937 950.107C265.372 948.973 265.589 947.665 265.589 946.182C265.589 944.716 265.376 943.433 264.95 942.334C264.524 941.226 263.893 940.365 263.058 939.751C262.223 939.129 261.191 938.818 259.964 938.818C258.686 938.818 257.62 939.146 256.768 939.803C255.924 940.45 255.289 941.332 254.863 942.449C254.446 943.557 254.237 944.801 254.237 946.182C254.237 947.58 254.45 948.849 254.876 949.991C255.311 951.125 255.95 952.028 256.794 952.702C257.646 953.366 258.703 953.699 259.964 953.699ZM282.733 956.409C280.841 956.409 279.208 955.991 277.836 955.156C276.473 954.312 275.42 953.136 274.679 951.628C273.946 950.111 273.579 948.347 273.579 946.335C273.579 944.324 273.946 942.551 274.679 941.017C275.42 939.474 276.451 938.273 277.772 937.412C279.102 936.543 280.653 936.108 282.426 936.108C283.449 936.108 284.458 936.278 285.456 936.619C286.453 936.96 287.36 937.514 288.179 938.281C288.997 939.04 289.649 940.045 290.135 941.298C290.62 942.551 290.863 944.094 290.863 945.926V947.205H275.727V944.597H287.795C287.795 943.489 287.574 942.5 287.13 941.631C286.696 940.761 286.074 940.075 285.264 939.572C284.463 939.07 283.517 938.818 282.426 938.818C281.224 938.818 280.184 939.116 279.306 939.713C278.437 940.301 277.768 941.068 277.299 942.014C276.831 942.96 276.596 943.974 276.596 945.057V946.795C276.596 948.278 276.852 949.536 277.363 950.567C277.883 951.589 278.603 952.369 279.524 952.906C280.444 953.435 281.514 953.699 282.733 953.699C283.525 953.699 284.241 953.588 284.88 953.366C285.528 953.136 286.086 952.795 286.555 952.344C287.024 951.884 287.386 951.312 287.642 950.631L290.556 951.449C290.25 952.438 289.734 953.307 289.01 954.057C288.285 954.798 287.39 955.378 286.325 955.795C285.26 956.205 284.062 956.409 282.733 956.409Z" fill="white"/>
<rect x="891" y="891" width="252" height="74" rx="10" fill="#E53935"/>
<path d="M931.239 921H928.068C927.881 920.088 927.553 919.287 927.084 918.597C926.624 917.906 926.061 917.327 925.396 916.858C924.74 916.381 924.011 916.023 923.21 915.784C922.409 915.545 921.574 915.426 920.705 915.426C919.119 915.426 917.683 915.827 916.396 916.628C915.118 917.429 914.099 918.609 913.341 920.169C912.591 921.729 912.216 923.642 912.216 925.909C912.216 928.176 912.591 930.089 913.341 931.649C914.099 933.209 915.118 934.389 916.396 935.19C917.683 935.991 919.119 936.392 920.705 936.392C921.574 936.392 922.409 936.273 923.21 936.034C924.011 935.795 924.74 935.442 925.396 934.973C926.061 934.496 926.624 933.912 927.084 933.222C927.553 932.523 927.881 931.722 928.068 930.818H931.239C931 932.156 930.565 933.354 929.935 934.411C929.304 935.467 928.52 936.366 927.582 937.108C926.645 937.841 925.592 938.399 924.425 938.783C923.266 939.166 922.026 939.358 920.705 939.358C918.472 939.358 916.486 938.812 914.747 937.722C913.009 936.631 911.641 935.08 910.643 933.068C909.646 931.057 909.148 928.67 909.148 925.909C909.148 923.148 909.646 920.761 910.643 918.75C911.641 916.739 913.009 915.188 914.747 914.097C916.486 913.006 918.472 912.46 920.705 912.46C922.026 912.46 923.266 912.652 924.425 913.036C925.592 913.419 926.645 913.982 927.582 914.723C928.52 915.456 929.304 916.351 929.935 917.408C930.565 918.456 931 919.653 931.239 921ZM941.731 939.46C940.487 939.46 939.358 939.226 938.343 938.757C937.329 938.28 936.524 937.594 935.927 936.699C935.331 935.795 935.032 934.705 935.032 933.426C935.032 932.301 935.254 931.389 935.697 930.69C936.14 929.983 936.733 929.429 937.474 929.028C938.216 928.628 939.034 928.33 939.929 928.134C940.832 927.929 941.74 927.767 942.652 927.648C943.845 927.494 944.812 927.379 945.554 927.303C946.304 927.217 946.849 927.077 947.19 926.881C947.539 926.685 947.714 926.344 947.714 925.858V925.756C947.714 924.494 947.369 923.514 946.679 922.815C945.997 922.116 944.961 921.767 943.572 921.767C942.132 921.767 941.002 922.082 940.184 922.713C939.366 923.344 938.791 924.017 938.458 924.733L935.595 923.71C936.106 922.517 936.788 921.588 937.64 920.923C938.501 920.25 939.439 919.781 940.453 919.517C941.475 919.244 942.481 919.108 943.47 919.108C944.1 919.108 944.825 919.185 945.643 919.338C946.47 919.483 947.267 919.786 948.034 920.246C948.809 920.706 949.453 921.401 949.964 922.33C950.475 923.259 950.731 924.503 950.731 926.062V939H947.714V936.341H947.561C947.356 936.767 947.015 937.223 946.538 937.709C946.061 938.195 945.426 938.608 944.633 938.949C943.841 939.29 942.873 939.46 941.731 939.46ZM942.191 936.75C943.385 936.75 944.39 936.516 945.208 936.047C946.035 935.578 946.657 934.973 947.075 934.232C947.501 933.49 947.714 932.71 947.714 931.892V929.131C947.586 929.284 947.305 929.425 946.87 929.553C946.444 929.672 945.95 929.778 945.387 929.872C944.833 929.957 944.292 930.034 943.764 930.102C943.244 930.162 942.822 930.213 942.498 930.256C941.714 930.358 940.981 930.524 940.299 930.754C939.626 930.976 939.081 931.312 938.663 931.764C938.254 932.207 938.049 932.812 938.049 933.58C938.049 934.628 938.437 935.42 939.213 935.957C939.997 936.486 940.99 936.75 942.191 936.75ZM959.255 927.188V939H956.238V919.364H959.153V922.432H959.408C959.869 921.435 960.567 920.634 961.505 920.028C962.442 919.415 963.653 919.108 965.136 919.108C966.465 919.108 967.629 919.381 968.626 919.926C969.623 920.463 970.398 921.281 970.952 922.381C971.506 923.472 971.783 924.852 971.783 926.523V939H968.766V926.727C968.766 925.185 968.366 923.983 967.565 923.122C966.763 922.253 965.664 921.818 964.266 921.818C963.303 921.818 962.442 922.027 961.684 922.445C960.934 922.862 960.342 923.472 959.907 924.273C959.472 925.074 959.255 926.045 959.255 927.188ZM985.274 939.409C983.433 939.409 981.848 938.974 980.518 938.105C979.189 937.236 978.166 936.038 977.45 934.513C976.734 932.987 976.376 931.244 976.376 929.284C976.376 927.29 976.743 925.53 977.475 924.004C978.217 922.47 979.248 921.273 980.569 920.412C981.899 919.543 983.45 919.108 985.223 919.108C986.603 919.108 987.848 919.364 988.956 919.875C990.064 920.386 990.971 921.102 991.679 922.023C992.386 922.943 992.825 924.017 992.995 925.244H989.978C989.748 924.349 989.237 923.557 988.444 922.866C987.66 922.168 986.603 921.818 985.274 921.818C984.098 921.818 983.066 922.125 982.18 922.739C981.302 923.344 980.616 924.2 980.122 925.308C979.636 926.408 979.393 927.699 979.393 929.182C979.393 930.699 979.632 932.02 980.109 933.145C980.595 934.27 981.277 935.143 982.154 935.766C983.041 936.388 984.081 936.699 985.274 936.699C986.058 936.699 986.77 936.562 987.409 936.29C988.048 936.017 988.589 935.625 989.032 935.114C989.475 934.602 989.791 933.989 989.978 933.273H992.995C992.825 934.432 992.403 935.476 991.73 936.405C991.065 937.325 990.183 938.058 989.083 938.604C987.993 939.141 986.723 939.409 985.274 939.409ZM1005.64 939.409C1003.75 939.409 1002.11 938.991 1000.74 938.156C999.379 937.312 998.326 936.136 997.585 934.628C996.852 933.111 996.485 931.347 996.485 929.335C996.485 927.324 996.852 925.551 997.585 924.017C998.326 922.474 999.358 921.273 1000.68 920.412C1002.01 919.543 1003.56 919.108 1005.33 919.108C1006.35 919.108 1007.36 919.278 1008.36 919.619C1009.36 919.96 1010.27 920.514 1011.08 921.281C1011.9 922.04 1012.56 923.045 1013.04 924.298C1013.53 925.551 1013.77 927.094 1013.77 928.926V930.205H998.633V927.597H1010.7C1010.7 926.489 1010.48 925.5 1010.04 924.631C1009.6 923.761 1008.98 923.075 1008.17 922.572C1007.37 922.07 1006.42 921.818 1005.33 921.818C1004.13 921.818 1003.09 922.116 1002.21 922.713C1001.34 923.301 1000.67 924.068 1000.21 925.014C999.737 925.96 999.502 926.974 999.502 928.057V929.795C999.502 931.278 999.758 932.536 1000.27 933.567C1000.79 934.589 1001.51 935.369 1002.43 935.906C1003.35 936.435 1004.42 936.699 1005.64 936.699C1006.43 936.699 1007.15 936.588 1007.79 936.366C1008.43 936.136 1008.99 935.795 1009.46 935.344C1009.93 934.884 1010.29 934.312 1010.55 933.631L1013.46 934.449C1013.16 935.438 1012.64 936.307 1011.92 937.057C1011.19 937.798 1010.3 938.378 1009.23 938.795C1008.17 939.205 1006.97 939.409 1005.64 939.409ZM1021.38 912.818V939H1018.36V912.818H1021.38ZM1036 915.631V912.818H1055.64V915.631H1047.41V939H1044.24V915.631H1036ZM1058.09 939V919.364H1061V922.33H1061.2C1061.56 921.358 1062.21 920.57 1063.15 919.964C1064.09 919.359 1065.14 919.057 1066.32 919.057C1066.54 919.057 1066.82 919.061 1067.15 919.07C1067.48 919.078 1067.73 919.091 1067.9 919.108V922.176C1067.8 922.151 1067.57 922.112 1067.2 922.061C1066.84 922.001 1066.46 921.972 1066.06 921.972C1065.11 921.972 1064.26 922.172 1063.51 922.572C1062.76 922.964 1062.18 923.51 1061.74 924.209C1061.32 924.899 1061.1 925.687 1061.1 926.574V939H1058.09ZM1077.26 939.46C1076.01 939.46 1074.88 939.226 1073.87 938.757C1072.86 938.28 1072.05 937.594 1071.45 936.699C1070.86 935.795 1070.56 934.705 1070.56 933.426C1070.56 932.301 1070.78 931.389 1071.22 930.69C1071.67 929.983 1072.26 929.429 1073 929.028C1073.74 928.628 1074.56 928.33 1075.46 928.134C1076.36 927.929 1077.27 927.767 1078.18 927.648C1079.37 927.494 1080.34 927.379 1081.08 927.303C1081.83 927.217 1082.38 927.077 1082.72 926.881C1083.07 926.685 1083.24 926.344 1083.24 925.858V925.756C1083.24 924.494 1082.9 923.514 1082.21 922.815C1081.52 922.116 1080.49 921.767 1079.1 921.767C1077.66 921.767 1076.53 922.082 1075.71 922.713C1074.89 923.344 1074.32 924.017 1073.99 924.733L1071.12 923.71C1071.63 922.517 1072.32 921.588 1073.17 920.923C1074.03 920.25 1074.97 919.781 1075.98 919.517C1077 919.244 1078.01 919.108 1079 919.108C1079.63 919.108 1080.35 919.185 1081.17 919.338C1082 919.483 1082.79 919.786 1083.56 920.246C1084.34 920.706 1084.98 921.401 1085.49 922.33C1086 923.259 1086.26 924.503 1086.26 926.062V939H1083.24V936.341H1083.09C1082.88 936.767 1082.54 937.223 1082.07 937.709C1081.59 938.195 1080.95 938.608 1080.16 938.949C1079.37 939.29 1078.4 939.46 1077.26 939.46ZM1077.72 936.75C1078.91 936.75 1079.92 936.516 1080.74 936.047C1081.56 935.578 1082.18 934.973 1082.6 934.232C1083.03 933.49 1083.24 932.71 1083.24 931.892V929.131C1083.11 929.284 1082.83 929.425 1082.4 929.553C1081.97 929.672 1081.48 929.778 1080.91 929.872C1080.36 929.957 1079.82 930.034 1079.29 930.102C1078.77 930.162 1078.35 930.213 1078.03 930.256C1077.24 930.358 1076.51 930.524 1075.83 930.754C1075.15 930.976 1074.61 931.312 1074.19 931.764C1073.78 932.207 1073.58 932.812 1073.58 933.58C1073.58 934.628 1073.96 935.42 1074.74 935.957C1075.52 936.486 1076.52 936.75 1077.72 936.75ZM1099.18 939.409C1097.54 939.409 1096.1 938.996 1094.85 938.169C1093.59 937.334 1092.61 936.158 1091.91 934.641C1091.2 933.115 1090.84 931.312 1090.84 929.233C1090.84 927.17 1091.2 925.381 1091.91 923.864C1092.61 922.347 1093.6 921.175 1094.86 920.348C1096.12 919.521 1097.58 919.108 1099.23 919.108C1100.51 919.108 1101.52 919.321 1102.26 919.747C1103.01 920.165 1103.58 920.642 1103.97 921.179C1104.37 921.707 1104.69 922.142 1104.91 922.483H1105.16V912.818H1108.18V939H1105.27V935.983H1104.91C1104.69 936.341 1104.37 936.793 1103.96 937.338C1103.55 937.875 1102.97 938.357 1102.21 938.783C1101.45 939.2 1100.44 939.409 1099.18 939.409ZM1099.59 936.699C1100.8 936.699 1101.82 936.384 1102.66 935.753C1103.49 935.114 1104.13 934.232 1104.56 933.107C1105 931.973 1105.21 930.665 1105.21 929.182C1105.21 927.716 1105 926.433 1104.57 925.334C1104.15 924.226 1103.52 923.365 1102.68 922.751C1101.85 922.129 1100.82 921.818 1099.59 921.818C1098.31 921.818 1097.25 922.146 1096.39 922.803C1095.55 923.45 1094.91 924.332 1094.49 925.449C1094.07 926.557 1093.86 927.801 1093.86 929.182C1093.86 930.58 1094.07 931.849 1094.5 932.991C1094.94 934.125 1095.57 935.028 1096.42 935.702C1097.27 936.366 1098.33 936.699 1099.59 936.699ZM1122.36 939.409C1120.47 939.409 1118.83 938.991 1117.46 938.156C1116.1 937.312 1115.05 936.136 1114.3 934.628C1113.57 933.111 1113.2 931.347 1113.2 929.335C1113.2 927.324 1113.57 925.551 1114.3 924.017C1115.05 922.474 1116.08 921.273 1117.4 920.412C1118.73 919.543 1120.28 919.108 1122.05 919.108C1123.07 919.108 1124.08 919.278 1125.08 919.619C1126.08 919.96 1126.99 920.514 1127.8 921.281C1128.62 922.04 1129.27 923.045 1129.76 924.298C1130.25 925.551 1130.49 927.094 1130.49 928.926V930.205H1115.35V927.597H1127.42C1127.42 926.489 1127.2 925.5 1126.76 924.631C1126.32 923.761 1125.7 923.075 1124.89 922.572C1124.09 922.07 1123.14 921.818 1122.05 921.818C1120.85 921.818 1119.81 922.116 1118.93 922.713C1118.06 923.301 1117.39 924.068 1116.92 925.014C1116.46 925.96 1116.22 926.974 1116.22 928.057V929.795C1116.22 931.278 1116.48 932.536 1116.99 933.567C1117.51 934.589 1118.23 935.369 1119.15 935.906C1120.07 936.435 1121.14 936.699 1122.36 936.699C1123.15 936.699 1123.87 936.588 1124.51 936.366C1125.15 936.136 1125.71 935.795 1126.18 935.344C1126.65 934.884 1127.01 934.312 1127.27 933.631L1130.18 934.449C1129.87 935.438 1129.36 936.307 1128.63 937.057C1127.91 937.798 1127.02 938.378 1125.95 938.795C1124.88 939.205 1123.69 939.409 1122.36 939.409Z" fill="white"/>
<path d="M48.9205 183.818H52.5511L59.8125 196.04H60.1193L67.3807 183.818H71.0114L61.5511 199.21V210H58.3807V199.21L48.9205 183.818ZM79.9027 210.409C78.13 210.409 76.5746 209.987 75.2365 209.143C73.907 208.3 72.8672 207.119 72.1172 205.602C71.3757 204.085 71.005 202.312 71.005 200.284C71.005 198.239 71.3757 196.453 72.1172 194.928C72.8672 193.402 73.907 192.217 75.2365 191.374C76.5746 190.53 78.13 190.108 79.9027 190.108C81.6754 190.108 83.2266 190.53 84.5561 191.374C85.8942 192.217 86.9339 193.402 87.6754 194.928C88.4254 196.453 88.8004 198.239 88.8004 200.284C88.8004 202.312 88.4254 204.085 87.6754 205.602C86.9339 207.119 85.8942 208.3 84.5561 209.143C83.2266 209.987 81.6754 210.409 79.9027 210.409ZM79.9027 207.699C81.2493 207.699 82.3572 207.354 83.2266 206.663C84.0959 205.973 84.7393 205.065 85.157 203.94C85.5746 202.815 85.7834 201.597 85.7834 200.284C85.7834 198.972 85.5746 197.749 85.157 196.615C84.7393 195.482 84.0959 194.565 83.2266 193.866C82.3572 193.168 81.2493 192.818 79.9027 192.818C78.5561 192.818 77.4482 193.168 76.5788 193.866C75.7095 194.565 75.0661 195.482 74.6484 196.615C74.2308 197.749 74.022 198.972 74.022 200.284C74.022 201.597 74.2308 202.815 74.6484 203.94C75.0661 205.065 75.7095 205.973 76.5788 206.663C77.4482 207.354 78.5561 207.699 79.9027 207.699ZM105.781 201.972V190.364H108.798V210H105.781V206.676H105.576C105.116 207.673 104.4 208.521 103.429 209.22C102.457 209.911 101.23 210.256 99.7468 210.256C98.5195 210.256 97.4286 209.987 96.4741 209.45C95.5195 208.905 94.7695 208.087 94.2241 206.996C93.6786 205.896 93.4059 204.511 93.4059 202.841V190.364H96.4229V202.636C96.4229 204.068 96.8235 205.21 97.6246 206.062C98.4343 206.915 99.4656 207.341 100.718 207.341C101.468 207.341 102.231 207.149 103.007 206.766C103.791 206.382 104.447 205.794 104.975 205.001C105.512 204.209 105.781 203.199 105.781 201.972ZM114.324 210V190.364H117.239V193.33H117.443C117.801 192.358 118.449 191.57 119.386 190.964C120.324 190.359 121.381 190.057 122.557 190.057C122.778 190.057 123.055 190.061 123.388 190.07C123.72 190.078 123.972 190.091 124.142 190.108V193.176C124.04 193.151 123.805 193.112 123.439 193.061C123.081 193.001 122.702 192.972 122.301 192.972C121.347 192.972 120.494 193.172 119.744 193.572C119.003 193.964 118.415 194.51 117.98 195.209C117.554 195.899 117.341 196.687 117.341 197.574V210H114.324ZM141.423 183.818V210H138.252V183.818H141.423ZM155.911 190.364V192.92H145.734V190.364H155.911ZM148.7 185.659H151.717V204.375C151.717 205.227 151.841 205.866 152.088 206.293C152.344 206.71 152.668 206.991 153.06 207.136C153.46 207.273 153.882 207.341 154.325 207.341C154.658 207.341 154.93 207.324 155.143 207.29C155.357 207.247 155.527 207.213 155.655 207.188L156.268 209.898C156.064 209.974 155.778 210.051 155.412 210.128C155.045 210.213 154.581 210.256 154.018 210.256C153.166 210.256 152.331 210.072 151.513 209.706C150.703 209.339 150.03 208.781 149.493 208.031C148.964 207.281 148.7 206.335 148.7 205.193V185.659ZM168.471 210.409C166.579 210.409 164.947 209.991 163.575 209.156C162.211 208.312 161.158 207.136 160.417 205.628C159.684 204.111 159.317 202.347 159.317 200.335C159.317 198.324 159.684 196.551 160.417 195.017C161.158 193.474 162.19 192.273 163.511 191.412C164.84 190.543 166.391 190.108 168.164 190.108C169.187 190.108 170.197 190.278 171.194 190.619C172.191 190.96 173.099 191.514 173.917 192.281C174.735 193.04 175.387 194.045 175.873 195.298C176.359 196.551 176.602 198.094 176.602 199.926V201.205H161.465V198.597H173.533C173.533 197.489 173.312 196.5 172.869 195.631C172.434 194.761 171.812 194.075 171.002 193.572C170.201 193.07 169.255 192.818 168.164 192.818C166.962 192.818 165.923 193.116 165.045 193.713C164.175 194.301 163.506 195.068 163.038 196.014C162.569 196.96 162.335 197.974 162.335 199.057V200.795C162.335 202.278 162.59 203.536 163.102 204.567C163.621 205.589 164.342 206.369 165.262 206.906C166.183 207.435 167.252 207.699 168.471 207.699C169.263 207.699 169.979 207.588 170.619 207.366C171.266 207.136 171.825 206.795 172.293 206.344C172.762 205.884 173.124 205.312 173.38 204.631L176.295 205.449C175.988 206.438 175.472 207.307 174.748 208.057C174.023 208.798 173.129 209.378 172.063 209.795C170.998 210.205 169.8 210.409 168.471 210.409ZM181.191 210V190.364H184.106V193.432H184.362C184.771 192.384 185.431 191.57 186.343 190.99C187.255 190.402 188.35 190.108 189.629 190.108C190.924 190.108 192.002 190.402 192.863 190.99C193.732 191.57 194.41 192.384 194.896 193.432H195.1C195.603 192.418 196.357 191.612 197.363 191.016C198.369 190.411 199.575 190.108 200.981 190.108C202.737 190.108 204.173 190.658 205.289 191.757C206.406 192.848 206.964 194.548 206.964 196.858V210H203.947V196.858C203.947 195.409 203.55 194.374 202.758 193.751C201.965 193.129 201.032 192.818 199.958 192.818C198.577 192.818 197.508 193.236 196.749 194.071C195.991 194.898 195.612 195.946 195.612 197.216V210H192.543V196.551C192.543 195.435 192.181 194.536 191.457 193.854C190.732 193.163 189.799 192.818 188.657 192.818C187.873 192.818 187.14 193.027 186.458 193.445C185.785 193.862 185.239 194.442 184.822 195.183C184.413 195.916 184.208 196.764 184.208 197.727V210H181.191ZM226.389 194.761L223.679 195.528C223.509 195.077 223.257 194.638 222.925 194.212C222.601 193.777 222.158 193.419 221.595 193.138C221.033 192.857 220.312 192.716 219.435 192.716C218.233 192.716 217.232 192.993 216.43 193.547C215.638 194.092 215.241 194.787 215.241 195.631C215.241 196.381 215.514 196.973 216.06 197.408C216.605 197.842 217.457 198.205 218.616 198.494L221.531 199.21C223.287 199.636 224.595 200.288 225.456 201.166C226.317 202.036 226.747 203.156 226.747 204.528C226.747 205.653 226.423 206.659 225.776 207.545C225.136 208.432 224.241 209.131 223.091 209.642C221.94 210.153 220.602 210.409 219.077 210.409C217.074 210.409 215.416 209.974 214.104 209.105C212.791 208.236 211.96 206.966 211.611 205.295L214.474 204.58C214.747 205.636 215.263 206.429 216.021 206.957C216.788 207.486 217.79 207.75 219.026 207.75C220.432 207.75 221.548 207.452 222.375 206.855C223.21 206.25 223.628 205.526 223.628 204.682C223.628 204 223.389 203.429 222.912 202.969C222.435 202.5 221.702 202.151 220.713 201.92L217.44 201.153C215.642 200.727 214.321 200.067 213.477 199.172C212.642 198.268 212.224 197.139 212.224 195.784C212.224 194.676 212.536 193.696 213.158 192.844C213.788 191.991 214.645 191.322 215.727 190.837C216.818 190.351 218.054 190.108 219.435 190.108C221.378 190.108 222.903 190.534 224.011 191.386C225.128 192.239 225.92 193.364 226.389 194.761ZM233.488 210.205C232.857 210.205 232.316 209.979 231.864 209.527C231.412 209.075 231.186 208.534 231.186 207.903C231.186 207.273 231.412 206.732 231.864 206.28C232.316 205.828 232.857 205.602 233.488 205.602C234.118 205.602 234.659 205.828 235.111 206.28C235.563 206.732 235.789 207.273 235.789 207.903C235.789 208.321 235.682 208.705 235.469 209.054C235.265 209.403 234.988 209.685 234.638 209.898C234.297 210.102 233.914 210.205 233.488 210.205ZM233.488 195.631C232.857 195.631 232.316 195.405 231.864 194.953C231.412 194.501 231.186 193.96 231.186 193.33C231.186 192.699 231.412 192.158 231.864 191.706C232.316 191.254 232.857 191.028 233.488 191.028C234.118 191.028 234.659 191.254 235.111 191.706C235.563 192.158 235.789 192.699 235.789 193.33C235.789 193.747 235.682 194.131 235.469 194.48C235.265 194.83 234.988 195.111 234.638 195.324C234.297 195.528 233.914 195.631 233.488 195.631Z" fill="#A6A6A6"/>
<rect x="38" y="23" width="362" height="93" rx="10" fill="#EBEBEB"/>
<path d="M48.3182 57.8409V54.0909H74.5V57.8409H63.5227V89H59.2955V57.8409H48.3182ZM77.7599 89V62.8182H81.6463V66.7727H81.919C82.3963 65.4773 83.2599 64.4261 84.5099 63.6193C85.7599 62.8125 87.169 62.4091 88.7372 62.4091C89.0327 62.4091 89.402 62.4148 89.8452 62.4261C90.2884 62.4375 90.6236 62.4545 90.8509 62.4773V66.5682C90.7145 66.5341 90.402 66.483 89.9134 66.4148C89.4361 66.3352 88.9304 66.2955 88.3963 66.2955C87.1236 66.2955 85.9872 66.5625 84.9872 67.0966C83.9986 67.6193 83.2145 68.3466 82.6349 69.2784C82.0668 70.1989 81.7827 71.25 81.7827 72.4318V89H77.7599ZM103.324 89.6136C101.665 89.6136 100.159 89.3011 98.8068 88.6761C97.4545 88.0398 96.3807 87.125 95.5852 85.9318C94.7898 84.7273 94.392 83.2727 94.392 81.5682C94.392 80.0682 94.6875 78.8523 95.2784 77.9205C95.8693 76.9773 96.6591 76.2386 97.6477 75.7045C98.6364 75.1705 99.7273 74.7727 100.92 74.5114C102.125 74.2386 103.335 74.0227 104.551 73.8636C106.142 73.6591 107.432 73.5057 108.42 73.4034C109.42 73.2898 110.148 73.1023 110.602 72.8409C111.068 72.5795 111.301 72.125 111.301 71.4773V71.3409C111.301 69.6591 110.841 68.3523 109.92 67.4205C109.011 66.4886 107.631 66.0227 105.778 66.0227C103.858 66.0227 102.352 66.4432 101.261 67.2841C100.17 68.125 99.4034 69.0227 98.9602 69.9773L95.142 68.6136C95.8239 67.0227 96.733 65.7841 97.8693 64.8977C99.017 64 100.267 63.375 101.619 63.0227C102.983 62.6591 104.324 62.4773 105.642 62.4773C106.483 62.4773 107.449 62.5795 108.54 62.7841C109.642 62.9773 110.705 63.3807 111.727 63.9943C112.761 64.608 113.619 65.5341 114.301 66.7727C114.983 68.0114 115.324 69.6705 115.324 71.75V89H111.301V85.4545H111.097C110.824 86.0227 110.369 86.6307 109.733 87.2784C109.097 87.9261 108.25 88.4773 107.193 88.9318C106.136 89.3864 104.847 89.6136 103.324 89.6136ZM103.938 86C105.528 86 106.869 85.6875 107.96 85.0625C109.063 84.4375 109.892 83.6307 110.449 82.642C111.017 81.6534 111.301 80.6136 111.301 79.5227V75.8409C111.131 76.0455 110.756 76.233 110.176 76.4034C109.608 76.5625 108.949 76.7045 108.199 76.8295C107.46 76.9432 106.739 77.0455 106.034 77.1364C105.341 77.2159 104.778 77.2841 104.347 77.3409C103.301 77.4773 102.324 77.6989 101.415 78.0057C100.517 78.3011 99.7898 78.75 99.233 79.3523C98.6875 79.9432 98.4148 80.75 98.4148 81.7727C98.4148 83.1705 98.9318 84.2273 99.9659 84.9432C101.011 85.6477 102.335 86 103.938 86ZM132.553 89.5455C130.371 89.5455 128.445 88.9943 126.774 87.892C125.104 86.7784 123.797 85.2102 122.854 83.1875C121.911 81.1534 121.439 78.75 121.439 75.9773C121.439 73.2273 121.911 70.8409 122.854 68.8182C123.797 66.7955 125.109 65.233 126.791 64.1307C128.473 63.0284 130.416 62.4773 132.621 62.4773C134.325 62.4773 135.672 62.7614 136.661 63.3295C137.661 63.8864 138.422 64.5227 138.945 65.2386C139.479 65.9432 139.893 66.5227 140.189 66.9773H140.53V54.0909H144.553V89H140.666V84.9773H140.189C139.893 85.4545 139.473 86.0568 138.928 86.7841C138.382 87.5 137.604 88.142 136.592 88.7102C135.581 89.267 134.234 89.5455 132.553 89.5455ZM133.098 85.9318C134.712 85.9318 136.075 85.5114 137.189 84.6705C138.303 83.8182 139.149 82.642 139.729 81.142C140.308 79.6307 140.598 77.8864 140.598 75.9091C140.598 73.9545 140.314 72.2443 139.746 70.7784C139.178 69.3011 138.337 68.1534 137.223 67.3352C136.109 66.5057 134.734 66.0909 133.098 66.0909C131.393 66.0909 129.973 66.5284 128.837 67.4034C127.712 68.267 126.865 69.4432 126.297 70.9318C125.74 72.4091 125.462 74.0682 125.462 75.9091C125.462 77.7727 125.746 79.4659 126.314 80.9886C126.893 82.5 127.746 83.7045 128.871 84.6023C130.007 85.4886 131.416 85.9318 133.098 85.9318ZM152.479 89V62.8182H156.501V89H152.479ZM154.524 58.4545C153.74 58.4545 153.064 58.1875 152.496 57.6534C151.939 57.1193 151.661 56.4773 151.661 55.7273C151.661 54.9773 151.939 54.3352 152.496 53.8011C153.064 53.267 153.74 53 154.524 53C155.308 53 155.979 53.267 156.536 53.8011C157.104 54.3352 157.388 54.9773 157.388 55.7273C157.388 56.4773 157.104 57.1193 156.536 57.6534C155.979 58.1875 155.308 58.4545 154.524 58.4545ZM167.892 73.25V89H163.869V62.8182H167.756V66.9091H168.097C168.71 65.5795 169.642 64.5114 170.892 63.7045C172.142 62.8864 173.756 62.4773 175.733 62.4773C177.506 62.4773 179.057 62.8409 180.386 63.5682C181.716 64.2841 182.75 65.375 183.489 66.8409C184.227 68.2955 184.597 70.1364 184.597 72.3636V89H180.574V72.6364C180.574 70.5795 180.04 68.9773 178.972 67.8295C177.903 66.6705 176.438 66.0909 174.574 66.0909C173.29 66.0909 172.142 66.3693 171.131 66.9261C170.131 67.483 169.341 68.2955 168.761 69.3636C168.182 70.4318 167.892 71.7273 167.892 73.25ZM202.516 99.3636C200.572 99.3636 198.902 99.1136 197.504 98.6136C196.107 98.125 194.942 97.4773 194.01 96.6705C193.089 95.875 192.357 95.0227 191.811 94.1136L195.016 91.8636C195.379 92.3409 195.839 92.8864 196.396 93.5C196.953 94.125 197.714 94.6648 198.68 95.1193C199.658 95.5852 200.936 95.8182 202.516 95.8182C204.629 95.8182 206.374 95.3068 207.749 94.2841C209.124 93.2614 209.811 91.6591 209.811 89.4773V84.1591H209.47C209.175 84.6364 208.754 85.2273 208.209 85.9318C207.675 86.625 206.902 87.2443 205.891 87.7898C204.891 88.3239 203.538 88.5909 201.834 88.5909C199.72 88.5909 197.822 88.0909 196.141 87.0909C194.47 86.0909 193.146 84.6364 192.169 82.7273C191.203 80.8182 190.72 78.5 190.72 75.7727C190.72 73.0909 191.192 70.7557 192.135 68.767C193.078 66.767 194.391 65.2216 196.072 64.1307C197.754 63.0284 199.697 62.4773 201.902 62.4773C203.607 62.4773 204.959 62.7614 205.959 63.3295C206.97 63.8864 207.743 64.5227 208.277 65.2386C208.822 65.9432 209.243 66.5227 209.538 66.9773H209.947V62.8182H213.834V89.75C213.834 92 213.322 93.8295 212.3 95.2386C211.288 96.6591 209.925 97.6989 208.209 98.358C206.504 99.0284 204.607 99.3636 202.516 99.3636ZM202.379 84.9773C203.993 84.9773 205.357 84.608 206.47 83.8693C207.584 83.1307 208.43 82.0682 209.01 80.6818C209.589 79.2955 209.879 77.6364 209.879 75.7045C209.879 73.8182 209.595 72.1534 209.027 70.7102C208.459 69.267 207.618 68.1364 206.504 67.3182C205.391 66.5 204.016 66.0909 202.379 66.0909C200.675 66.0909 199.254 66.5227 198.118 67.3864C196.993 68.25 196.146 69.4091 195.578 70.8636C195.021 72.3182 194.743 73.9318 194.743 75.7045C194.743 77.5227 195.027 79.1307 195.595 80.5284C196.175 81.9148 197.027 83.0057 198.152 83.8011C199.288 84.5852 200.697 84.9773 202.379 84.9773ZM239.47 54.0909V89H235.243V54.0909H239.47ZM258.787 62.8182V66.2273H245.219V62.8182H258.787ZM249.173 56.5455H253.196V81.5C253.196 82.6364 253.361 83.4886 253.69 84.0568C254.031 84.6136 254.463 84.9886 254.986 85.1818C255.52 85.3636 256.082 85.4545 256.673 85.4545C257.116 85.4545 257.48 85.4318 257.764 85.3864C258.048 85.3295 258.276 85.2841 258.446 85.25L259.264 88.8636C258.991 88.9659 258.611 89.0682 258.122 89.1705C257.634 89.2841 257.014 89.3409 256.264 89.3409C255.128 89.3409 254.014 89.0966 252.923 88.608C251.844 88.1193 250.946 87.375 250.23 86.375C249.526 85.375 249.173 84.1136 249.173 82.5909V56.5455ZM275.534 89.5455C273.011 89.5455 270.835 88.9886 269.006 87.875C267.188 86.75 265.784 85.1818 264.795 83.1705C263.818 81.1477 263.33 78.7955 263.33 76.1136C263.33 73.4318 263.818 71.0682 264.795 69.0227C265.784 66.9659 267.159 65.3636 268.92 64.2159C270.693 63.0568 272.761 62.4773 275.125 62.4773C276.489 62.4773 277.835 62.7045 279.165 63.1591C280.494 63.6136 281.705 64.3523 282.795 65.375C283.886 66.3864 284.756 67.7273 285.403 69.3977C286.051 71.0682 286.375 73.125 286.375 75.5682V77.2727H266.193V73.7955H282.284C282.284 72.3182 281.989 71 281.398 69.8409C280.818 68.6818 279.989 67.767 278.909 67.0966C277.841 66.4261 276.58 66.0909 275.125 66.0909C273.523 66.0909 272.136 66.4886 270.966 67.2841C269.807 68.0682 268.915 69.0909 268.29 70.3523C267.665 71.6136 267.352 72.9659 267.352 74.4091V76.7273C267.352 78.7045 267.693 80.3807 268.375 81.7557C269.068 83.1193 270.028 84.1591 271.256 84.875C272.483 85.5795 273.909 85.9318 275.534 85.9318C276.591 85.9318 277.545 85.7841 278.398 85.4886C279.261 85.1818 280.006 84.7273 280.631 84.125C281.256 83.5114 281.739 82.75 282.08 81.8409L285.966 82.9318C285.557 84.25 284.869 85.4091 283.903 86.4091C282.938 87.3977 281.744 88.1705 280.324 88.7273C278.903 89.2727 277.307 89.5455 275.534 89.5455ZM292.494 89V62.8182H296.381V66.9091H296.722C297.267 65.5114 298.148 64.4261 299.364 63.6534C300.58 62.8693 302.04 62.4773 303.744 62.4773C305.472 62.4773 306.909 62.8693 308.057 63.6534C309.216 64.4261 310.119 65.5114 310.767 66.9091H311.04C311.71 65.5568 312.716 64.483 314.057 63.6875C315.398 62.8807 317.006 62.4773 318.881 62.4773C321.222 62.4773 323.136 63.2102 324.625 64.6761C326.114 66.1307 326.858 68.3977 326.858 71.4773V89H322.835V71.4773C322.835 69.5455 322.307 68.1648 321.25 67.3352C320.193 66.5057 318.949 66.0909 317.517 66.0909C315.676 66.0909 314.25 66.6477 313.239 67.7614C312.227 68.8636 311.722 70.2614 311.722 71.9545V89H307.631V71.0682C307.631 69.5795 307.148 68.3807 306.182 67.4716C305.216 66.5511 303.972 66.0909 302.449 66.0909C301.403 66.0909 300.426 66.3693 299.517 66.9261C298.619 67.483 297.892 68.2557 297.335 69.2443C296.79 70.2216 296.517 71.3523 296.517 72.6364V89H292.494ZM352.759 68.6818L349.145 69.7045C348.918 69.1023 348.582 68.517 348.139 67.9489C347.707 67.3693 347.116 66.892 346.366 66.517C345.616 66.142 344.656 65.9545 343.486 65.9545C341.884 65.9545 340.548 66.3239 339.48 67.0625C338.423 67.7898 337.895 68.7159 337.895 69.8409C337.895 70.8409 338.259 71.6307 338.986 72.2102C339.713 72.7898 340.849 73.2727 342.395 73.6591L346.281 74.6136C348.622 75.1818 350.366 76.0511 351.514 77.2216C352.662 78.3807 353.236 79.875 353.236 81.7045C353.236 83.2045 352.804 84.5455 351.94 85.7273C351.088 86.9091 349.895 87.8409 348.361 88.5227C346.827 89.2045 345.043 89.5455 343.009 89.5455C340.338 89.5455 338.128 88.9659 336.378 87.8068C334.628 86.6477 333.52 84.9545 333.054 82.7273L336.872 81.7727C337.236 83.1818 337.923 84.2386 338.935 84.9432C339.957 85.6477 341.293 86 342.94 86C344.815 86 346.304 85.6023 347.406 84.8068C348.52 84 349.077 83.0341 349.077 81.9091C349.077 81 348.759 80.2386 348.122 79.625C347.486 79 346.509 78.5341 345.19 78.2273L340.827 77.2045C338.429 76.6364 336.668 75.7557 335.543 74.5625C334.429 73.358 333.872 71.8523 333.872 70.0455C333.872 68.5682 334.287 67.2614 335.116 66.125C335.957 64.9886 337.099 64.0966 338.543 63.4489C339.997 62.8011 341.645 62.4773 343.486 62.4773C346.077 62.4773 348.111 63.0455 349.588 64.1818C351.077 65.3182 352.134 66.8182 352.759 68.6818Z" fill="#A6A6A6"/>
<rect x="753" y="137" width="247" height="61" rx="10" fill="#EBEBEB"/>
<path d="M768.17 180V153.818H777.017C779.071 153.818 780.75 154.189 782.054 154.93C783.366 155.663 784.338 156.656 784.969 157.909C785.599 159.162 785.915 160.56 785.915 162.102C785.915 163.645 785.599 165.047 784.969 166.308C784.347 167.57 783.384 168.575 782.08 169.325C780.776 170.067 779.105 170.438 777.068 170.438H770.727V167.625H776.966C778.372 167.625 779.501 167.382 780.354 166.896C781.206 166.411 781.824 165.754 782.207 164.928C782.599 164.092 782.795 163.151 782.795 162.102C782.795 161.054 782.599 160.116 782.207 159.29C781.824 158.463 781.202 157.815 780.341 157.347C779.48 156.869 778.338 156.631 776.915 156.631H771.341V180H768.17ZM793.63 153.818V180H790.613V153.818H793.63ZM804.934 180.46C803.69 180.46 802.561 180.226 801.547 179.757C800.532 179.28 799.727 178.594 799.13 177.699C798.534 176.795 798.235 175.705 798.235 174.426C798.235 173.301 798.457 172.389 798.9 171.69C799.343 170.983 799.936 170.429 800.677 170.028C801.419 169.628 802.237 169.33 803.132 169.134C804.035 168.929 804.943 168.767 805.855 168.648C807.048 168.494 808.015 168.379 808.757 168.303C809.507 168.217 810.052 168.077 810.393 167.881C810.743 167.685 810.917 167.344 810.917 166.858V166.756C810.917 165.494 810.572 164.514 809.882 163.815C809.2 163.116 808.164 162.767 806.775 162.767C805.335 162.767 804.206 163.082 803.387 163.713C802.569 164.344 801.994 165.017 801.662 165.733L798.798 164.71C799.309 163.517 799.991 162.588 800.843 161.923C801.704 161.25 802.642 160.781 803.656 160.517C804.679 160.244 805.684 160.108 806.673 160.108C807.304 160.108 808.028 160.185 808.846 160.338C809.673 160.483 810.47 160.786 811.237 161.246C812.012 161.706 812.656 162.401 813.167 163.33C813.679 164.259 813.934 165.503 813.934 167.062V180H810.917V177.341H810.764C810.559 177.767 810.218 178.223 809.741 178.709C809.264 179.195 808.629 179.608 807.836 179.949C807.044 180.29 806.076 180.46 804.934 180.46ZM805.395 177.75C806.588 177.75 807.593 177.516 808.412 177.047C809.238 176.578 809.86 175.973 810.278 175.232C810.704 174.49 810.917 173.71 810.917 172.892V170.131C810.789 170.284 810.508 170.425 810.074 170.553C809.647 170.672 809.153 170.778 808.591 170.872C808.037 170.957 807.495 171.034 806.967 171.102C806.447 171.162 806.025 171.213 805.701 171.256C804.917 171.358 804.184 171.524 803.502 171.754C802.829 171.976 802.284 172.312 801.866 172.764C801.457 173.207 801.252 173.812 801.252 174.58C801.252 175.628 801.64 176.42 802.416 176.957C803.2 177.486 804.193 177.75 805.395 177.75ZM820.681 187.364C820.17 187.364 819.714 187.321 819.313 187.236C818.913 187.159 818.636 187.082 818.482 187.006L819.249 184.347C819.982 184.534 820.63 184.602 821.192 184.551C821.755 184.5 822.254 184.249 822.688 183.797C823.131 183.354 823.536 182.634 823.903 181.636L824.465 180.102L817.204 160.364H820.477L825.897 176.011H826.102L831.522 160.364H834.795L826.46 182.864C826.085 183.878 825.62 184.717 825.066 185.382C824.512 186.055 823.869 186.554 823.136 186.878C822.411 187.202 821.593 187.364 820.681 187.364ZM846.307 180.409C844.415 180.409 842.783 179.991 841.411 179.156C840.047 178.312 838.994 177.136 838.253 175.628C837.52 174.111 837.153 172.347 837.153 170.335C837.153 168.324 837.52 166.551 838.253 165.017C838.994 163.474 840.026 162.273 841.347 161.412C842.676 160.543 844.227 160.108 846 160.108C847.023 160.108 848.033 160.278 849.03 160.619C850.027 160.96 850.935 161.514 851.753 162.281C852.571 163.04 853.223 164.045 853.709 165.298C854.195 166.551 854.438 168.094 854.438 169.926V171.205H839.301V168.597H851.369C851.369 167.489 851.148 166.5 850.705 165.631C850.27 164.761 849.648 164.075 848.838 163.572C848.037 163.07 847.091 162.818 846 162.818C844.798 162.818 843.759 163.116 842.881 163.713C842.011 164.301 841.342 165.068 840.874 166.014C840.405 166.96 840.17 167.974 840.17 169.057V170.795C840.17 172.278 840.426 173.536 840.938 174.567C841.457 175.589 842.178 176.369 843.098 176.906C844.018 177.435 845.088 177.699 846.307 177.699C847.099 177.699 847.815 177.588 848.455 177.366C849.102 177.136 849.661 176.795 850.129 176.344C850.598 175.884 850.96 175.312 851.216 174.631L854.131 175.449C853.824 176.438 853.308 177.307 852.584 178.057C851.859 178.798 850.964 179.378 849.899 179.795C848.834 180.205 847.636 180.409 846.307 180.409ZM859.027 180V160.364H861.942V163.33H862.146C862.504 162.358 863.152 161.57 864.089 160.964C865.027 160.359 866.084 160.057 867.26 160.057C867.482 160.057 867.759 160.061 868.091 160.07C868.423 160.078 868.675 160.091 868.845 160.108V163.176C868.743 163.151 868.509 163.112 868.142 163.061C867.784 163.001 867.405 162.972 867.004 162.972C866.05 162.972 865.197 163.172 864.447 163.572C863.706 163.964 863.118 164.51 862.683 165.209C862.257 165.899 862.044 166.687 862.044 167.574V180H859.027ZM885.973 180V182.812H869.609V180H885.973ZM909.869 153.818V180H906.801L892.534 159.443H892.278V180H889.108V153.818H892.176L906.494 174.426H906.75V153.818H909.869ZM921.583 180.46C920.338 180.46 919.209 180.226 918.195 179.757C917.181 179.28 916.375 178.594 915.779 177.699C915.182 176.795 914.884 175.705 914.884 174.426C914.884 173.301 915.105 172.389 915.549 171.69C915.992 170.983 916.584 170.429 917.326 170.028C918.067 169.628 918.885 169.33 919.78 169.134C920.684 168.929 921.591 168.767 922.503 168.648C923.696 168.494 924.664 168.379 925.405 168.303C926.155 168.217 926.701 168.077 927.042 167.881C927.391 167.685 927.566 167.344 927.566 166.858V166.756C927.566 165.494 927.221 164.514 926.53 163.815C925.848 163.116 924.813 162.767 923.424 162.767C921.983 162.767 920.854 163.082 920.036 163.713C919.218 164.344 918.642 165.017 918.31 165.733L915.446 164.71C915.958 163.517 916.64 162.588 917.492 161.923C918.353 161.25 919.29 160.781 920.304 160.517C921.327 160.244 922.333 160.108 923.321 160.108C923.952 160.108 924.676 160.185 925.495 160.338C926.321 160.483 927.118 160.786 927.885 161.246C928.661 161.706 929.304 162.401 929.816 163.33C930.327 164.259 930.583 165.503 930.583 167.062V180H927.566V177.341H927.412C927.208 177.767 926.867 178.223 926.39 178.709C925.912 179.195 925.277 179.608 924.485 179.949C923.692 180.29 922.725 180.46 921.583 180.46ZM922.043 177.75C923.236 177.75 924.242 177.516 925.06 177.047C925.887 176.578 926.509 175.973 926.926 175.232C927.353 174.49 927.566 173.71 927.566 172.892V170.131C927.438 170.284 927.157 170.425 926.722 170.553C926.296 170.672 925.801 170.778 925.239 170.872C924.685 170.957 924.144 171.034 923.615 171.102C923.096 171.162 922.674 171.213 922.35 171.256C921.566 171.358 920.833 171.524 920.151 171.754C919.478 171.976 918.932 172.312 918.515 172.764C918.105 173.207 917.901 173.812 917.901 174.58C917.901 175.628 918.289 176.42 919.064 176.957C919.848 177.486 920.841 177.75 922.043 177.75ZM936.089 180V160.364H939.004V163.432H939.26C939.669 162.384 940.33 161.57 941.241 160.99C942.153 160.402 943.249 160.108 944.527 160.108C945.822 160.108 946.901 160.402 947.761 160.99C948.631 161.57 949.308 162.384 949.794 163.432H949.999C950.501 162.418 951.256 161.612 952.261 161.016C953.267 160.411 954.473 160.108 955.879 160.108C957.635 160.108 959.071 160.658 960.188 161.757C961.304 162.848 961.862 164.548 961.862 166.858V180H958.845V166.858C958.845 165.409 958.449 164.374 957.656 163.751C956.864 163.129 955.93 162.818 954.857 162.818C953.476 162.818 952.406 163.236 951.648 164.071C950.889 164.898 950.51 165.946 950.51 167.216V180H947.442V166.551C947.442 165.435 947.08 164.536 946.355 163.854C945.631 163.163 944.697 162.818 943.555 162.818C942.771 162.818 942.038 163.027 941.357 163.445C940.683 163.862 940.138 164.442 939.72 165.183C939.311 165.916 939.107 166.764 939.107 167.727V180H936.089ZM975.612 180.409C973.719 180.409 972.087 179.991 970.715 179.156C969.352 178.312 968.299 177.136 967.558 175.628C966.825 174.111 966.458 172.347 966.458 170.335C966.458 168.324 966.825 166.551 967.558 165.017C968.299 163.474 969.33 162.273 970.651 161.412C971.981 160.543 973.532 160.108 975.305 160.108C976.327 160.108 977.337 160.278 978.335 160.619C979.332 160.96 980.239 161.514 981.058 162.281C981.876 163.04 982.528 164.045 983.013 165.298C983.499 166.551 983.742 168.094 983.742 169.926V171.205H968.606V168.597H980.674C980.674 167.489 980.452 166.5 980.009 165.631C979.575 164.761 978.952 164.075 978.143 163.572C977.342 163.07 976.396 162.818 975.305 162.818C974.103 162.818 973.063 163.116 972.185 163.713C971.316 164.301 970.647 165.068 970.178 166.014C969.71 166.96 969.475 167.974 969.475 169.057V170.795C969.475 172.278 969.731 173.536 970.242 174.567C970.762 175.589 971.482 176.369 972.403 176.906C973.323 177.435 974.393 177.699 975.612 177.699C976.404 177.699 977.12 177.588 977.759 177.366C978.407 177.136 978.965 176.795 979.434 176.344C979.903 175.884 980.265 175.312 980.521 174.631L983.435 175.449C983.129 176.438 982.613 177.307 981.888 178.057C981.164 178.798 980.269 179.378 979.204 179.795C978.138 180.205 976.941 180.409 975.612 180.409Z" fill="#A6A6A6"/>
<path d="M730 147.5C730 176.495 706.495 200 677.5 200C648.505 200 625 176.495 625 147.5C625 118.505 648.505 95 677.5 95C706.495 95 730 118.505 730 147.5Z" fill="#A6A6A6"/>
<rect x="48" y="219" width="527" height="598" fill="#EBEBEB"/>
<rect x="629" y="219" width="514" height="604" fill="#EBEBEB"/>
<rect x="97" y="271" width="145" height="152" fill="#D9D9D9"/>
<rect x="126" y="294" width="83" height="72" fill="#A6A6A6"/>
<rect x="126" y="379" width="83" height="27" fill="#A6A6A6"/>
<rect x="281" y="271" width="145" height="152" fill="#D9D9D9"/>
<rect x="310" y="294" width="83" height="72" fill="#A6A6A6"/>
<rect x="310" y="379" width="83" height="27" fill="#A6A6A6"/>
<rect x="95" y="445" width="145" height="152" fill="#D9D9D9"/>
<rect x="124" y="468" width="83" height="72" fill="#A6A6A6"/>
<rect x="124" y="553" width="83" height="27" fill="#A6A6A6"/>
<rect x="281" y="445" width="145" height="152" fill="#D9D9D9"/>
<rect x="310" y="468" width="83" height="72" fill="#A6A6A6"/>
<rect x="310" y="553" width="83" height="27" fill="#A6A6A6"/>
<rect x="95" y="625" width="145" height="152" fill="#D9D9D9"/>
<rect x="124" y="648" width="83" height="72" fill="#A6A6A6"/>
<rect x="124" y="733" width="83" height="27" fill="#A6A6A6"/>
<rect x="281" y="625" width="145" height="152" fill="#D9D9D9"/>
<rect x="310" y="648" width="83" height="72" fill="#A6A6A6"/>
<rect x="310" y="733" width="83" height="27" fill="#A6A6A6"/>
<rect x="677" y="271" width="145" height="152" fill="#D9D9D9"/>
<rect x="706" y="294" width="83" height="72" fill="#A6A6A6"/>
<rect x="706" y="379" width="83" height="27" fill="#A6A6A6"/>
<rect x="871" y="271" width="145" height="152" fill="#D9D9D9"/>
<rect x="900" y="294" width="83" height="72" fill="#A6A6A6"/>
<rect x="900" y="379" width="83" height="27" fill="#A6A6A6"/>
<rect x="677" y="445" width="145" height="152" fill="#D9D9D9"/>
<rect x="706" y="468" width="83" height="72" fill="#A6A6A6"/>
<rect x="706" y="553" width="83" height="27" fill="#A6A6A6"/>
<rect x="487" y="261" width="51" height="527" fill="#D9D9D9"/>
<rect x="1063" y="261" width="51" height="527" fill="#D9D9D9"/>
<circle cx="240" cy="271" r="26" fill="#66BB6A"/>
<circle cx="426" cy="271" r="26" fill="#66BB6A"/>
<circle cx="242" cy="449" r="26" fill="#66BB6A"/>
<circle cx="426" cy="449" r="26" fill="#A6A6A6"/>
<circle cx="242" cy="623" r="26" fill="#A6A6A6"/>
<circle cx="426" cy="627" r="26" fill="#A6A6A6"/>
<path d="M512.5 261L534.584 299.25H490.416L512.5 261Z" fill="#A6A6A6"/>
<path d="M1088.5 266L1110.58 304.25H1066.42L1088.5 266Z" fill="#A6A6A6"/>
<path d="M512.5 784L490.416 745.75L534.584 745.75L512.5 784Z" fill="#A6A6A6"/>
<path d="M1088.5 777L1066.42 738.75L1110.58 738.75L1088.5 777Z" fill="#A6A6A6"/>
<rect x="495" y="317" width="34" height="89" fill="#A6A6A6"/>
</svg>
