<svg width="380" height="795" viewBox="0 0 380 795" fill="none" xmlns="http://www.w3.org/2000/svg">
<rect width="380" height="795" rx="16" fill="#D9D9D9"/>
<rect y="94" width="380" height="577" fill="#EBEBEB"/>
<circle cx="324.5" cy="45.5" r="30.5" fill="#66BB6A"/>
<path d="M339.609 58.7669L330.715 49.8662C332.468 47.7633 333.523 45.0759 333.523 42.1408C333.523 35.4446 328.028 30 321.268 30C314.508 30 309 35.451 309 42.1471C309 48.8433 314.495 54.2879 321.255 54.2879C324.127 54.2879 326.77 53.3032 328.866 51.6578L337.792 60.5839C338.313 61.1048 339.088 61.1048 339.609 60.5839C340.13 60.0629 340.13 59.2878 339.609 58.7669ZM311.605 42.1471C311.605 36.8868 315.938 32.6111 321.255 32.6111C326.573 32.6111 330.906 36.8868 330.906 42.1471C330.906 47.4075 326.573 51.6832 321.255 51.6832C315.938 51.6832 311.605 47.4012 311.605 42.1471Z" fill="white"/>
<path d="M370 111H340V642.77H370V111Z" fill="#D9D9D9"/>
<path d="M353.816 111L365.78 135.192H341.851L353.816 111Z" fill="#A6A6A6"/>
<path d="M355.122 643L343.158 618.808H367.087L355.122 643Z" fill="#A6A6A6"/>
<path d="M366.842 144.178H343.158V200.396H366.842V144.178Z" fill="#A6A6A6"/>
<path d="M329 123H14V233H329V123Z" fill="#D9D9D9"/>
<path d="M310 139.5H130V185.857H310V139.5Z" fill="#A6A6A6"/>
<path d="M310 199.214H130V220.429H310V199.214Z" fill="#A6A6A6"/>
<rect x="27" y="139" width="78" height="78" rx="39" fill="#A6A6A6"/>
<path d="M329 262H14V372H329V262Z" fill="#D9D9D9"/>
<path d="M310 278.5H130V324.857H310V278.5Z" fill="#A6A6A6"/>
<path d="M310 338.214H130V359.429H310V338.214Z" fill="#A6A6A6"/>
<rect x="27" y="278" width="78" height="78" rx="39" fill="#A6A6A6"/>
<path d="M329 402H14V512H329V402Z" fill="#D9D9D9"/>
<path d="M310 418.5H130V464.857H310V418.5Z" fill="#A6A6A6"/>
<path d="M310 478.214H130V499.429H310V478.214Z" fill="#A6A6A6"/>
<rect x="27" y="418" width="78" height="78" rx="39" fill="#A6A6A6"/>
<path d="M329 548H14V658H329V548Z" fill="#D9D9D9"/>
<path d="M310 564.5H130V610.857H310V564.5Z" fill="#A6A6A6"/>
<path d="M310 624.214H130V645.429H310V624.214Z" fill="#A6A6A6"/>
<rect x="27" y="564" width="78" height="78" rx="39" fill="#A6A6A6"/>
<rect x="22" y="15" width="152" height="59" rx="6" fill="#EBEBEB"/>
<path d="M30.5227 60V30.9091H47.9659V34.0341H34.0455V43.8636H46.6591V46.9886H34.0455V60H30.5227ZM53.3104 60V38.1818H56.549V41.4773H56.7763C57.174 40.3977 57.8937 39.5218 58.9354 38.8494C59.977 38.1771 61.1513 37.8409 62.4581 37.8409C62.7043 37.8409 63.0121 37.8456 63.3814 37.8551C63.7507 37.8646 64.0301 37.8788 64.2195 37.8977V41.3068C64.1058 41.2784 63.8454 41.2358 63.4382 41.179C63.0405 41.1127 62.6191 41.0795 62.174 41.0795C61.1134 41.0795 60.1664 41.3021 59.3331 41.7472C58.5092 42.1828 57.8558 42.7888 57.3729 43.5653C56.8994 44.3324 56.6626 45.2083 56.6626 46.1932V60H53.3104ZM68.1932 60V38.1818H71.5455V60H68.1932ZM69.8977 34.5455C69.2443 34.5455 68.6809 34.3229 68.2074 33.8778C67.7434 33.4328 67.5114 32.8977 67.5114 32.2727C67.5114 31.6477 67.7434 31.1127 68.2074 30.6676C68.6809 30.2225 69.2443 30 69.8977 30C70.5511 30 71.1098 30.2225 71.5739 30.6676C72.0473 31.1127 72.2841 31.6477 72.2841 32.2727C72.2841 32.8977 72.0473 33.4328 71.5739 33.8778C71.1098 34.3229 70.5511 34.5455 69.8977 34.5455ZM86.8331 60.4545C84.7308 60.4545 82.9174 59.9905 81.3928 59.0625C79.8776 58.125 78.7081 56.8182 77.8842 55.142C77.0698 53.4564 76.6626 51.4962 76.6626 49.2614C76.6626 47.0265 77.0698 45.0568 77.8842 43.3523C78.7081 41.6383 79.8539 40.303 81.3217 39.3466C82.799 38.3807 84.5225 37.8977 86.4922 37.8977C87.6286 37.8977 88.7507 38.0871 89.8587 38.4659C90.9666 38.8447 91.9751 39.4602 92.8842 40.3125C93.7933 41.1553 94.5178 42.2727 95.0575 43.6648C95.5973 45.0568 95.8672 46.7708 95.8672 48.8068V50.2273H79.049V47.3295H92.4581C92.4581 46.0985 92.2119 45 91.7195 44.0341C91.2365 43.0682 90.5452 42.3059 89.6456 41.7472C88.7554 41.1884 87.7043 40.9091 86.4922 40.9091C85.157 40.9091 84.0017 41.2405 83.0263 41.9034C82.0604 42.5568 81.317 43.4091 80.7962 44.4602C80.2753 45.5114 80.0149 46.6383 80.0149 47.8409V49.7727C80.0149 51.4205 80.299 52.8172 80.8672 53.9631C81.4448 55.0994 82.245 55.9659 83.2678 56.5625C84.2905 57.1496 85.4789 57.4432 86.8331 57.4432C87.7138 57.4432 88.5092 57.3201 89.2195 57.0739C89.9392 56.8182 90.5594 56.4394 91.0803 55.9375C91.6011 55.4261 92.0036 54.7917 92.2876 54.0341L95.5263 54.9432C95.1854 56.0417 94.6125 57.0076 93.8075 57.8409C93.0026 58.6648 92.0083 59.3087 90.8246 59.7727C89.6409 60.2273 88.3104 60.4545 86.8331 60.4545ZM104.319 46.875V60H100.967V38.1818H104.205V41.5909H104.489C105.001 40.483 105.777 39.5928 106.819 38.9205C107.861 38.2386 109.205 37.8977 110.853 37.8977C112.33 37.8977 113.623 38.2008 114.731 38.8068C115.839 39.4034 116.701 40.3125 117.316 41.5341C117.932 42.7462 118.239 44.2803 118.239 46.1364V60H114.887V46.3636C114.887 44.6496 114.442 43.3144 113.552 42.358C112.662 41.392 111.44 40.9091 109.887 40.9091C108.817 40.9091 107.861 41.1411 107.018 41.6051C106.184 42.0691 105.526 42.7462 105.043 43.6364C104.56 44.5265 104.319 45.6061 104.319 46.875ZM132.604 60.4545C130.786 60.4545 129.18 59.9953 127.788 59.0767C126.396 58.1487 125.307 56.8419 124.521 55.1562C123.735 53.4612 123.342 51.4583 123.342 49.1477C123.342 46.8561 123.735 44.8674 124.521 43.1818C125.307 41.4962 126.401 40.1941 127.803 39.2756C129.204 38.357 130.823 37.8977 132.661 37.8977C134.081 37.8977 135.203 38.1345 136.027 38.608C136.86 39.072 137.495 39.6023 137.93 40.1989C138.375 40.786 138.721 41.2689 138.967 41.6477H139.251V30.9091H142.604V60H139.365V56.6477H138.967C138.721 57.0455 138.371 57.5473 137.916 58.1534C137.462 58.75 136.813 59.285 135.97 59.7585C135.127 60.2225 134.005 60.4545 132.604 60.4545ZM133.058 57.4432C134.403 57.4432 135.539 57.0928 136.467 56.392C137.395 55.6818 138.101 54.7017 138.584 53.4517C139.067 52.1922 139.308 50.7386 139.308 49.0909C139.308 47.4621 139.071 46.0369 138.598 44.8153C138.125 43.5843 137.424 42.6278 136.496 41.946C135.568 41.2547 134.422 40.9091 133.058 40.9091C131.638 40.9091 130.454 41.2737 129.507 42.0028C128.57 42.7225 127.864 43.7027 127.391 44.9432C126.927 46.1742 126.695 47.5568 126.695 49.0909C126.695 50.6439 126.931 52.0549 127.405 53.3239C127.888 54.5833 128.598 55.5871 129.536 56.3352C130.482 57.0739 131.657 57.4432 133.058 57.4432ZM164.663 43.0682L161.652 43.9205C161.463 43.4186 161.183 42.9309 160.814 42.4574C160.454 41.9744 159.962 41.5767 159.337 41.2642C158.712 40.9517 157.911 40.7955 156.936 40.7955C155.601 40.7955 154.488 41.1032 153.598 41.7188C152.717 42.3248 152.277 43.0966 152.277 44.0341C152.277 44.8674 152.58 45.5256 153.186 46.0085C153.792 46.4915 154.739 46.8939 156.027 47.2159L159.266 48.0114C161.216 48.4848 162.67 49.2093 163.626 50.1847C164.583 51.1506 165.061 52.3958 165.061 53.9205C165.061 55.1705 164.701 56.2879 163.982 57.2727C163.271 58.2576 162.277 59.0341 160.999 59.6023C159.72 60.1705 158.233 60.4545 156.538 60.4545C154.313 60.4545 152.471 59.9716 151.013 59.0057C149.554 58.0398 148.631 56.6288 148.243 54.7727L151.425 53.9773C151.728 55.1515 152.301 56.0322 153.143 56.6193C153.996 57.2064 155.108 57.5 156.482 57.5C158.044 57.5 159.285 57.1686 160.203 56.5057C161.131 55.8333 161.595 55.0284 161.595 54.0909C161.595 53.3333 161.33 52.6989 160.8 52.1875C160.269 51.6667 159.455 51.2784 158.357 51.0227L154.72 50.1705C152.722 49.697 151.254 48.9631 150.317 47.9688C149.389 46.965 148.925 45.7102 148.925 44.2045C148.925 42.9735 149.27 41.8845 149.962 40.9375C150.662 39.9905 151.614 39.2472 152.817 38.7074C154.029 38.1676 155.402 37.8977 156.936 37.8977C159.095 37.8977 160.79 38.3712 162.021 39.3182C163.262 40.2652 164.143 41.5152 164.663 43.0682Z" fill="#A6A6A6"/>
</svg>
