<svg width="698" height="799" viewBox="0 0 698 799" fill="none" xmlns="http://www.w3.org/2000/svg">
<rect width="698" height="799" rx="10" fill="#D9D9D9"/>
<rect x="36" y="20" width="456" height="100" rx="10" fill="#EBEBEB"/>
<path d="M78.3182 63H74.0909C73.8409 61.7841 73.4034 60.7159 72.7784 59.7955C72.1648 58.875 71.4148 58.1023 70.5284 57.4773C69.6534 56.8409 68.6818 56.3636 67.6136 56.0455C66.5455 55.7273 65.4318 55.5682 64.2727 55.5682C62.1591 55.5682 60.2443 56.1023 58.5284 57.1705C56.8239 58.2386 55.4659 59.8125 54.4545 61.892C53.4545 63.9716 52.9545 66.5227 52.9545 69.5455C52.9545 72.5682 53.4545 75.1193 54.4545 77.1989C55.4659 79.2784 56.8239 80.8523 58.5284 81.9205C60.2443 82.9886 62.1591 83.5227 64.2727 83.5227C65.4318 83.5227 66.5455 83.3636 67.6136 83.0455C68.6818 82.7273 69.6534 82.2557 70.5284 81.6307C71.4148 80.9943 72.1648 80.2159 72.7784 79.2955C73.4034 78.3636 73.8409 77.2955 74.0909 76.0909H78.3182C78 77.875 77.4205 79.4716 76.5795 80.8807C75.7386 82.2898 74.6932 83.4886 73.4432 84.4773C72.1932 85.4545 70.7898 86.1989 69.233 86.7102C67.6875 87.2216 66.0341 87.4773 64.2727 87.4773C61.2955 87.4773 58.6477 86.75 56.3295 85.2955C54.0114 83.8409 52.1875 81.7727 50.858 79.0909C49.5284 76.4091 48.8636 73.2273 48.8636 69.5455C48.8636 65.8636 49.5284 62.6818 50.858 60C52.1875 57.3182 54.0114 55.25 56.3295 53.7955C58.6477 52.3409 61.2955 51.6136 64.2727 51.6136C66.0341 51.6136 67.6875 51.8693 69.233 52.3807C70.7898 52.892 72.1932 53.642 73.4432 54.6307C74.6932 55.608 75.7386 56.8011 76.5795 58.2102C77.4205 59.608 78 61.2045 78.3182 63ZM84.6037 87V60.8182H88.4901V64.7727H88.7628C89.2401 63.4773 90.1037 62.4261 91.3537 61.6193C92.6037 60.8125 94.0128 60.4091 95.581 60.4091C95.8764 60.4091 96.2457 60.4148 96.6889 60.4261C97.1321 60.4375 97.4673 60.4545 97.6946 60.4773V64.5682C97.5582 64.5341 97.2457 64.483 96.7571 64.4148C96.2798 64.3352 95.7741 64.2955 95.2401 64.2955C93.9673 64.2955 92.831 64.5625 91.831 65.0966C90.8423 65.6193 90.0582 66.3466 89.4787 67.2784C88.9105 68.1989 88.6264 69.25 88.6264 70.4318V87H84.6037ZM112.643 87.5455C110.121 87.5455 107.945 86.9886 106.115 85.875C104.297 84.75 102.893 83.1818 101.905 81.1705C100.928 79.1477 100.439 76.7955 100.439 74.1136C100.439 71.4318 100.928 69.0682 101.905 67.0227C102.893 64.9659 104.268 63.3636 106.03 62.2159C107.803 61.0568 109.871 60.4773 112.234 60.4773C113.598 60.4773 114.945 60.7045 116.274 61.1591C117.604 61.6136 118.814 62.3523 119.905 63.375C120.996 64.3864 121.865 65.7273 122.513 67.3977C123.161 69.0682 123.484 71.125 123.484 73.5682V75.2727H103.303V71.7955H119.393C119.393 70.3182 119.098 69 118.507 67.8409C117.928 66.6818 117.098 65.767 116.018 65.0966C114.95 64.4261 113.689 64.0909 112.234 64.0909C110.632 64.0909 109.246 64.4886 108.075 65.2841C106.916 66.0682 106.024 67.0909 105.399 68.3523C104.774 69.6136 104.462 70.9659 104.462 72.4091V74.7273C104.462 76.7045 104.803 78.3807 105.484 79.7557C106.178 81.1193 107.138 82.1591 108.365 82.875C109.592 83.5795 111.018 83.9318 112.643 83.9318C113.7 83.9318 114.655 83.7841 115.507 83.4886C116.371 83.1818 117.115 82.7273 117.74 82.125C118.365 81.5114 118.848 80.75 119.189 79.8409L123.075 80.9318C122.666 82.25 121.979 83.4091 121.013 84.4091C120.047 85.3977 118.854 86.1705 117.433 86.7273C116.013 87.2727 114.416 87.5455 112.643 87.5455ZM137.308 87.6136C135.649 87.6136 134.143 87.3011 132.791 86.6761C131.439 86.0398 130.365 85.125 129.57 83.9318C128.774 82.7273 128.376 81.2727 128.376 79.5682C128.376 78.0682 128.672 76.8523 129.263 75.9205C129.854 74.9773 130.643 74.2386 131.632 73.7045C132.621 73.1705 133.712 72.7727 134.905 72.5114C136.109 72.2386 137.32 72.0227 138.536 71.8636C140.126 71.6591 141.416 71.5057 142.405 71.4034C143.405 71.2898 144.132 71.1023 144.587 70.8409C145.053 70.5795 145.286 70.125 145.286 69.4773V69.3409C145.286 67.6591 144.825 66.3523 143.905 65.4205C142.996 64.4886 141.615 64.0227 139.763 64.0227C137.842 64.0227 136.337 64.4432 135.246 65.2841C134.155 66.125 133.388 67.0227 132.945 67.9773L129.126 66.6136C129.808 65.0227 130.717 63.7841 131.854 62.8977C133.001 62 134.251 61.375 135.604 61.0227C136.967 60.6591 138.308 60.4773 139.626 60.4773C140.467 60.4773 141.433 60.5795 142.524 60.7841C143.626 60.9773 144.689 61.3807 145.712 61.9943C146.746 62.608 147.604 63.5341 148.286 64.7727C148.967 66.0114 149.308 67.6705 149.308 69.75V87H145.286V83.4545H145.081C144.808 84.0227 144.354 84.6307 143.717 85.2784C143.081 85.9261 142.234 86.4773 141.178 86.9318C140.121 87.3864 138.831 87.6136 137.308 87.6136ZM137.922 84C139.513 84 140.854 83.6875 141.945 83.0625C143.047 82.4375 143.876 81.6307 144.433 80.642C145.001 79.6534 145.286 78.6136 145.286 77.5227V73.8409C145.115 74.0455 144.74 74.233 144.161 74.4034C143.592 74.5625 142.933 74.7045 142.183 74.8295C141.445 74.9432 140.723 75.0455 140.018 75.1364C139.325 75.2159 138.763 75.2841 138.331 75.3409C137.286 75.4773 136.308 75.6989 135.399 76.0057C134.501 76.3011 133.774 76.75 133.217 77.3523C132.672 77.9432 132.399 78.75 132.399 79.7727C132.399 81.1705 132.916 82.2273 133.95 82.9432C134.996 83.6477 136.32 84 137.922 84ZM168.037 60.8182V64.2273H154.469V60.8182H168.037ZM158.423 54.5455H162.446V79.5C162.446 80.6364 162.611 81.4886 162.94 82.0568C163.281 82.6136 163.713 82.9886 164.236 83.1818C164.77 83.3636 165.332 83.4545 165.923 83.4545C166.366 83.4545 166.73 83.4318 167.014 83.3864C167.298 83.3295 167.526 83.2841 167.696 83.25L168.514 86.8636C168.241 86.9659 167.861 87.0682 167.372 87.1705C166.884 87.2841 166.264 87.3409 165.514 87.3409C164.378 87.3409 163.264 87.0966 162.173 86.608C161.094 86.1193 160.196 85.375 159.48 84.375C158.776 83.375 158.423 82.1136 158.423 80.5909V54.5455ZM184.784 87.5455C182.261 87.5455 180.085 86.9886 178.256 85.875C176.438 84.75 175.034 83.1818 174.045 81.1705C173.068 79.1477 172.58 76.7955 172.58 74.1136C172.58 71.4318 173.068 69.0682 174.045 67.0227C175.034 64.9659 176.409 63.3636 178.17 62.2159C179.943 61.0568 182.011 60.4773 184.375 60.4773C185.739 60.4773 187.085 60.7045 188.415 61.1591C189.744 61.6136 190.955 62.3523 192.045 63.375C193.136 64.3864 194.006 65.7273 194.653 67.3977C195.301 69.0682 195.625 71.125 195.625 73.5682V75.2727H175.443V71.7955H191.534C191.534 70.3182 191.239 69 190.648 67.8409C190.068 66.6818 189.239 65.767 188.159 65.0966C187.091 64.4261 185.83 64.0909 184.375 64.0909C182.773 64.0909 181.386 64.4886 180.216 65.2841C179.057 66.0682 178.165 67.0909 177.54 68.3523C176.915 69.6136 176.602 70.9659 176.602 72.4091V74.7273C176.602 76.7045 176.943 78.3807 177.625 79.7557C178.318 81.1193 179.278 82.1591 180.506 82.875C181.733 83.5795 183.159 83.9318 184.784 83.9318C185.841 83.9318 186.795 83.7841 187.648 83.4886C188.511 83.1818 189.256 82.7273 189.881 82.125C190.506 81.5114 190.989 80.75 191.33 79.8409L195.216 80.9318C194.807 82.25 194.119 83.4091 193.153 84.4091C192.188 85.3977 190.994 86.1705 189.574 86.7273C188.153 87.2727 186.557 87.5455 184.784 87.5455ZM222.949 87.6136C221.29 87.6136 219.784 87.3011 218.432 86.6761C217.08 86.0398 216.006 85.125 215.21 83.9318C214.415 82.7273 214.017 81.2727 214.017 79.5682C214.017 78.0682 214.313 76.8523 214.903 75.9205C215.494 74.9773 216.284 74.2386 217.273 73.7045C218.261 73.1705 219.352 72.7727 220.545 72.5114C221.75 72.2386 222.96 72.0227 224.176 71.8636C225.767 71.6591 227.057 71.5057 228.045 71.4034C229.045 71.2898 229.773 71.1023 230.227 70.8409C230.693 70.5795 230.926 70.125 230.926 69.4773V69.3409C230.926 67.6591 230.466 66.3523 229.545 65.4205C228.636 64.4886 227.256 64.0227 225.403 64.0227C223.483 64.0227 221.977 64.4432 220.886 65.2841C219.795 66.125 219.028 67.0227 218.585 67.9773L214.767 66.6136C215.449 65.0227 216.358 63.7841 217.494 62.8977C218.642 62 219.892 61.375 221.244 61.0227C222.608 60.6591 223.949 60.4773 225.267 60.4773C226.108 60.4773 227.074 60.5795 228.165 60.7841C229.267 60.9773 230.33 61.3807 231.352 61.9943C232.386 62.608 233.244 63.5341 233.926 64.7727C234.608 66.0114 234.949 67.6705 234.949 69.75V87H230.926V83.4545H230.722C230.449 84.0227 229.994 84.6307 229.358 85.2784C228.722 85.9261 227.875 86.4773 226.818 86.9318C225.761 87.3864 224.472 87.6136 222.949 87.6136ZM223.562 84C225.153 84 226.494 83.6875 227.585 83.0625C228.688 82.4375 229.517 81.6307 230.074 80.642C230.642 79.6534 230.926 78.6136 230.926 77.5227V73.8409C230.756 74.0455 230.381 74.233 229.801 74.4034C229.233 74.5625 228.574 74.7045 227.824 74.8295C227.085 74.9432 226.364 75.0455 225.659 75.1364C224.966 75.2159 224.403 75.2841 223.972 75.3409C222.926 75.4773 221.949 75.6989 221.04 76.0057C220.142 76.3011 219.415 76.75 218.858 77.3523C218.313 77.9432 218.04 78.75 218.04 79.7727C218.04 81.1705 218.557 82.2273 219.591 82.9432C220.636 83.6477 221.96 84 223.562 84ZM259.814 71.25V87H255.791V60.8182H259.678V64.9091H260.018C260.632 63.5795 261.564 62.5114 262.814 61.7045C264.064 60.8864 265.678 60.4773 267.655 60.4773C269.428 60.4773 270.979 60.8409 272.308 61.5682C273.638 62.2841 274.672 63.375 275.411 64.8409C276.149 66.2955 276.518 68.1364 276.518 70.3636V87H272.496V70.6364C272.496 68.5795 271.962 66.9773 270.893 65.8295C269.825 64.6705 268.359 64.0909 266.496 64.0909C265.212 64.0909 264.064 64.3693 263.053 64.9261C262.053 65.483 261.263 66.2955 260.683 67.3636C260.104 68.4318 259.814 69.7273 259.814 71.25ZM294.847 87.5455C292.324 87.5455 290.148 86.9886 288.318 85.875C286.5 84.75 285.097 83.1818 284.108 81.1705C283.131 79.1477 282.642 76.7955 282.642 74.1136C282.642 71.4318 283.131 69.0682 284.108 67.0227C285.097 64.9659 286.472 63.3636 288.233 62.2159C290.006 61.0568 292.074 60.4773 294.438 60.4773C295.801 60.4773 297.148 60.7045 298.477 61.1591C299.807 61.6136 301.017 62.3523 302.108 63.375C303.199 64.3864 304.068 65.7273 304.716 67.3977C305.364 69.0682 305.688 71.125 305.688 73.5682V75.2727H285.506V71.7955H301.597C301.597 70.3182 301.301 69 300.71 67.8409C300.131 66.6818 299.301 65.767 298.222 65.0966C297.153 64.4261 295.892 64.0909 294.438 64.0909C292.835 64.0909 291.449 64.4886 290.278 65.2841C289.119 66.0682 288.227 67.0909 287.602 68.3523C286.977 69.6136 286.665 70.9659 286.665 72.4091V74.7273C286.665 76.7045 287.006 78.3807 287.688 79.7557C288.381 81.1193 289.341 82.1591 290.568 82.875C291.795 83.5795 293.222 83.9318 294.847 83.9318C295.903 83.9318 296.858 83.7841 297.71 83.4886C298.574 83.1818 299.318 82.7273 299.943 82.125C300.568 81.5114 301.051 80.75 301.392 79.8409L305.278 80.9318C304.869 82.25 304.182 83.4091 303.216 84.4091C302.25 85.3977 301.057 86.1705 299.636 86.7273C298.216 87.2727 296.619 87.5455 294.847 87.5455ZM317.739 87L309.761 60.8182H313.989L319.648 80.8636H319.92L325.511 60.8182H329.807L335.33 80.7955H335.602L341.261 60.8182H345.489L337.511 87H333.557L327.83 66.8864H327.42L321.693 87H317.739ZM375.625 87H364.852V52.0909H376.102C379.489 52.0909 382.386 52.7898 384.795 54.1875C387.205 55.5739 389.051 57.5682 390.335 60.1705C391.619 62.7614 392.261 65.8636 392.261 69.4773C392.261 73.1136 391.614 76.2443 390.318 78.8693C389.023 81.483 387.136 83.4943 384.659 84.9034C382.182 86.3011 379.17 87 375.625 87ZM369.08 83.25H375.352C378.239 83.25 380.631 82.6932 382.528 81.5795C384.426 80.4659 385.841 78.8807 386.773 76.8239C387.705 74.767 388.17 72.3182 388.17 69.4773C388.17 66.6591 387.71 64.233 386.79 62.1989C385.869 60.1534 384.494 58.5852 382.665 57.4943C380.835 56.392 378.557 55.8409 375.83 55.8409H369.08V83.25ZM409.784 87.5455C407.261 87.5455 405.085 86.9886 403.256 85.875C401.438 84.75 400.034 83.1818 399.045 81.1705C398.068 79.1477 397.58 76.7955 397.58 74.1136C397.58 71.4318 398.068 69.0682 399.045 67.0227C400.034 64.9659 401.409 63.3636 403.17 62.2159C404.943 61.0568 407.011 60.4773 409.375 60.4773C410.739 60.4773 412.085 60.7045 413.415 61.1591C414.744 61.6136 415.955 62.3523 417.045 63.375C418.136 64.3864 419.006 65.7273 419.653 67.3977C420.301 69.0682 420.625 71.125 420.625 73.5682V75.2727H400.443V71.7955H416.534C416.534 70.3182 416.239 69 415.648 67.8409C415.068 66.6818 414.239 65.767 413.159 65.0966C412.091 64.4261 410.83 64.0909 409.375 64.0909C407.773 64.0909 406.386 64.4886 405.216 65.2841C404.057 66.0682 403.165 67.0909 402.54 68.3523C401.915 69.6136 401.602 70.9659 401.602 72.4091V74.7273C401.602 76.7045 401.943 78.3807 402.625 79.7557C403.318 81.1193 404.278 82.1591 405.506 82.875C406.733 83.5795 408.159 83.9318 409.784 83.9318C410.841 83.9318 411.795 83.7841 412.648 83.4886C413.511 83.1818 414.256 82.7273 414.881 82.125C415.506 81.5114 415.989 80.75 416.33 79.8409L420.216 80.9318C419.807 82.25 419.119 83.4091 418.153 84.4091C417.188 85.3977 415.994 86.1705 414.574 86.7273C413.153 87.2727 411.557 87.5455 409.784 87.5455ZM437.381 87.5455C434.926 87.5455 432.813 86.9659 431.04 85.8068C429.267 84.6477 427.903 83.0511 426.949 81.017C425.994 78.983 425.517 76.6591 425.517 74.0455C425.517 71.3864 426.006 69.0398 426.983 67.0057C427.972 64.9602 429.347 63.3636 431.108 62.2159C432.881 61.0568 434.949 60.4773 437.312 60.4773C439.153 60.4773 440.812 60.8182 442.29 61.5C443.767 62.1818 444.977 63.1364 445.92 64.3636C446.864 65.5909 447.449 67.0227 447.676 68.6591H443.653C443.347 67.4659 442.665 66.4091 441.608 65.4886C440.563 64.5568 439.153 64.0909 437.381 64.0909C435.813 64.0909 434.438 64.5 433.256 65.3182C432.085 66.125 431.17 67.267 430.511 68.7443C429.864 70.2102 429.54 71.9318 429.54 73.9091C429.54 75.9318 429.858 77.6932 430.494 79.1932C431.142 80.6932 432.051 81.858 433.222 82.6875C434.403 83.517 435.79 83.9318 437.381 83.9318C438.426 83.9318 439.375 83.75 440.227 83.3864C441.08 83.0227 441.801 82.5 442.392 81.8182C442.983 81.1364 443.403 80.3182 443.653 79.3636H447.676C447.449 80.9091 446.886 82.3011 445.989 83.5398C445.102 84.767 443.926 85.7443 442.46 86.4716C441.006 87.1875 439.313 87.5455 437.381 87.5455ZM457.307 77.4545L457.239 72.4773H458.057L469.511 60.8182H474.489L462.284 73.1591H461.943L457.307 77.4545ZM453.557 87V52.0909H457.58V87H453.557ZM470.193 87L459.966 74.0455L462.83 71.25L475.307 87H470.193Z" fill="#A6A6A6"/>
<rect x="36" y="266" width="612" height="100" rx="10" fill="white"/>
<path d="M47.25 257H39.1705V230.818H47.608C50.1477 230.818 52.321 231.342 54.1278 232.391C55.9347 233.43 57.3196 234.926 58.2827 236.878C59.2457 238.821 59.7273 241.148 59.7273 243.858C59.7273 246.585 59.2415 248.933 58.2699 250.902C57.2983 252.862 55.8835 254.371 54.0256 255.428C52.1676 256.476 49.9091 257 47.25 257ZM42.3409 254.188H47.0455C49.2102 254.188 51.0043 253.77 52.4276 252.935C53.8509 252.099 54.9119 250.911 55.6108 249.368C56.3097 247.825 56.6591 245.989 56.6591 243.858C56.6591 241.744 56.3139 239.925 55.6236 238.399C54.9332 236.865 53.902 235.689 52.5298 234.871C51.1577 234.044 49.4489 233.631 47.4034 233.631H42.3409V254.188ZM72.8693 257.409C70.9773 257.409 69.3452 256.991 67.973 256.156C66.6094 255.312 65.5568 254.136 64.8153 252.628C64.0824 251.111 63.7159 249.347 63.7159 247.335C63.7159 245.324 64.0824 243.551 64.8153 242.017C65.5568 240.474 66.5881 239.273 67.9091 238.412C69.2386 237.543 70.7898 237.108 72.5625 237.108C73.5852 237.108 74.5952 237.278 75.5923 237.619C76.5895 237.96 77.4972 238.514 78.3153 239.281C79.1335 240.04 79.7855 241.045 80.2713 242.298C80.7571 243.551 81 245.094 81 246.926V248.205H65.8636V245.597H77.9318C77.9318 244.489 77.7102 243.5 77.267 242.631C76.8324 241.761 76.2102 241.075 75.4006 240.572C74.5994 240.07 73.6534 239.818 72.5625 239.818C71.3608 239.818 70.321 240.116 69.4432 240.713C68.5739 241.301 67.9048 242.068 67.4361 243.014C66.9673 243.96 66.733 244.974 66.733 246.057V247.795C66.733 249.278 66.9886 250.536 67.5 251.567C68.0199 252.589 68.7401 253.369 69.6605 253.906C70.581 254.435 71.6506 254.699 72.8693 254.699C73.6619 254.699 74.3778 254.588 75.017 254.366C75.6648 254.136 76.223 253.795 76.6918 253.344C77.1605 252.884 77.5227 252.312 77.7784 251.631L80.6932 252.449C80.3864 253.438 79.8707 254.307 79.1463 255.057C78.4219 255.798 77.527 256.378 76.4616 256.795C75.3963 257.205 74.1989 257.409 72.8693 257.409ZM93.5668 257.409C91.7259 257.409 90.1406 256.974 88.8111 256.105C87.4815 255.236 86.4588 254.038 85.7429 252.513C85.027 250.987 84.669 249.244 84.669 247.284C84.669 245.29 85.0355 243.53 85.7685 242.004C86.5099 240.47 87.5412 239.273 88.8622 238.412C90.1918 237.543 91.7429 237.108 93.5156 237.108C94.8963 237.108 96.1406 237.364 97.2486 237.875C98.3565 238.386 99.2642 239.102 99.9716 240.023C100.679 240.943 101.118 242.017 101.288 243.244H98.2713C98.0412 242.349 97.5298 241.557 96.7372 240.866C95.9531 240.168 94.8963 239.818 93.5668 239.818C92.3906 239.818 91.3594 240.125 90.473 240.739C89.5952 241.344 88.9091 242.2 88.4148 243.308C87.929 244.408 87.6861 245.699 87.6861 247.182C87.6861 248.699 87.9247 250.02 88.402 251.145C88.8878 252.27 89.5696 253.143 90.4474 253.766C91.3338 254.388 92.3736 254.699 93.5668 254.699C94.3509 254.699 95.0625 254.562 95.7017 254.29C96.3409 254.017 96.8821 253.625 97.3253 253.114C97.7685 252.602 98.0838 251.989 98.2713 251.273H101.288C101.118 252.432 100.696 253.476 100.023 254.405C99.358 255.325 98.4759 256.058 97.3764 256.604C96.2855 257.141 95.0156 257.409 93.5668 257.409ZM108.511 249.841L108.46 246.108H109.074L117.665 237.364H121.398L112.244 246.619H111.989L108.511 249.841ZM105.699 257V230.818H108.716V257H105.699ZM118.176 257L110.506 247.284L112.653 245.188L122.011 257H118.176ZM156.576 230.818V257H153.508L139.241 236.443H138.985V257H135.815V230.818H138.883L153.201 251.426H153.457V230.818H156.576ZM168.29 257.46C167.045 257.46 165.916 257.226 164.902 256.757C163.888 256.28 163.082 255.594 162.486 254.699C161.889 253.795 161.591 252.705 161.591 251.426C161.591 250.301 161.813 249.389 162.256 248.69C162.699 247.983 163.291 247.429 164.033 247.028C164.774 246.628 165.592 246.33 166.487 246.134C167.391 245.929 168.298 245.767 169.21 245.648C170.403 245.494 171.371 245.379 172.112 245.303C172.862 245.217 173.408 245.077 173.749 244.881C174.098 244.685 174.273 244.344 174.273 243.858V243.756C174.273 242.494 173.928 241.514 173.237 240.815C172.555 240.116 171.52 239.767 170.131 239.767C168.69 239.767 167.561 240.082 166.743 240.713C165.925 241.344 165.349 242.017 165.017 242.733L162.153 241.71C162.665 240.517 163.347 239.588 164.199 238.923C165.06 238.25 165.997 237.781 167.011 237.517C168.034 237.244 169.04 237.108 170.028 237.108C170.659 237.108 171.384 237.185 172.202 237.338C173.028 237.483 173.825 237.786 174.592 238.246C175.368 238.706 176.011 239.401 176.523 240.33C177.034 241.259 177.29 242.503 177.29 244.062V257H174.273V254.341H174.119C173.915 254.767 173.574 255.223 173.097 255.709C172.619 256.195 171.984 256.608 171.192 256.949C170.399 257.29 169.432 257.46 168.29 257.46ZM168.75 254.75C169.943 254.75 170.949 254.516 171.767 254.047C172.594 253.578 173.216 252.973 173.634 252.232C174.06 251.49 174.273 250.71 174.273 249.892V247.131C174.145 247.284 173.864 247.425 173.429 247.553C173.003 247.672 172.509 247.778 171.946 247.872C171.392 247.957 170.851 248.034 170.322 248.102C169.803 248.162 169.381 248.213 169.057 248.256C168.273 248.358 167.54 248.524 166.858 248.754C166.185 248.976 165.639 249.312 165.222 249.764C164.813 250.207 164.608 250.812 164.608 251.58C164.608 252.628 164.996 253.42 165.771 253.957C166.555 254.486 167.548 254.75 168.75 254.75ZM182.797 257V237.364H185.711V240.432H185.967C186.376 239.384 187.037 238.57 187.949 237.99C188.86 237.402 189.956 237.108 191.234 237.108C192.529 237.108 193.608 237.402 194.468 237.99C195.338 238.57 196.015 239.384 196.501 240.432H196.706C197.208 239.418 197.963 238.612 198.968 238.016C199.974 237.411 201.18 237.108 202.586 237.108C204.342 237.108 205.778 237.658 206.895 238.757C208.011 239.848 208.569 241.548 208.569 243.858V257H205.552V243.858C205.552 242.409 205.156 241.374 204.363 240.751C203.571 240.129 202.637 239.818 201.564 239.818C200.183 239.818 199.113 240.236 198.355 241.071C197.596 241.898 197.217 242.946 197.217 244.216V257H194.149V243.551C194.149 242.435 193.787 241.536 193.062 240.854C192.338 240.163 191.404 239.818 190.262 239.818C189.478 239.818 188.745 240.027 188.064 240.445C187.39 240.862 186.845 241.442 186.427 242.183C186.018 242.916 185.814 243.764 185.814 244.727V257H182.797ZM222.319 257.409C220.426 257.409 218.794 256.991 217.422 256.156C216.059 255.312 215.006 254.136 214.265 252.628C213.532 251.111 213.165 249.347 213.165 247.335C213.165 245.324 213.532 243.551 214.265 242.017C215.006 240.474 216.037 239.273 217.358 238.412C218.688 237.543 220.239 237.108 222.012 237.108C223.034 237.108 224.044 237.278 225.042 237.619C226.039 237.96 226.946 238.514 227.765 239.281C228.583 240.04 229.235 241.045 229.721 242.298C230.206 243.551 230.449 245.094 230.449 246.926V248.205H215.313V245.597H227.381C227.381 244.489 227.159 243.5 226.716 242.631C226.282 241.761 225.659 241.075 224.85 240.572C224.049 240.07 223.103 239.818 222.012 239.818C220.81 239.818 219.77 240.116 218.892 240.713C218.023 241.301 217.354 242.068 216.885 243.014C216.417 243.96 216.182 244.974 216.182 246.057V247.795C216.182 249.278 216.438 250.536 216.949 251.567C217.469 252.589 218.189 253.369 219.11 253.906C220.03 254.435 221.1 254.699 222.319 254.699C223.111 254.699 223.827 254.588 224.466 254.366C225.114 254.136 225.672 253.795 226.141 253.344C226.61 252.884 226.972 252.312 227.228 251.631L230.142 252.449C229.836 253.438 229.32 254.307 228.596 255.057C227.871 255.798 226.976 256.378 225.911 256.795C224.846 257.205 223.648 257.409 222.319 257.409ZM237.238 257.205C236.607 257.205 236.066 256.979 235.614 256.527C235.162 256.075 234.936 255.534 234.936 254.903C234.936 254.273 235.162 253.732 235.614 253.28C236.066 252.828 236.607 252.602 237.238 252.602C237.868 252.602 238.409 252.828 238.861 253.28C239.313 253.732 239.539 254.273 239.539 254.903C239.539 255.321 239.432 255.705 239.219 256.054C239.015 256.403 238.738 256.685 238.388 256.898C238.047 257.102 237.664 257.205 237.238 257.205ZM237.238 242.631C236.607 242.631 236.066 242.405 235.614 241.953C235.162 241.501 234.936 240.96 234.936 240.33C234.936 239.699 235.162 239.158 235.614 238.706C236.066 238.254 236.607 238.028 237.238 238.028C237.868 238.028 238.409 238.254 238.861 238.706C239.313 239.158 239.539 239.699 239.539 240.33C239.539 240.747 239.432 241.131 239.219 241.48C239.015 241.83 238.738 242.111 238.388 242.324C238.047 242.528 237.664 242.631 237.238 242.631Z" fill="#A6A6A6"/>
<rect x="36" y="673" width="252" height="74" rx="10" fill="#66BB6A"/>
<path d="M69.4886 701.364C69.3352 700.068 68.7131 699.062 67.6222 698.347C66.5313 697.631 65.1932 697.273 63.608 697.273C62.4489 697.273 61.4347 697.46 60.5653 697.835C59.7045 698.21 59.0313 698.726 58.5455 699.382C58.0682 700.038 57.8295 700.784 57.8295 701.619C57.8295 702.318 57.9957 702.919 58.3281 703.422C58.669 703.916 59.1037 704.33 59.6321 704.662C60.1605 704.986 60.7145 705.254 61.294 705.467C61.8736 705.672 62.4062 705.838 62.892 705.966L65.5511 706.682C66.233 706.861 66.9915 707.108 67.8267 707.423C68.6705 707.739 69.4759 708.169 70.2429 708.714C71.0185 709.251 71.6577 709.942 72.1605 710.786C72.6634 711.629 72.9148 712.665 72.9148 713.892C72.9148 715.307 72.544 716.585 71.8026 717.727C71.0696 718.869 69.9957 719.777 68.581 720.45C67.1747 721.124 65.4659 721.46 63.4545 721.46C61.5795 721.46 59.956 721.158 58.5838 720.553C57.2202 719.947 56.1463 719.104 55.3622 718.021C54.5866 716.939 54.1477 715.682 54.0455 714.25H57.3182C57.4034 715.239 57.7358 716.057 58.3153 716.705C58.9034 717.344 59.6449 717.821 60.5398 718.136C61.4432 718.443 62.4148 718.597 63.4545 718.597C64.6648 718.597 65.7514 718.401 66.7145 718.009C67.6776 717.608 68.4403 717.054 69.0028 716.347C69.5653 715.631 69.8466 714.795 69.8466 713.841C69.8466 712.972 69.6037 712.264 69.1179 711.719C68.6321 711.173 67.9929 710.73 67.2003 710.389C66.4077 710.048 65.5511 709.75 64.6307 709.494L61.4091 708.574C59.3636 707.986 57.7443 707.146 56.5511 706.055C55.358 704.964 54.7614 703.537 54.7614 701.773C54.7614 700.307 55.1577 699.028 55.9503 697.938C56.7514 696.838 57.8253 695.986 59.1719 695.381C60.527 694.767 62.0398 694.46 63.7102 694.46C65.3977 694.46 66.8977 694.763 68.2102 695.368C69.5227 695.964 70.5625 696.783 71.3295 697.822C72.1051 698.862 72.5142 700.043 72.5568 701.364H69.4886ZM85.9514 721.409C84.0593 721.409 82.4272 720.991 81.055 720.156C79.6914 719.312 78.6388 718.136 77.8974 716.628C77.1644 715.111 76.7979 713.347 76.7979 711.335C76.7979 709.324 77.1644 707.551 77.8974 706.017C78.6388 704.474 79.6701 703.273 80.9911 702.412C82.3207 701.543 83.8718 701.108 85.6445 701.108C86.6673 701.108 87.6772 701.278 88.6744 701.619C89.6715 701.96 90.5792 702.514 91.3974 703.281C92.2156 704.04 92.8675 705.045 93.3533 706.298C93.8391 707.551 94.082 709.094 94.082 710.926V712.205H78.9457V709.597H91.0139C91.0139 708.489 90.7923 707.5 90.3491 706.631C89.9144 705.761 89.2923 705.075 88.4826 704.572C87.6815 704.07 86.7354 703.818 85.6445 703.818C84.4428 703.818 83.4031 704.116 82.5252 704.713C81.6559 705.301 80.9869 706.068 80.5181 707.014C80.0494 707.96 79.815 708.974 79.815 710.057V711.795C79.815 713.278 80.0707 714.536 80.582 715.567C81.1019 716.589 81.8221 717.369 82.7425 717.906C83.663 718.435 84.7326 718.699 85.9514 718.699C86.744 718.699 87.4599 718.588 88.0991 718.366C88.7468 718.136 89.305 717.795 89.7738 717.344C90.2425 716.884 90.6048 716.312 90.8604 715.631L93.7752 716.449C93.4684 717.438 92.9528 718.307 92.2283 719.057C91.5039 719.798 90.609 720.378 89.5437 720.795C88.4783 721.205 87.2809 721.409 85.9514 721.409ZM101.689 694.818V721H98.6715V694.818H101.689ZM115.447 721.409C113.555 721.409 111.923 720.991 110.551 720.156C109.188 719.312 108.135 718.136 107.393 716.628C106.661 715.111 106.294 713.347 106.294 711.335C106.294 709.324 106.661 707.551 107.393 706.017C108.135 704.474 109.166 703.273 110.487 702.412C111.817 701.543 113.368 701.108 115.141 701.108C116.163 701.108 117.173 701.278 118.17 701.619C119.168 701.96 120.075 702.514 120.893 703.281C121.712 704.04 122.364 705.045 122.849 706.298C123.335 707.551 123.578 709.094 123.578 710.926V712.205H108.442V709.597H120.51C120.51 708.489 120.288 707.5 119.845 706.631C119.411 705.761 118.788 705.075 117.979 704.572C117.178 704.07 116.232 703.818 115.141 703.818C113.939 703.818 112.899 704.116 112.021 704.713C111.152 705.301 110.483 706.068 110.014 707.014C109.545 707.96 109.311 708.974 109.311 710.057V711.795C109.311 713.278 109.567 714.536 110.078 715.567C110.598 716.589 111.318 717.369 112.239 717.906C113.159 718.435 114.229 718.699 115.447 718.699C116.24 718.699 116.956 718.588 117.595 718.366C118.243 718.136 118.801 717.795 119.27 717.344C119.739 716.884 120.101 716.312 120.357 715.631L123.271 716.449C122.964 717.438 122.449 718.307 121.724 719.057C121 719.798 120.105 720.378 119.04 720.795C117.974 721.205 116.777 721.409 115.447 721.409ZM136.145 721.409C134.304 721.409 132.719 720.974 131.389 720.105C130.06 719.236 129.037 718.038 128.321 716.513C127.605 714.987 127.247 713.244 127.247 711.284C127.247 709.29 127.614 707.53 128.347 706.004C129.088 704.47 130.119 703.273 131.44 702.412C132.77 701.543 134.321 701.108 136.094 701.108C137.474 701.108 138.719 701.364 139.827 701.875C140.935 702.386 141.842 703.102 142.55 704.023C143.257 704.943 143.696 706.017 143.866 707.244H140.849C140.619 706.349 140.108 705.557 139.315 704.866C138.531 704.168 137.474 703.818 136.145 703.818C134.969 703.818 133.938 704.125 133.051 704.739C132.173 705.344 131.487 706.2 130.993 707.308C130.507 708.408 130.264 709.699 130.264 711.182C130.264 712.699 130.503 714.02 130.98 715.145C131.466 716.27 132.148 717.143 133.026 717.766C133.912 718.388 134.952 718.699 136.145 718.699C136.929 718.699 137.641 718.562 138.28 718.29C138.919 718.017 139.46 717.625 139.903 717.114C140.347 716.602 140.662 715.989 140.849 715.273H143.866C143.696 716.432 143.274 717.476 142.601 718.405C141.936 719.325 141.054 720.058 139.955 720.604C138.864 721.141 137.594 721.409 136.145 721.409ZM156.817 701.364V703.92H146.641V701.364H156.817ZM149.607 696.659H152.624V715.375C152.624 716.227 152.747 716.866 152.994 717.293C153.25 717.71 153.574 717.991 153.966 718.136C154.366 718.273 154.788 718.341 155.232 718.341C155.564 718.341 155.837 718.324 156.05 718.29C156.263 718.247 156.433 718.213 156.561 718.188L157.175 720.898C156.97 720.974 156.685 721.051 156.318 721.128C155.952 721.213 155.487 721.256 154.925 721.256C154.072 721.256 153.237 721.072 152.419 720.706C151.609 720.339 150.936 719.781 150.399 719.031C149.871 718.281 149.607 717.335 149.607 716.193V696.659ZM192.957 703H189.787C189.599 702.088 189.271 701.287 188.803 700.597C188.342 699.906 187.78 699.327 187.115 698.858C186.459 698.381 185.73 698.023 184.929 697.784C184.128 697.545 183.293 697.426 182.423 697.426C180.838 697.426 179.402 697.827 178.115 698.628C176.837 699.429 175.818 700.609 175.06 702.169C174.31 703.729 173.935 705.642 173.935 707.909C173.935 710.176 174.31 712.089 175.06 713.649C175.818 715.209 176.837 716.389 178.115 717.19C179.402 717.991 180.838 718.392 182.423 718.392C183.293 718.392 184.128 718.273 184.929 718.034C185.73 717.795 186.459 717.442 187.115 716.973C187.78 716.496 188.342 715.912 188.803 715.222C189.271 714.523 189.599 713.722 189.787 712.818H192.957C192.719 714.156 192.284 715.354 191.653 716.411C191.023 717.467 190.239 718.366 189.301 719.108C188.364 719.841 187.311 720.399 186.143 720.783C184.984 721.166 183.744 721.358 182.423 721.358C180.19 721.358 178.205 720.812 176.466 719.722C174.727 718.631 173.359 717.08 172.362 715.068C171.365 713.057 170.866 710.67 170.866 707.909C170.866 705.148 171.365 702.761 172.362 700.75C173.359 698.739 174.727 697.188 176.466 696.097C178.205 695.006 180.19 694.46 182.423 694.46C183.744 694.46 184.984 694.652 186.143 695.036C187.311 695.419 188.364 695.982 189.301 696.723C190.239 697.456 191.023 698.351 191.653 699.408C192.284 700.456 192.719 701.653 192.957 703ZM203.45 721.46C202.206 721.46 201.076 721.226 200.062 720.757C199.048 720.28 198.243 719.594 197.646 718.699C197.049 717.795 196.751 716.705 196.751 715.426C196.751 714.301 196.973 713.389 197.416 712.69C197.859 711.983 198.451 711.429 199.193 711.028C199.934 710.628 200.752 710.33 201.647 710.134C202.551 709.929 203.458 709.767 204.37 709.648C205.564 709.494 206.531 709.379 207.272 709.303C208.022 709.217 208.568 709.077 208.909 708.881C209.258 708.685 209.433 708.344 209.433 707.858V707.756C209.433 706.494 209.088 705.514 208.397 704.815C207.716 704.116 206.68 703.767 205.291 703.767C203.85 703.767 202.721 704.082 201.903 704.713C201.085 705.344 200.51 706.017 200.177 706.733L197.314 705.71C197.825 704.517 198.507 703.588 199.359 702.923C200.22 702.25 201.157 701.781 202.172 701.517C203.194 701.244 204.2 701.108 205.189 701.108C205.819 701.108 206.544 701.185 207.362 701.338C208.189 701.483 208.985 701.786 209.752 702.246C210.528 702.706 211.172 703.401 211.683 704.33C212.194 705.259 212.45 706.503 212.45 708.062V721H209.433V718.341H209.279C209.075 718.767 208.734 719.223 208.257 719.709C207.779 720.195 207.145 720.608 206.352 720.949C205.559 721.29 204.592 721.46 203.45 721.46ZM203.91 718.75C205.103 718.75 206.109 718.516 206.927 718.047C207.754 717.578 208.376 716.973 208.794 716.232C209.22 715.49 209.433 714.71 209.433 713.892V711.131C209.305 711.284 209.024 711.425 208.589 711.553C208.163 711.672 207.669 711.778 207.106 711.872C206.552 711.957 206.011 712.034 205.483 712.102C204.963 712.162 204.541 712.213 204.217 712.256C203.433 712.358 202.7 712.524 202.018 712.754C201.345 712.976 200.799 713.312 200.382 713.764C199.973 714.207 199.768 714.812 199.768 715.58C199.768 716.628 200.156 717.42 200.931 717.957C201.716 718.486 202.708 718.75 203.91 718.75ZM217.957 721V701.364H220.871V704.33H221.076C221.434 703.358 222.082 702.57 223.019 701.964C223.957 701.359 225.013 701.057 226.19 701.057C226.411 701.057 226.688 701.061 227.021 701.07C227.353 701.078 227.604 701.091 227.775 701.108V704.176C227.673 704.151 227.438 704.112 227.072 704.061C226.714 704.001 226.335 703.972 225.934 703.972C224.979 703.972 224.127 704.172 223.377 704.572C222.636 704.964 222.048 705.51 221.613 706.209C221.187 706.899 220.974 707.687 220.974 708.574V721H217.957ZM238.168 721.409C236.532 721.409 235.087 720.996 233.835 720.169C232.582 719.334 231.602 718.158 230.894 716.641C230.187 715.115 229.833 713.312 229.833 711.233C229.833 709.17 230.187 707.381 230.894 705.864C231.602 704.347 232.586 703.175 233.847 702.348C235.109 701.521 236.566 701.108 238.219 701.108C239.498 701.108 240.508 701.321 241.249 701.747C241.999 702.165 242.57 702.642 242.962 703.179C243.363 703.707 243.674 704.142 243.896 704.483H244.151V694.818H247.168V721H244.254V717.983H243.896C243.674 718.341 243.359 718.793 242.95 719.338C242.54 719.875 241.957 720.357 241.198 720.783C240.44 721.2 239.43 721.409 238.168 721.409ZM238.577 718.699C239.788 718.699 240.81 718.384 241.646 717.753C242.481 717.114 243.116 716.232 243.55 715.107C243.985 713.973 244.202 712.665 244.202 711.182C244.202 709.716 243.989 708.433 243.563 707.334C243.137 706.226 242.506 705.365 241.671 704.751C240.836 704.129 239.805 703.818 238.577 703.818C237.299 703.818 236.234 704.146 235.381 704.803C234.538 705.45 233.903 706.332 233.477 707.449C233.059 708.557 232.85 709.801 232.85 711.182C232.85 712.58 233.063 713.849 233.489 714.991C233.924 716.125 234.563 717.028 235.407 717.702C236.259 718.366 237.316 718.699 238.577 718.699ZM267.022 705.761L264.312 706.528C264.141 706.077 263.89 705.638 263.558 705.212C263.234 704.777 262.79 704.419 262.228 704.138C261.665 703.857 260.945 703.716 260.067 703.716C258.866 703.716 257.864 703.993 257.063 704.547C256.271 705.092 255.874 705.787 255.874 706.631C255.874 707.381 256.147 707.973 256.692 708.408C257.238 708.842 258.09 709.205 259.249 709.494L262.164 710.21C263.92 710.636 265.228 711.288 266.089 712.166C266.95 713.036 267.38 714.156 267.38 715.528C267.38 716.653 267.056 717.659 266.408 718.545C265.769 719.432 264.874 720.131 263.724 720.642C262.573 721.153 261.235 721.409 259.71 721.409C257.707 721.409 256.049 720.974 254.737 720.105C253.424 719.236 252.593 717.966 252.244 716.295L255.107 715.58C255.38 716.636 255.896 717.429 256.654 717.957C257.421 718.486 258.423 718.75 259.658 718.75C261.065 718.75 262.181 718.452 263.008 717.855C263.843 717.25 264.261 716.526 264.261 715.682C264.261 715 264.022 714.429 263.545 713.969C263.067 713.5 262.335 713.151 261.346 712.92L258.073 712.153C256.275 711.727 254.954 711.067 254.11 710.172C253.275 709.268 252.857 708.139 252.857 706.784C252.857 705.676 253.168 704.696 253.79 703.844C254.421 702.991 255.278 702.322 256.36 701.837C257.451 701.351 258.687 701.108 260.067 701.108C262.011 701.108 263.536 701.534 264.644 702.386C265.761 703.239 266.553 704.364 267.022 705.761Z" fill="white"/>
<rect x="320" y="673" width="334" height="74" rx="10" fill="#A6A6A6"/>
<path d="M345.545 705H342.727C342.561 704.189 342.269 703.477 341.852 702.864C341.443 702.25 340.943 701.735 340.352 701.318C339.769 700.894 339.121 700.576 338.409 700.364C337.697 700.152 336.955 700.045 336.182 700.045C334.773 700.045 333.496 700.402 332.352 701.114C331.216 701.826 330.311 702.875 329.636 704.261C328.97 705.648 328.636 707.348 328.636 709.364C328.636 711.379 328.97 713.08 329.636 714.466C330.311 715.852 331.216 716.902 332.352 717.614C333.496 718.326 334.773 718.682 336.182 718.682C336.955 718.682 337.697 718.576 338.409 718.364C339.121 718.152 339.769 717.837 340.352 717.42C340.943 716.996 341.443 716.477 341.852 715.864C342.269 715.242 342.561 714.53 342.727 713.727H345.545C345.333 714.917 344.947 715.981 344.386 716.92C343.826 717.86 343.129 718.659 342.295 719.318C341.462 719.97 340.527 720.466 339.489 720.807C338.458 721.148 337.356 721.318 336.182 721.318C334.197 721.318 332.432 720.833 330.886 719.864C329.341 718.894 328.125 717.515 327.239 715.727C326.352 713.939 325.909 711.818 325.909 709.364C325.909 706.909 326.352 704.788 327.239 703C328.125 701.212 329.341 699.833 330.886 698.864C332.432 697.894 334.197 697.409 336.182 697.409C337.356 697.409 338.458 697.58 339.489 697.92C340.527 698.261 341.462 698.761 342.295 699.42C343.129 700.072 343.826 700.867 344.386 701.807C344.947 702.739 345.333 703.803 345.545 705ZM349.736 721V703.545H352.327V706.182H352.509C352.827 705.318 353.402 704.617 354.236 704.08C355.069 703.542 356.009 703.273 357.054 703.273C357.251 703.273 357.497 703.277 357.793 703.284C358.088 703.292 358.312 703.303 358.463 703.318V706.045C358.372 706.023 358.164 705.989 357.838 705.943C357.52 705.89 357.183 705.864 356.827 705.864C355.978 705.864 355.221 706.042 354.554 706.398C353.895 706.746 353.372 707.231 352.986 707.852C352.607 708.466 352.418 709.167 352.418 709.955V721H349.736ZM368.429 721.364C366.747 721.364 365.296 720.992 364.077 720.25C362.865 719.5 361.929 718.455 361.27 717.114C360.618 715.765 360.293 714.197 360.293 712.409C360.293 710.621 360.618 709.045 361.27 707.682C361.929 706.311 362.846 705.242 364.02 704.477C365.202 703.705 366.58 703.318 368.156 703.318C369.065 703.318 369.963 703.47 370.849 703.773C371.736 704.076 372.543 704.568 373.27 705.25C373.997 705.924 374.577 706.818 375.009 707.932C375.44 709.045 375.656 710.417 375.656 712.045V713.182H362.202V710.864H372.929C372.929 709.879 372.732 709 372.338 708.227C371.952 707.455 371.399 706.845 370.679 706.398C369.967 705.951 369.126 705.727 368.156 705.727C367.088 705.727 366.164 705.992 365.384 706.523C364.611 707.045 364.016 707.727 363.599 708.568C363.183 709.409 362.974 710.311 362.974 711.273V712.818C362.974 714.136 363.202 715.254 363.656 716.17C364.118 717.08 364.759 717.773 365.577 718.25C366.395 718.72 367.346 718.955 368.429 718.955C369.134 718.955 369.77 718.856 370.338 718.659C370.914 718.455 371.41 718.152 371.827 717.75C372.243 717.341 372.565 716.833 372.793 716.227L375.384 716.955C375.111 717.833 374.652 718.606 374.009 719.273C373.365 719.932 372.569 720.447 371.622 720.818C370.675 721.182 369.611 721.364 368.429 721.364ZM384.872 721.409C383.766 721.409 382.762 721.201 381.861 720.784C380.959 720.36 380.243 719.75 379.713 718.955C379.183 718.152 378.918 717.182 378.918 716.045C378.918 715.045 379.115 714.235 379.509 713.614C379.902 712.985 380.429 712.492 381.088 712.136C381.747 711.78 382.474 711.515 383.27 711.341C384.073 711.159 384.88 711.015 385.69 710.909C386.751 710.773 387.611 710.67 388.27 710.602C388.937 710.527 389.421 710.402 389.724 710.227C390.035 710.053 390.19 709.75 390.19 709.318V709.227C390.19 708.106 389.884 707.235 389.27 706.614C388.664 705.992 387.743 705.682 386.509 705.682C385.228 705.682 384.224 705.962 383.497 706.523C382.77 707.083 382.259 707.682 381.963 708.318L379.418 707.409C379.872 706.348 380.478 705.523 381.236 704.932C382.001 704.333 382.834 703.917 383.736 703.682C384.645 703.439 385.539 703.318 386.418 703.318C386.978 703.318 387.622 703.386 388.349 703.523C389.084 703.652 389.793 703.92 390.474 704.33C391.164 704.739 391.736 705.356 392.19 706.182C392.645 707.008 392.872 708.114 392.872 709.5V721H390.19V718.636H390.054C389.872 719.015 389.569 719.42 389.145 719.852C388.721 720.284 388.156 720.652 387.452 720.955C386.747 721.258 385.887 721.409 384.872 721.409ZM385.281 719C386.342 719 387.236 718.792 387.963 718.375C388.698 717.958 389.251 717.42 389.622 716.761C390.001 716.102 390.19 715.409 390.19 714.682V712.227C390.077 712.364 389.827 712.489 389.44 712.602C389.062 712.708 388.622 712.803 388.122 712.886C387.63 712.962 387.149 713.03 386.679 713.091C386.217 713.144 385.842 713.189 385.554 713.227C384.857 713.318 384.205 713.466 383.599 713.67C383.001 713.867 382.516 714.167 382.145 714.568C381.781 714.962 381.599 715.5 381.599 716.182C381.599 717.114 381.944 717.818 382.634 718.295C383.33 718.765 384.213 719 385.281 719ZM405.358 703.545V705.818H396.312V703.545H405.358ZM398.949 699.364H401.631V716C401.631 716.758 401.741 717.326 401.96 717.705C402.188 718.076 402.475 718.326 402.824 718.455C403.18 718.576 403.555 718.636 403.949 718.636C404.244 718.636 404.487 718.621 404.676 718.591C404.866 718.553 405.017 718.523 405.131 718.5L405.676 720.909C405.494 720.977 405.241 721.045 404.915 721.114C404.589 721.189 404.176 721.227 403.676 721.227C402.919 721.227 402.176 721.064 401.449 720.739C400.729 720.413 400.131 719.917 399.653 719.25C399.184 718.583 398.949 717.742 398.949 716.727V699.364ZM416.523 721.364C414.841 721.364 413.39 720.992 412.17 720.25C410.958 719.5 410.023 718.455 409.364 717.114C408.712 715.765 408.386 714.197 408.386 712.409C408.386 710.621 408.712 709.045 409.364 707.682C410.023 706.311 410.939 705.242 412.114 704.477C413.295 703.705 414.674 703.318 416.25 703.318C417.159 703.318 418.057 703.47 418.943 703.773C419.83 704.076 420.636 704.568 421.364 705.25C422.091 705.924 422.67 706.818 423.102 707.932C423.534 709.045 423.75 710.417 423.75 712.045V713.182H410.295V710.864H421.023C421.023 709.879 420.826 709 420.432 708.227C420.045 707.455 419.492 706.845 418.773 706.398C418.061 705.951 417.22 705.727 416.25 705.727C415.182 705.727 414.258 705.992 413.477 706.523C412.705 707.045 412.11 707.727 411.693 708.568C411.277 709.409 411.068 710.311 411.068 711.273V712.818C411.068 714.136 411.295 715.254 411.75 716.17C412.212 717.08 412.852 717.773 413.67 718.25C414.489 718.72 415.439 718.955 416.523 718.955C417.227 718.955 417.864 718.856 418.432 718.659C419.008 718.455 419.504 718.152 419.92 717.75C420.337 717.341 420.659 716.833 420.886 716.227L423.477 716.955C423.205 717.833 422.746 718.606 422.102 719.273C421.458 719.932 420.663 720.447 419.716 720.818C418.769 721.182 417.705 721.364 416.523 721.364ZM440.784 721L435.466 703.545H438.284L442.057 716.909H442.239L445.966 703.545H448.83L452.511 716.864H452.693L456.466 703.545H459.284L453.966 721H451.33L447.511 707.591H447.239L443.42 721H440.784ZM462.83 721V703.545H465.511V721H462.83ZM464.193 700.636C463.67 700.636 463.22 700.458 462.841 700.102C462.47 699.746 462.284 699.318 462.284 698.818C462.284 698.318 462.47 697.89 462.841 697.534C463.22 697.178 463.67 697 464.193 697C464.716 697 465.163 697.178 465.534 697.534C465.913 697.89 466.102 698.318 466.102 698.818C466.102 699.318 465.913 699.746 465.534 700.102C465.163 700.458 464.716 700.636 464.193 700.636ZM478.014 703.545V705.818H468.969V703.545H478.014ZM471.605 699.364H474.287V716C474.287 716.758 474.397 717.326 474.616 717.705C474.844 718.076 475.132 718.326 475.48 718.455C475.836 718.576 476.211 718.636 476.605 718.636C476.901 718.636 477.143 718.621 477.332 718.591C477.522 718.553 477.673 718.523 477.787 718.5L478.332 720.909C478.151 720.977 477.897 721.045 477.571 721.114C477.245 721.189 476.832 721.227 476.332 721.227C475.575 721.227 474.832 721.064 474.105 720.739C473.385 720.413 472.787 719.917 472.31 719.25C471.84 718.583 471.605 717.742 471.605 716.727V699.364ZM485.105 710.5V721H482.423V697.727H485.105V706.273H485.332C485.741 705.371 486.355 704.655 487.173 704.125C487.999 703.587 489.098 703.318 490.469 703.318C491.658 703.318 492.7 703.557 493.594 704.034C494.488 704.504 495.181 705.227 495.673 706.205C496.173 707.174 496.423 708.409 496.423 709.909V721H493.741V710.091C493.741 708.705 493.382 707.633 492.662 706.875C491.95 706.11 490.961 705.727 489.696 705.727C488.817 705.727 488.029 705.913 487.332 706.284C486.643 706.655 486.098 707.197 485.696 707.909C485.302 708.621 485.105 709.485 485.105 710.5ZM508.42 721.364C506.845 721.364 505.462 720.989 504.273 720.239C503.091 719.489 502.167 718.439 501.5 717.091C500.841 715.742 500.511 714.167 500.511 712.364C500.511 710.545 500.841 708.958 501.5 707.602C502.167 706.246 503.091 705.193 504.273 704.443C505.462 703.693 506.845 703.318 508.42 703.318C509.996 703.318 511.375 703.693 512.557 704.443C513.746 705.193 514.67 706.246 515.33 707.602C515.996 708.958 516.33 710.545 516.33 712.364C516.33 714.167 515.996 715.742 515.33 717.091C514.67 718.439 513.746 719.489 512.557 720.239C511.375 720.989 509.996 721.364 508.42 721.364ZM508.42 718.955C509.617 718.955 510.602 718.648 511.375 718.034C512.148 717.42 512.72 716.614 513.091 715.614C513.462 714.614 513.648 713.53 513.648 712.364C513.648 711.197 513.462 710.11 513.091 709.102C512.72 708.095 512.148 707.28 511.375 706.659C510.602 706.038 509.617 705.727 508.42 705.727C507.223 705.727 506.239 706.038 505.466 706.659C504.693 707.28 504.121 708.095 503.75 709.102C503.379 710.11 503.193 711.197 503.193 712.364C503.193 713.53 503.379 714.614 503.75 715.614C504.121 716.614 504.693 717.42 505.466 718.034C506.239 718.648 507.223 718.955 508.42 718.955ZM531.423 713.864V703.545H534.105V721H531.423V718.045H531.241C530.832 718.932 530.196 719.686 529.332 720.307C528.469 720.92 527.378 721.227 526.06 721.227C524.969 721.227 523.999 720.989 523.151 720.511C522.302 720.027 521.635 719.299 521.151 718.33C520.666 717.352 520.423 716.121 520.423 714.636V703.545H523.105V714.455C523.105 715.727 523.461 716.742 524.173 717.5C524.893 718.258 525.81 718.636 526.923 718.636C527.59 718.636 528.268 718.466 528.957 718.125C529.654 717.784 530.238 717.261 530.707 716.557C531.185 715.852 531.423 714.955 531.423 713.864ZM546.608 703.545V705.818H537.562V703.545H546.608ZM540.199 699.364H542.881V716C542.881 716.758 542.991 717.326 543.21 717.705C543.438 718.076 543.725 718.326 544.074 718.455C544.43 718.576 544.805 718.636 545.199 718.636C545.494 718.636 545.737 718.621 545.926 718.591C546.116 718.553 546.267 718.523 546.381 718.5L546.926 720.909C546.744 720.977 546.491 721.045 546.165 721.114C545.839 721.189 545.426 721.227 544.926 721.227C544.169 721.227 543.426 721.064 542.699 720.739C541.979 720.413 541.381 719.917 540.903 719.25C540.434 718.583 540.199 717.742 540.199 716.727V699.364ZM578.733 705H575.915C575.748 704.189 575.456 703.477 575.04 702.864C574.631 702.25 574.131 701.735 573.54 701.318C572.956 700.894 572.309 700.576 571.597 700.364C570.884 700.152 570.142 700.045 569.369 700.045C567.96 700.045 566.684 700.402 565.54 701.114C564.403 701.826 563.498 702.875 562.824 704.261C562.157 705.648 561.824 707.348 561.824 709.364C561.824 711.379 562.157 713.08 562.824 714.466C563.498 715.852 564.403 716.902 565.54 717.614C566.684 718.326 567.96 718.682 569.369 718.682C570.142 718.682 570.884 718.576 571.597 718.364C572.309 718.152 572.956 717.837 573.54 717.42C574.131 716.996 574.631 716.477 575.04 715.864C575.456 715.242 575.748 714.53 575.915 713.727H578.733C578.521 714.917 578.134 715.981 577.574 716.92C577.013 717.86 576.316 718.659 575.483 719.318C574.65 719.97 573.714 720.466 572.676 720.807C571.646 721.148 570.544 721.318 569.369 721.318C567.384 721.318 565.619 720.833 564.074 719.864C562.528 718.894 561.313 717.515 560.426 715.727C559.54 713.939 559.097 711.818 559.097 709.364C559.097 706.909 559.54 704.788 560.426 703C561.313 701.212 562.528 699.833 564.074 698.864C565.619 697.894 567.384 697.409 569.369 697.409C570.544 697.409 571.646 697.58 572.676 697.92C573.714 698.261 574.65 698.761 575.483 699.42C576.316 700.072 577.013 700.867 577.574 701.807C578.134 702.739 578.521 703.803 578.733 705ZM588.06 721.409C586.954 721.409 585.95 721.201 585.048 720.784C584.147 720.36 583.431 719.75 582.901 718.955C582.37 718.152 582.105 717.182 582.105 716.045C582.105 715.045 582.302 714.235 582.696 713.614C583.09 712.985 583.616 712.492 584.276 712.136C584.935 711.78 585.662 711.515 586.457 711.341C587.26 711.159 588.067 711.015 588.878 710.909C589.938 710.773 590.798 710.67 591.457 710.602C592.124 710.527 592.609 710.402 592.912 710.227C593.223 710.053 593.378 709.75 593.378 709.318V709.227C593.378 708.106 593.071 707.235 592.457 706.614C591.851 705.992 590.931 705.682 589.696 705.682C588.416 705.682 587.412 705.962 586.685 706.523C585.957 707.083 585.446 707.682 585.151 708.318L582.605 707.409C583.06 706.348 583.666 705.523 584.423 704.932C585.188 704.333 586.022 703.917 586.923 703.682C587.832 703.439 588.726 703.318 589.605 703.318C590.166 703.318 590.81 703.386 591.537 703.523C592.272 703.652 592.98 703.92 593.662 704.33C594.351 704.739 594.923 705.356 595.378 706.182C595.832 707.008 596.06 708.114 596.06 709.5V721H593.378V718.636H593.241C593.06 719.015 592.757 719.42 592.332 719.852C591.908 720.284 591.344 720.652 590.639 720.955C589.935 721.258 589.075 721.409 588.06 721.409ZM588.469 719C589.529 719 590.423 718.792 591.151 718.375C591.885 717.958 592.438 717.42 592.81 716.761C593.188 716.102 593.378 715.409 593.378 714.682V712.227C593.264 712.364 593.014 712.489 592.628 712.602C592.249 712.708 591.81 712.803 591.31 712.886C590.817 712.962 590.336 713.03 589.866 713.091C589.404 713.144 589.029 713.189 588.741 713.227C588.045 713.318 587.393 713.466 586.787 713.67C586.188 713.867 585.704 714.167 585.332 714.568C584.969 714.962 584.787 715.5 584.787 716.182C584.787 717.114 585.132 717.818 585.821 718.295C586.518 718.765 587.401 719 588.469 719ZM600.955 721V703.545H603.545V706.182H603.727C604.045 705.318 604.621 704.617 605.455 704.08C606.288 703.542 607.227 703.273 608.273 703.273C608.47 703.273 608.716 703.277 609.011 703.284C609.307 703.292 609.53 703.303 609.682 703.318V706.045C609.591 706.023 609.383 705.989 609.057 705.943C608.739 705.89 608.402 705.864 608.045 705.864C607.197 705.864 606.439 706.042 605.773 706.398C605.114 706.746 604.591 707.231 604.205 707.852C603.826 708.466 603.636 709.167 603.636 709.955V721H600.955ZM618.92 721.364C617.466 721.364 616.182 720.996 615.068 720.261C613.955 719.519 613.083 718.473 612.455 717.125C611.826 715.769 611.511 714.167 611.511 712.318C611.511 710.485 611.826 708.894 612.455 707.545C613.083 706.197 613.958 705.155 615.08 704.42C616.201 703.686 617.496 703.318 618.966 703.318C620.102 703.318 621 703.508 621.659 703.886C622.326 704.258 622.833 704.682 623.182 705.159C623.538 705.629 623.814 706.015 624.011 706.318H624.239V697.727H626.92V721H624.33V718.318H624.011C623.814 718.636 623.534 719.038 623.17 719.523C622.807 720 622.288 720.428 621.614 720.807C620.939 721.178 620.042 721.364 618.92 721.364ZM619.284 718.955C620.36 718.955 621.269 718.674 622.011 718.114C622.754 717.545 623.318 716.761 623.705 715.761C624.091 714.754 624.284 713.591 624.284 712.273C624.284 710.97 624.095 709.83 623.716 708.852C623.337 707.867 622.777 707.102 622.034 706.557C621.292 706.004 620.375 705.727 619.284 705.727C618.148 705.727 617.201 706.019 616.443 706.602C615.693 707.178 615.129 707.962 614.75 708.955C614.379 709.939 614.193 711.045 614.193 712.273C614.193 713.515 614.383 714.644 614.761 715.659C615.148 716.667 615.716 717.47 616.466 718.068C617.223 718.659 618.163 718.955 619.284 718.955ZM644.568 707.455L642.159 708.136C642.008 707.735 641.784 707.345 641.489 706.966C641.201 706.58 640.807 706.261 640.307 706.011C639.807 705.761 639.167 705.636 638.386 705.636C637.318 705.636 636.428 705.883 635.716 706.375C635.011 706.86 634.659 707.477 634.659 708.227C634.659 708.894 634.902 709.42 635.386 709.807C635.871 710.193 636.629 710.515 637.659 710.773L640.25 711.409C641.811 711.788 642.973 712.367 643.739 713.148C644.504 713.92 644.886 714.917 644.886 716.136C644.886 717.136 644.598 718.03 644.023 718.818C643.455 719.606 642.659 720.227 641.636 720.682C640.614 721.136 639.424 721.364 638.068 721.364C636.288 721.364 634.814 720.977 633.648 720.205C632.481 719.432 631.742 718.303 631.432 716.818L633.977 716.182C634.22 717.121 634.678 717.826 635.352 718.295C636.034 718.765 636.924 719 638.023 719C639.273 719 640.265 718.735 641 718.205C641.742 717.667 642.114 717.023 642.114 716.273C642.114 715.667 641.902 715.159 641.477 714.75C641.053 714.333 640.402 714.023 639.523 713.818L636.614 713.136C635.015 712.758 633.841 712.17 633.091 711.375C632.348 710.572 631.977 709.568 631.977 708.364C631.977 707.379 632.254 706.508 632.807 705.75C633.367 704.992 634.129 704.398 635.091 703.966C636.061 703.534 637.159 703.318 638.386 703.318C640.114 703.318 641.47 703.697 642.455 704.455C643.447 705.212 644.152 706.212 644.568 707.455Z" fill="white"/>
</svg>
