<svg width="1175" height="1177" viewBox="0 0 1175 1177" fill="none" xmlns="http://www.w3.org/2000/svg">
<path d="M1158.17 0H16.8338C7.53675 0 0 6.59525 0 14.7309V1162.27C0 1170.4 7.53675 1177 16.8338 1177H1158.17C1167.46 1177 1175 1170.4 1175 1162.27V14.7309C1175 6.59525 1167.46 0 1158.17 0Z" fill="#D9D9D9"/>
<path d="M482 20H46C40.4772 20 36 24.4772 36 30V110C36 115.523 40.4772 120 46 120H482C487.523 120 492 115.523 492 110V30C492 24.4772 487.523 20 482 20Z" fill="#EBEBEB"/>
<path d="M78.3182 63H74.0909C73.8409 61.7841 73.4034 60.7159 72.7784 59.7955C72.1648 58.875 71.4148 58.1023 70.5284 57.4773C69.6534 56.8409 68.6818 56.3636 67.6136 56.0455C66.5455 55.7273 65.4318 55.5682 64.2727 55.5682C62.1591 55.5682 60.2443 56.1023 58.5284 57.1705C56.8239 58.2386 55.4659 59.8125 54.4545 61.892C53.4545 63.9716 52.9545 66.5227 52.9545 69.5455C52.9545 72.5682 53.4545 75.1193 54.4545 77.1989C55.4659 79.2784 56.8239 80.8523 58.5284 81.9205C60.2443 82.9886 62.1591 83.5227 64.2727 83.5227C65.4318 83.5227 66.5455 83.3636 67.6136 83.0455C68.6818 82.7273 69.6534 82.2557 70.5284 81.6307C71.4148 80.9943 72.1648 80.2159 72.7784 79.2955C73.4034 78.3636 73.8409 77.2955 74.0909 76.0909H78.3182C78 77.875 77.4205 79.4716 76.5795 80.8807C75.7386 82.2898 74.6932 83.4886 73.4432 84.4773C72.1932 85.4545 70.7898 86.1989 69.233 86.7102C67.6875 87.2216 66.0341 87.4773 64.2727 87.4773C61.2955 87.4773 58.6477 86.75 56.3295 85.2955C54.0114 83.8409 52.1875 81.7727 50.858 79.0909C49.5284 76.4091 48.8636 73.2273 48.8636 69.5455C48.8636 65.8636 49.5284 62.6818 50.858 60C52.1875 57.3182 54.0114 55.25 56.3295 53.7955C58.6477 52.3409 61.2955 51.6136 64.2727 51.6136C66.0341 51.6136 67.6875 51.8693 69.233 52.3807C70.7898 52.892 72.1932 53.642 73.4432 54.6307C74.6932 55.608 75.7386 56.8011 76.5795 58.2102C77.4205 59.608 78 61.2045 78.3182 63ZM84.6037 87V60.8182H88.4901V64.7727H88.7628C89.2401 63.4773 90.1037 62.4261 91.3537 61.6193C92.6037 60.8125 94.0128 60.4091 95.581 60.4091C95.8764 60.4091 96.2457 60.4148 96.6889 60.4261C97.1321 60.4375 97.4673 60.4545 97.6946 60.4773V64.5682C97.5582 64.5341 97.2457 64.483 96.7571 64.4148C96.2798 64.3352 95.7741 64.2955 95.2401 64.2955C93.9673 64.2955 92.831 64.5625 91.831 65.0966C90.8423 65.6193 90.0582 66.3466 89.4787 67.2784C88.9105 68.1989 88.6264 69.25 88.6264 70.4318V87H84.6037ZM112.643 87.5455C110.121 87.5455 107.945 86.9886 106.115 85.875C104.297 84.75 102.893 83.1818 101.905 81.1705C100.928 79.1477 100.439 76.7955 100.439 74.1136C100.439 71.4318 100.928 69.0682 101.905 67.0227C102.893 64.9659 104.268 63.3636 106.03 62.2159C107.803 61.0568 109.871 60.4773 112.234 60.4773C113.598 60.4773 114.945 60.7045 116.274 61.1591C117.604 61.6136 118.814 62.3523 119.905 63.375C120.996 64.3864 121.865 65.7273 122.513 67.3977C123.161 69.0682 123.484 71.125 123.484 73.5682V75.2727H103.303V71.7955H119.393C119.393 70.3182 119.098 69 118.507 67.8409C117.928 66.6818 117.098 65.767 116.018 65.0966C114.95 64.4261 113.689 64.0909 112.234 64.0909C110.632 64.0909 109.246 64.4886 108.075 65.2841C106.916 66.0682 106.024 67.0909 105.399 68.3523C104.774 69.6136 104.462 70.9659 104.462 72.4091V74.7273C104.462 76.7045 104.803 78.3807 105.484 79.7557C106.178 81.1193 107.138 82.1591 108.365 82.875C109.592 83.5795 111.018 83.9318 112.643 83.9318C113.7 83.9318 114.655 83.7841 115.507 83.4886C116.371 83.1818 117.115 82.7273 117.74 82.125C118.365 81.5114 118.848 80.75 119.189 79.8409L123.075 80.9318C122.666 82.25 121.979 83.4091 121.013 84.4091C120.047 85.3977 118.854 86.1705 117.433 86.7273C116.013 87.2727 114.416 87.5455 112.643 87.5455ZM137.308 87.6136C135.649 87.6136 134.143 87.3011 132.791 86.6761C131.439 86.0398 130.365 85.125 129.57 83.9318C128.774 82.7273 128.376 81.2727 128.376 79.5682C128.376 78.0682 128.672 76.8523 129.263 75.9205C129.854 74.9773 130.643 74.2386 131.632 73.7045C132.621 73.1705 133.712 72.7727 134.905 72.5114C136.109 72.2386 137.32 72.0227 138.536 71.8636C140.126 71.6591 141.416 71.5057 142.405 71.4034C143.405 71.2898 144.132 71.1023 144.587 70.8409C145.053 70.5795 145.286 70.125 145.286 69.4773V69.3409C145.286 67.6591 144.825 66.3523 143.905 65.4205C142.996 64.4886 141.615 64.0227 139.763 64.0227C137.842 64.0227 136.337 64.4432 135.246 65.2841C134.155 66.125 133.388 67.0227 132.945 67.9773L129.126 66.6136C129.808 65.0227 130.717 63.7841 131.854 62.8977C133.001 62 134.251 61.375 135.604 61.0227C136.967 60.6591 138.308 60.4773 139.626 60.4773C140.467 60.4773 141.433 60.5795 142.524 60.7841C143.626 60.9773 144.689 61.3807 145.712 61.9943C146.746 62.608 147.604 63.5341 148.286 64.7727C148.967 66.0114 149.308 67.6705 149.308 69.75V87H145.286V83.4545H145.081C144.808 84.0227 144.354 84.6307 143.717 85.2784C143.081 85.9261 142.234 86.4773 141.178 86.9318C140.121 87.3864 138.831 87.6136 137.308 87.6136ZM137.922 84C139.513 84 140.854 83.6875 141.945 83.0625C143.047 82.4375 143.876 81.6307 144.433 80.642C145.001 79.6534 145.286 78.6136 145.286 77.5227V73.8409C145.115 74.0455 144.74 74.233 144.161 74.4034C143.592 74.5625 142.933 74.7045 142.183 74.8295C141.445 74.9432 140.723 75.0455 140.018 75.1364C139.325 75.2159 138.763 75.2841 138.331 75.3409C137.286 75.4773 136.308 75.6989 135.399 76.0057C134.501 76.3011 133.774 76.75 133.217 77.3523C132.672 77.9432 132.399 78.75 132.399 79.7727C132.399 81.1705 132.916 82.2273 133.95 82.9432C134.996 83.6477 136.32 84 137.922 84ZM168.037 60.8182V64.2273H154.469V60.8182H168.037ZM158.423 54.5455H162.446V79.5C162.446 80.6364 162.611 81.4886 162.94 82.0568C163.281 82.6136 163.713 82.9886 164.236 83.1818C164.77 83.3636 165.332 83.4545 165.923 83.4545C166.366 83.4545 166.73 83.4318 167.014 83.3864C167.298 83.3295 167.526 83.2841 167.696 83.25L168.514 86.8636C168.241 86.9659 167.861 87.0682 167.372 87.1705C166.884 87.2841 166.264 87.3409 165.514 87.3409C164.378 87.3409 163.264 87.0966 162.173 86.608C161.094 86.1193 160.196 85.375 159.48 84.375C158.776 83.375 158.423 82.1136 158.423 80.5909V54.5455ZM184.784 87.5455C182.261 87.5455 180.085 86.9886 178.256 85.875C176.438 84.75 175.034 83.1818 174.045 81.1705C173.068 79.1477 172.58 76.7955 172.58 74.1136C172.58 71.4318 173.068 69.0682 174.045 67.0227C175.034 64.9659 176.409 63.3636 178.17 62.2159C179.943 61.0568 182.011 60.4773 184.375 60.4773C185.739 60.4773 187.085 60.7045 188.415 61.1591C189.744 61.6136 190.955 62.3523 192.045 63.375C193.136 64.3864 194.006 65.7273 194.653 67.3977C195.301 69.0682 195.625 71.125 195.625 73.5682V75.2727H175.443V71.7955H191.534C191.534 70.3182 191.239 69 190.648 67.8409C190.068 66.6818 189.239 65.767 188.159 65.0966C187.091 64.4261 185.83 64.0909 184.375 64.0909C182.773 64.0909 181.386 64.4886 180.216 65.2841C179.057 66.0682 178.165 67.0909 177.54 68.3523C176.915 69.6136 176.602 70.9659 176.602 72.4091V74.7273C176.602 76.7045 176.943 78.3807 177.625 79.7557C178.318 81.1193 179.278 82.1591 180.506 82.875C181.733 83.5795 183.159 83.9318 184.784 83.9318C185.841 83.9318 186.795 83.7841 187.648 83.4886C188.511 83.1818 189.256 82.7273 189.881 82.125C190.506 81.5114 190.989 80.75 191.33 79.8409L195.216 80.9318C194.807 82.25 194.119 83.4091 193.153 84.4091C192.188 85.3977 190.994 86.1705 189.574 86.7273C188.153 87.2727 186.557 87.5455 184.784 87.5455ZM222.949 87.6136C221.29 87.6136 219.784 87.3011 218.432 86.6761C217.08 86.0398 216.006 85.125 215.21 83.9318C214.415 82.7273 214.017 81.2727 214.017 79.5682C214.017 78.0682 214.313 76.8523 214.903 75.9205C215.494 74.9773 216.284 74.2386 217.273 73.7045C218.261 73.1705 219.352 72.7727 220.545 72.5114C221.75 72.2386 222.96 72.0227 224.176 71.8636C225.767 71.6591 227.057 71.5057 228.045 71.4034C229.045 71.2898 229.773 71.1023 230.227 70.8409C230.693 70.5795 230.926 70.125 230.926 69.4773V69.3409C230.926 67.6591 230.466 66.3523 229.545 65.4205C228.636 64.4886 227.256 64.0227 225.403 64.0227C223.483 64.0227 221.977 64.4432 220.886 65.2841C219.795 66.125 219.028 67.0227 218.585 67.9773L214.767 66.6136C215.449 65.0227 216.358 63.7841 217.494 62.8977C218.642 62 219.892 61.375 221.244 61.0227C222.608 60.6591 223.949 60.4773 225.267 60.4773C226.108 60.4773 227.074 60.5795 228.165 60.7841C229.267 60.9773 230.33 61.3807 231.352 61.9943C232.386 62.608 233.244 63.5341 233.926 64.7727C234.608 66.0114 234.949 67.6705 234.949 69.75V87H230.926V83.4545H230.722C230.449 84.0227 229.994 84.6307 229.358 85.2784C228.722 85.9261 227.875 86.4773 226.818 86.9318C225.761 87.3864 224.472 87.6136 222.949 87.6136ZM223.562 84C225.153 84 226.494 83.6875 227.585 83.0625C228.688 82.4375 229.517 81.6307 230.074 80.642C230.642 79.6534 230.926 78.6136 230.926 77.5227V73.8409C230.756 74.0455 230.381 74.233 229.801 74.4034C229.233 74.5625 228.574 74.7045 227.824 74.8295C227.085 74.9432 226.364 75.0455 225.659 75.1364C224.966 75.2159 224.403 75.2841 223.972 75.3409C222.926 75.4773 221.949 75.6989 221.04 76.0057C220.142 76.3011 219.415 76.75 218.858 77.3523C218.313 77.9432 218.04 78.75 218.04 79.7727C218.04 81.1705 218.557 82.2273 219.591 82.9432C220.636 83.6477 221.96 84 223.562 84ZM259.814 71.25V87H255.791V60.8182H259.678V64.9091H260.018C260.632 63.5795 261.564 62.5114 262.814 61.7045C264.064 60.8864 265.678 60.4773 267.655 60.4773C269.428 60.4773 270.979 60.8409 272.308 61.5682C273.638 62.2841 274.672 63.375 275.411 64.8409C276.149 66.2955 276.518 68.1364 276.518 70.3636V87H272.496V70.6364C272.496 68.5795 271.962 66.9773 270.893 65.8295C269.825 64.6705 268.359 64.0909 266.496 64.0909C265.212 64.0909 264.064 64.3693 263.053 64.9261C262.053 65.483 261.263 66.2955 260.683 67.3636C260.104 68.4318 259.814 69.7273 259.814 71.25ZM294.847 87.5455C292.324 87.5455 290.148 86.9886 288.318 85.875C286.5 84.75 285.097 83.1818 284.108 81.1705C283.131 79.1477 282.642 76.7955 282.642 74.1136C282.642 71.4318 283.131 69.0682 284.108 67.0227C285.097 64.9659 286.472 63.3636 288.233 62.2159C290.006 61.0568 292.074 60.4773 294.438 60.4773C295.801 60.4773 297.148 60.7045 298.477 61.1591C299.807 61.6136 301.017 62.3523 302.108 63.375C303.199 64.3864 304.068 65.7273 304.716 67.3977C305.364 69.0682 305.688 71.125 305.688 73.5682V75.2727H285.506V71.7955H301.597C301.597 70.3182 301.301 69 300.71 67.8409C300.131 66.6818 299.301 65.767 298.222 65.0966C297.153 64.4261 295.892 64.0909 294.438 64.0909C292.835 64.0909 291.449 64.4886 290.278 65.2841C289.119 66.0682 288.227 67.0909 287.602 68.3523C286.977 69.6136 286.665 70.9659 286.665 72.4091V74.7273C286.665 76.7045 287.006 78.3807 287.688 79.7557C288.381 81.1193 289.341 82.1591 290.568 82.875C291.795 83.5795 293.222 83.9318 294.847 83.9318C295.903 83.9318 296.858 83.7841 297.71 83.4886C298.574 83.1818 299.318 82.7273 299.943 82.125C300.568 81.5114 301.051 80.75 301.392 79.8409L305.278 80.9318C304.869 82.25 304.182 83.4091 303.216 84.4091C302.25 85.3977 301.057 86.1705 299.636 86.7273C298.216 87.2727 296.619 87.5455 294.847 87.5455ZM317.739 87L309.761 60.8182H313.989L319.648 80.8636H319.92L325.511 60.8182H329.807L335.33 80.7955H335.602L341.261 60.8182H345.489L337.511 87H333.557L327.83 66.8864H327.42L321.693 87H317.739ZM375.625 87H364.852V52.0909H376.102C379.489 52.0909 382.386 52.7898 384.795 54.1875C387.205 55.5739 389.051 57.5682 390.335 60.1705C391.619 62.7614 392.261 65.8636 392.261 69.4773C392.261 73.1136 391.614 76.2443 390.318 78.8693C389.023 81.483 387.136 83.4943 384.659 84.9034C382.182 86.3011 379.17 87 375.625 87ZM369.08 83.25H375.352C378.239 83.25 380.631 82.6932 382.528 81.5795C384.426 80.4659 385.841 78.8807 386.773 76.8239C387.705 74.767 388.17 72.3182 388.17 69.4773C388.17 66.6591 387.71 64.233 386.79 62.1989C385.869 60.1534 384.494 58.5852 382.665 57.4943C380.835 56.392 378.557 55.8409 375.83 55.8409H369.08V83.25ZM409.784 87.5455C407.261 87.5455 405.085 86.9886 403.256 85.875C401.438 84.75 400.034 83.1818 399.045 81.1705C398.068 79.1477 397.58 76.7955 397.58 74.1136C397.58 71.4318 398.068 69.0682 399.045 67.0227C400.034 64.9659 401.409 63.3636 403.17 62.2159C404.943 61.0568 407.011 60.4773 409.375 60.4773C410.739 60.4773 412.085 60.7045 413.415 61.1591C414.744 61.6136 415.955 62.3523 417.045 63.375C418.136 64.3864 419.006 65.7273 419.653 67.3977C420.301 69.0682 420.625 71.125 420.625 73.5682V75.2727H400.443V71.7955H416.534C416.534 70.3182 416.239 69 415.648 67.8409C415.068 66.6818 414.239 65.767 413.159 65.0966C412.091 64.4261 410.83 64.0909 409.375 64.0909C407.773 64.0909 406.386 64.4886 405.216 65.2841C404.057 66.0682 403.165 67.0909 402.54 68.3523C401.915 69.6136 401.602 70.9659 401.602 72.4091V74.7273C401.602 76.7045 401.943 78.3807 402.625 79.7557C403.318 81.1193 404.278 82.1591 405.506 82.875C406.733 83.5795 408.159 83.9318 409.784 83.9318C410.841 83.9318 411.795 83.7841 412.648 83.4886C413.511 83.1818 414.256 82.7273 414.881 82.125C415.506 81.5114 415.989 80.75 416.33 79.8409L420.216 80.9318C419.807 82.25 419.119 83.4091 418.153 84.4091C417.188 85.3977 415.994 86.1705 414.574 86.7273C413.153 87.2727 411.557 87.5455 409.784 87.5455ZM437.381 87.5455C434.926 87.5455 432.813 86.9659 431.04 85.8068C429.267 84.6477 427.903 83.0511 426.949 81.017C425.994 78.983 425.517 76.6591 425.517 74.0455C425.517 71.3864 426.006 69.0398 426.983 67.0057C427.972 64.9602 429.347 63.3636 431.108 62.2159C432.881 61.0568 434.949 60.4773 437.312 60.4773C439.153 60.4773 440.812 60.8182 442.29 61.5C443.767 62.1818 444.977 63.1364 445.92 64.3636C446.864 65.5909 447.449 67.0227 447.676 68.6591H443.653C443.347 67.4659 442.665 66.4091 441.608 65.4886C440.563 64.5568 439.153 64.0909 437.381 64.0909C435.813 64.0909 434.438 64.5 433.256 65.3182C432.085 66.125 431.17 67.267 430.511 68.7443C429.864 70.2102 429.54 71.9318 429.54 73.9091C429.54 75.9318 429.858 77.6932 430.494 79.1932C431.142 80.6932 432.051 81.858 433.222 82.6875C434.403 83.517 435.79 83.9318 437.381 83.9318C438.426 83.9318 439.375 83.75 440.227 83.3864C441.08 83.0227 441.801 82.5 442.392 81.8182C442.983 81.1364 443.403 80.3182 443.653 79.3636H447.676C447.449 80.9091 446.886 82.3011 445.989 83.5398C445.102 84.767 443.926 85.7443 442.46 86.4716C441.006 87.1875 439.313 87.5455 437.381 87.5455ZM457.307 77.4545L457.239 72.4773H458.057L469.511 60.8182H474.489L462.284 73.1591H461.943L457.307 77.4545ZM453.557 87V52.0909H457.58V87H453.557ZM470.193 87L459.966 74.0455L462.83 71.25L475.307 87H470.193Z" fill="#A6A6A6"/>
<path d="M638 266H46C40.4772 266 36 270.477 36 276V356C36 361.523 40.4772 366 46 366H638C643.523 366 648 361.523 648 356V276C648 270.477 643.523 266 638 266Z" fill="white"/>
<path d="M47.25 257H39.1705V230.818H47.608C50.1477 230.818 52.321 231.342 54.1278 232.391C55.9347 233.43 57.3196 234.926 58.2827 236.878C59.2457 238.821 59.7273 241.148 59.7273 243.858C59.7273 246.585 59.2415 248.933 58.2699 250.902C57.2983 252.862 55.8835 254.371 54.0256 255.428C52.1676 256.476 49.9091 257 47.25 257ZM42.3409 254.188H47.0455C49.2102 254.188 51.0043 253.77 52.4276 252.935C53.8509 252.099 54.9119 250.911 55.6108 249.368C56.3097 247.825 56.6591 245.989 56.6591 243.858C56.6591 241.744 56.3139 239.925 55.6236 238.399C54.9332 236.865 53.902 235.689 52.5298 234.871C51.1577 234.044 49.4489 233.631 47.4034 233.631H42.3409V254.188ZM72.8693 257.409C70.9773 257.409 69.3452 256.991 67.973 256.156C66.6094 255.312 65.5568 254.136 64.8153 252.628C64.0824 251.111 63.7159 249.347 63.7159 247.335C63.7159 245.324 64.0824 243.551 64.8153 242.017C65.5568 240.474 66.5881 239.273 67.9091 238.412C69.2386 237.543 70.7898 237.108 72.5625 237.108C73.5852 237.108 74.5952 237.278 75.5923 237.619C76.5895 237.96 77.4972 238.514 78.3153 239.281C79.1335 240.04 79.7855 241.045 80.2713 242.298C80.7571 243.551 81 245.094 81 246.926V248.205H65.8636V245.597H77.9318C77.9318 244.489 77.7102 243.5 77.267 242.631C76.8324 241.761 76.2102 241.075 75.4006 240.572C74.5994 240.07 73.6534 239.818 72.5625 239.818C71.3608 239.818 70.321 240.116 69.4432 240.713C68.5739 241.301 67.9048 242.068 67.4361 243.014C66.9673 243.96 66.733 244.974 66.733 246.057V247.795C66.733 249.278 66.9886 250.536 67.5 251.567C68.0199 252.589 68.7401 253.369 69.6605 253.906C70.581 254.435 71.6506 254.699 72.8693 254.699C73.6619 254.699 74.3778 254.588 75.017 254.366C75.6648 254.136 76.223 253.795 76.6918 253.344C77.1605 252.884 77.5227 252.312 77.7784 251.631L80.6932 252.449C80.3864 253.438 79.8707 254.307 79.1463 255.057C78.4219 255.798 77.527 256.378 76.4616 256.795C75.3963 257.205 74.1989 257.409 72.8693 257.409ZM93.5668 257.409C91.7259 257.409 90.1406 256.974 88.8111 256.105C87.4815 255.236 86.4588 254.038 85.7429 252.513C85.027 250.987 84.669 249.244 84.669 247.284C84.669 245.29 85.0355 243.53 85.7685 242.004C86.5099 240.47 87.5412 239.273 88.8622 238.412C90.1918 237.543 91.7429 237.108 93.5156 237.108C94.8963 237.108 96.1406 237.364 97.2486 237.875C98.3565 238.386 99.2642 239.102 99.9716 240.023C100.679 240.943 101.118 242.017 101.288 243.244H98.2713C98.0412 242.349 97.5298 241.557 96.7372 240.866C95.9531 240.168 94.8963 239.818 93.5668 239.818C92.3906 239.818 91.3594 240.125 90.473 240.739C89.5952 241.344 88.9091 242.2 88.4148 243.308C87.929 244.408 87.6861 245.699 87.6861 247.182C87.6861 248.699 87.9247 250.02 88.402 251.145C88.8878 252.27 89.5696 253.143 90.4474 253.766C91.3338 254.388 92.3736 254.699 93.5668 254.699C94.3509 254.699 95.0625 254.562 95.7017 254.29C96.3409 254.017 96.8821 253.625 97.3253 253.114C97.7685 252.602 98.0838 251.989 98.2713 251.273H101.288C101.118 252.432 100.696 253.476 100.023 254.405C99.358 255.325 98.4759 256.058 97.3764 256.604C96.2855 257.141 95.0156 257.409 93.5668 257.409ZM108.511 249.841L108.46 246.108H109.074L117.665 237.364H121.398L112.244 246.619H111.989L108.511 249.841ZM105.699 257V230.818H108.716V257H105.699ZM118.176 257L110.506 247.284L112.653 245.188L122.011 257H118.176ZM156.576 230.818V257H153.508L139.241 236.443H138.985V257H135.815V230.818H138.883L153.201 251.426H153.457V230.818H156.576ZM168.29 257.46C167.045 257.46 165.916 257.226 164.902 256.757C163.888 256.28 163.082 255.594 162.486 254.699C161.889 253.795 161.591 252.705 161.591 251.426C161.591 250.301 161.813 249.389 162.256 248.69C162.699 247.983 163.291 247.429 164.033 247.028C164.774 246.628 165.592 246.33 166.487 246.134C167.391 245.929 168.298 245.767 169.21 245.648C170.403 245.494 171.371 245.379 172.112 245.303C172.862 245.217 173.408 245.077 173.749 244.881C174.098 244.685 174.273 244.344 174.273 243.858V243.756C174.273 242.494 173.928 241.514 173.237 240.815C172.555 240.116 171.52 239.767 170.131 239.767C168.69 239.767 167.561 240.082 166.743 240.713C165.925 241.344 165.349 242.017 165.017 242.733L162.153 241.71C162.665 240.517 163.347 239.588 164.199 238.923C165.06 238.25 165.997 237.781 167.011 237.517C168.034 237.244 169.04 237.108 170.028 237.108C170.659 237.108 171.384 237.185 172.202 237.338C173.028 237.483 173.825 237.786 174.592 238.246C175.368 238.706 176.011 239.401 176.523 240.33C177.034 241.259 177.29 242.503 177.29 244.062V257H174.273V254.341H174.119C173.915 254.767 173.574 255.223 173.097 255.709C172.619 256.195 171.984 256.608 171.192 256.949C170.399 257.29 169.432 257.46 168.29 257.46ZM168.75 254.75C169.943 254.75 170.949 254.516 171.767 254.047C172.594 253.578 173.216 252.973 173.634 252.232C174.06 251.49 174.273 250.71 174.273 249.892V247.131C174.145 247.284 173.864 247.425 173.429 247.553C173.003 247.672 172.509 247.778 171.946 247.872C171.392 247.957 170.851 248.034 170.322 248.102C169.803 248.162 169.381 248.213 169.057 248.256C168.273 248.358 167.54 248.524 166.858 248.754C166.185 248.976 165.639 249.312 165.222 249.764C164.813 250.207 164.608 250.812 164.608 251.58C164.608 252.628 164.996 253.42 165.771 253.957C166.555 254.486 167.548 254.75 168.75 254.75ZM182.797 257V237.364H185.711V240.432H185.967C186.376 239.384 187.037 238.57 187.949 237.99C188.86 237.402 189.956 237.108 191.234 237.108C192.529 237.108 193.608 237.402 194.468 237.99C195.338 238.57 196.015 239.384 196.501 240.432H196.706C197.208 239.418 197.963 238.612 198.968 238.016C199.974 237.411 201.18 237.108 202.586 237.108C204.342 237.108 205.778 237.658 206.895 238.757C208.011 239.848 208.569 241.548 208.569 243.858V257H205.552V243.858C205.552 242.409 205.156 241.374 204.363 240.751C203.571 240.129 202.637 239.818 201.564 239.818C200.183 239.818 199.113 240.236 198.355 241.071C197.596 241.898 197.217 242.946 197.217 244.216V257H194.149V243.551C194.149 242.435 193.787 241.536 193.062 240.854C192.338 240.163 191.404 239.818 190.262 239.818C189.478 239.818 188.745 240.027 188.064 240.445C187.39 240.862 186.845 241.442 186.427 242.183C186.018 242.916 185.814 243.764 185.814 244.727V257H182.797ZM222.319 257.409C220.426 257.409 218.794 256.991 217.422 256.156C216.059 255.312 215.006 254.136 214.265 252.628C213.532 251.111 213.165 249.347 213.165 247.335C213.165 245.324 213.532 243.551 214.265 242.017C215.006 240.474 216.037 239.273 217.358 238.412C218.688 237.543 220.239 237.108 222.012 237.108C223.034 237.108 224.044 237.278 225.042 237.619C226.039 237.96 226.946 238.514 227.765 239.281C228.583 240.04 229.235 241.045 229.721 242.298C230.206 243.551 230.449 245.094 230.449 246.926V248.205H215.313V245.597H227.381C227.381 244.489 227.159 243.5 226.716 242.631C226.282 241.761 225.659 241.075 224.85 240.572C224.049 240.07 223.103 239.818 222.012 239.818C220.81 239.818 219.77 240.116 218.892 240.713C218.023 241.301 217.354 242.068 216.885 243.014C216.417 243.96 216.182 244.974 216.182 246.057V247.795C216.182 249.278 216.438 250.536 216.949 251.567C217.469 252.589 218.189 253.369 219.11 253.906C220.03 254.435 221.1 254.699 222.319 254.699C223.111 254.699 223.827 254.588 224.466 254.366C225.114 254.136 225.672 253.795 226.141 253.344C226.61 252.884 226.972 252.312 227.228 251.631L230.142 252.449C229.836 253.438 229.32 254.307 228.596 255.057C227.871 255.798 226.976 256.378 225.911 256.795C224.846 257.205 223.648 257.409 222.319 257.409ZM237.238 257.205C236.607 257.205 236.066 256.979 235.614 256.527C235.162 256.075 234.936 255.534 234.936 254.903C234.936 254.273 235.162 253.732 235.614 253.28C236.066 252.828 236.607 252.602 237.238 252.602C237.868 252.602 238.409 252.828 238.861 253.28C239.313 253.732 239.539 254.273 239.539 254.903C239.539 255.321 239.432 255.705 239.219 256.054C239.015 256.403 238.738 256.685 238.388 256.898C238.047 257.102 237.664 257.205 237.238 257.205ZM237.238 242.631C236.607 242.631 236.066 242.405 235.614 241.953C235.162 241.501 234.936 240.96 234.936 240.33C234.936 239.699 235.162 239.158 235.614 238.706C236.066 238.254 236.607 238.028 237.238 238.028C237.868 238.028 238.409 238.254 238.861 238.706C239.313 239.158 239.539 239.699 239.539 240.33C239.539 240.747 239.432 241.131 239.219 241.48C239.015 241.83 238.738 242.111 238.388 242.324C238.047 242.528 237.664 242.631 237.238 242.631Z" fill="#A6A6A6"/>
<path d="M919.087 1071H781.913C778.647 1071 776 1075.48 776 1081V1135C776 1140.52 778.647 1145 781.913 1145H919.087C922.353 1145 925 1140.52 925 1135V1081C925 1075.48 922.353 1071 919.087 1071Z" fill="#66BB6A"/>
<path d="M822.432 1101.18C822.261 1099.74 821.57 1098.62 820.358 1097.83C819.146 1097.03 817.659 1096.64 815.898 1096.64C814.61 1096.64 813.483 1096.84 812.517 1097.26C811.561 1097.68 810.813 1098.25 810.273 1098.98C809.742 1099.71 809.477 1100.54 809.477 1101.47C809.477 1102.24 809.662 1102.91 810.031 1103.47C810.41 1104.02 810.893 1104.48 811.48 1104.85C812.067 1105.21 812.683 1105.5 813.327 1105.74C813.971 1105.97 814.562 1106.15 815.102 1106.3L818.057 1107.09C818.814 1107.29 819.657 1107.56 820.585 1107.91C821.523 1108.27 822.418 1108.74 823.27 1109.35C824.132 1109.95 824.842 1110.71 825.401 1111.65C825.959 1112.59 826.239 1113.74 826.239 1115.1C826.239 1116.67 825.827 1118.09 825.003 1119.36C824.188 1120.63 822.995 1121.64 821.423 1122.39C819.861 1123.14 817.962 1123.51 815.727 1123.51C813.644 1123.51 811.84 1123.18 810.315 1122.5C808.8 1121.83 807.607 1120.89 806.736 1119.69C805.874 1118.49 805.386 1117.09 805.273 1115.5H808.909C809.004 1116.6 809.373 1117.51 810.017 1118.23C810.67 1118.94 811.494 1119.47 812.489 1119.82C813.492 1120.16 814.572 1120.33 815.727 1120.33C817.072 1120.33 818.279 1120.11 819.349 1119.68C820.42 1119.23 821.267 1118.62 821.892 1117.83C822.517 1117.03 822.83 1116.11 822.83 1115.05C822.83 1114.08 822.56 1113.29 822.02 1112.69C821.48 1112.08 820.77 1111.59 819.889 1111.21C819.009 1110.83 818.057 1110.5 817.034 1110.22L813.455 1109.19C811.182 1108.54 809.383 1107.61 808.057 1106.39C806.731 1105.18 806.068 1103.6 806.068 1101.64C806.068 1100.01 806.509 1098.59 807.389 1097.38C808.279 1096.15 809.473 1095.21 810.969 1094.53C812.474 1093.85 814.155 1093.51 816.011 1093.51C817.886 1093.51 819.553 1093.85 821.011 1094.52C822.47 1095.18 823.625 1096.09 824.477 1097.25C825.339 1098.4 825.794 1099.71 825.841 1101.18H822.432ZM837.996 1123.51C836.614 1123.51 835.359 1123.25 834.232 1122.73C833.105 1122.2 832.21 1121.44 831.548 1120.44C830.885 1119.44 830.553 1118.23 830.553 1116.81C830.553 1115.56 830.799 1114.54 831.292 1113.77C831.784 1112.98 832.442 1112.37 833.266 1111.92C834.09 1111.48 834.999 1111.14 835.994 1110.93C836.997 1110.7 838.006 1110.52 839.019 1110.39C840.345 1110.22 841.42 1110.09 842.244 1110C843.077 1109.91 843.683 1109.75 844.062 1109.53C844.45 1109.32 844.644 1108.94 844.644 1108.4V1108.28C844.644 1106.88 844.261 1105.79 843.494 1105.02C842.736 1104.24 841.585 1103.85 840.042 1103.85C838.442 1103.85 837.187 1104.2 836.278 1104.9C835.369 1105.6 834.729 1106.35 834.36 1107.15L831.178 1106.01C831.746 1104.69 832.504 1103.65 833.451 1102.91C834.407 1102.17 835.449 1101.65 836.576 1101.35C837.712 1101.05 838.83 1100.9 839.928 1100.9C840.629 1100.9 841.434 1100.98 842.343 1101.15C843.262 1101.31 844.147 1101.65 844.999 1102.16C845.861 1102.67 846.576 1103.45 847.144 1104.48C847.712 1105.51 847.996 1106.89 847.996 1108.62V1123H844.644V1120.05H844.474C844.246 1120.52 843.868 1121.03 843.337 1121.57C842.807 1122.11 842.102 1122.56 841.221 1122.94C840.34 1123.32 839.265 1123.51 837.996 1123.51ZM838.508 1120.5C839.834 1120.5 840.951 1120.24 841.86 1119.72C842.779 1119.2 843.47 1118.53 843.934 1117.7C844.407 1116.88 844.644 1116.01 844.644 1115.1V1112.03C844.502 1112.2 844.19 1112.36 843.707 1112.5C843.233 1112.64 842.684 1112.75 842.059 1112.86C841.443 1112.95 840.842 1113.04 840.255 1113.11C839.677 1113.18 839.209 1113.24 838.849 1113.28C837.978 1113.4 837.163 1113.58 836.406 1113.84C835.657 1114.08 835.051 1114.46 834.587 1114.96C834.133 1115.45 833.906 1116.12 833.906 1116.98C833.906 1118.14 834.336 1119.02 835.198 1119.62C836.069 1120.21 837.173 1120.5 838.508 1120.5ZM871.175 1101.18L863.107 1123H859.697L851.629 1101.18H855.266L861.288 1118.57H861.516L867.538 1101.18H871.175ZM883.966 1123.45C881.864 1123.45 880.05 1122.99 878.526 1122.06C877.01 1121.12 875.841 1119.82 875.017 1118.14C874.203 1116.46 873.795 1114.5 873.795 1112.26C873.795 1110.03 874.203 1108.06 875.017 1106.35C875.841 1104.64 876.987 1103.3 878.455 1102.35C879.932 1101.38 881.655 1100.9 883.625 1100.9C884.761 1100.9 885.884 1101.09 886.991 1101.47C888.099 1101.84 889.108 1102.46 890.017 1103.31C890.926 1104.16 891.651 1105.27 892.19 1106.66C892.73 1108.06 893 1109.77 893 1111.81V1113.23H876.182V1110.33H889.591C889.591 1109.1 889.345 1108 888.852 1107.03C888.369 1106.07 887.678 1105.31 886.778 1104.75C885.888 1104.19 884.837 1103.91 883.625 1103.91C882.29 1103.91 881.134 1104.24 880.159 1104.9C879.193 1105.56 878.45 1106.41 877.929 1107.46C877.408 1108.51 877.148 1109.64 877.148 1110.84V1112.77C877.148 1114.42 877.432 1115.82 878 1116.96C878.578 1118.1 879.378 1118.97 880.401 1119.56C881.423 1120.15 882.612 1120.44 883.966 1120.44C884.847 1120.44 885.642 1120.32 886.352 1120.07C887.072 1119.82 887.692 1119.44 888.213 1118.94C888.734 1118.43 889.136 1117.79 889.42 1117.03L892.659 1117.94C892.318 1119.04 891.745 1120.01 890.94 1120.84C890.135 1121.66 889.141 1122.31 887.957 1122.77C886.774 1123.23 885.443 1123.45 883.966 1123.45Z" fill="white"/>
<path d="M1125.58 1067H955.419C952.426 1067 950 1071.48 950 1077V1131C950 1136.52 952.426 1141 955.419 1141H1125.58C1128.57 1141 1131 1136.52 1131 1131V1077C1131 1071.48 1128.57 1067 1125.58 1067Z" fill="#A6A6A6"/>
<path d="M999.932 1100H996.409C996.201 1098.99 995.836 1098.1 995.315 1097.33C994.804 1096.56 994.179 1095.92 993.44 1095.4C992.711 1094.87 991.902 1094.47 991.011 1094.2C990.121 1093.94 989.193 1093.81 988.227 1093.81C986.466 1093.81 984.87 1094.25 983.44 1095.14C982.02 1096.03 980.888 1097.34 980.045 1099.08C979.212 1100.81 978.795 1102.94 978.795 1105.45C978.795 1107.97 979.212 1110.1 980.045 1111.83C980.888 1113.57 982.02 1114.88 983.44 1115.77C984.87 1116.66 986.466 1117.1 988.227 1117.1C989.193 1117.1 990.121 1116.97 991.011 1116.7C991.902 1116.44 992.711 1116.05 993.44 1115.53C994.179 1115 994.804 1114.35 995.315 1113.58C995.836 1112.8 996.201 1111.91 996.409 1110.91H999.932C999.667 1112.4 999.184 1113.73 998.483 1114.9C997.782 1116.07 996.911 1117.07 995.869 1117.9C994.828 1118.71 993.658 1119.33 992.361 1119.76C991.073 1120.18 989.695 1120.4 988.227 1120.4C985.746 1120.4 983.54 1119.79 981.608 1118.58C979.676 1117.37 978.156 1115.64 977.048 1113.41C975.94 1111.17 975.386 1108.52 975.386 1105.45C975.386 1102.39 975.94 1099.73 977.048 1097.5C978.156 1095.27 979.676 1093.54 981.608 1092.33C983.54 1091.12 985.746 1090.51 988.227 1090.51C989.695 1090.51 991.073 1090.72 992.361 1091.15C993.658 1091.58 994.828 1092.2 995.869 1093.03C996.911 1093.84 997.782 1094.83 998.483 1096.01C999.184 1097.17 999.667 1098.5 999.932 1100ZM1011.59 1120.51C1010.21 1120.51 1008.95 1120.25 1007.83 1119.73C1006.7 1119.2 1005.8 1118.44 1005.14 1117.44C1004.48 1116.44 1004.15 1115.23 1004.15 1113.81C1004.15 1112.56 1004.39 1111.54 1004.89 1110.77C1005.38 1109.98 1006.04 1109.37 1006.86 1108.92C1007.68 1108.48 1008.59 1108.14 1009.59 1107.93C1010.59 1107.7 1011.6 1107.52 1012.61 1107.39C1013.94 1107.22 1015.01 1107.09 1015.84 1107C1016.67 1106.91 1017.28 1106.75 1017.66 1106.53C1018.04 1106.32 1018.24 1105.94 1018.24 1105.4V1105.28C1018.24 1103.88 1017.85 1102.79 1017.09 1102.02C1016.33 1101.24 1015.18 1100.85 1013.64 1100.85C1012.04 1100.85 1010.78 1101.2 1009.87 1101.9C1008.96 1102.6 1008.32 1103.35 1007.95 1104.15L1004.77 1103.01C1005.34 1101.69 1006.1 1100.65 1007.04 1099.91C1008 1099.17 1009.04 1098.65 1010.17 1098.35C1011.31 1098.05 1012.42 1097.9 1013.52 1097.9C1014.22 1097.9 1015.03 1097.98 1015.94 1098.15C1016.86 1098.31 1017.74 1098.65 1018.59 1099.16C1019.45 1099.67 1020.17 1100.45 1020.74 1101.48C1021.31 1102.51 1021.59 1103.89 1021.59 1105.62V1120H1018.24V1117.05H1018.07C1017.84 1117.52 1017.46 1118.03 1016.93 1118.57C1016.4 1119.11 1015.7 1119.56 1014.81 1119.94C1013.93 1120.32 1012.86 1120.51 1011.59 1120.51ZM1012.1 1117.5C1013.43 1117.5 1014.54 1117.24 1015.45 1116.72C1016.37 1116.2 1017.06 1115.53 1017.53 1114.7C1018 1113.88 1018.24 1113.01 1018.24 1112.1V1109.03C1018.1 1109.2 1017.78 1109.36 1017.3 1109.5C1016.83 1109.64 1016.28 1109.75 1015.65 1109.86C1015.04 1109.95 1014.44 1110.04 1013.85 1110.11C1013.27 1110.18 1012.8 1110.24 1012.44 1110.28C1011.57 1110.4 1010.76 1110.58 1010 1110.84C1009.25 1111.08 1008.65 1111.46 1008.18 1111.96C1007.73 1112.45 1007.5 1113.12 1007.5 1113.98C1007.5 1115.14 1007.93 1116.02 1008.79 1116.62C1009.66 1117.21 1010.77 1117.5 1012.1 1117.5ZM1031.06 1106.88V1120H1027.71V1098.18H1030.95V1101.59H1031.23C1031.74 1100.48 1032.52 1099.59 1033.56 1098.92C1034.6 1098.24 1035.95 1097.9 1037.6 1097.9C1039.07 1097.9 1040.37 1098.2 1041.47 1098.81C1042.58 1099.4 1043.44 1100.31 1044.06 1101.53C1044.67 1102.75 1044.98 1104.28 1044.98 1106.14V1120H1041.63V1106.36C1041.63 1104.65 1041.18 1103.31 1040.29 1102.36C1039.4 1101.39 1038.18 1100.91 1036.63 1100.91C1035.56 1100.91 1034.6 1101.14 1033.76 1101.61C1032.93 1102.07 1032.27 1102.75 1031.79 1103.64C1031.3 1104.53 1031.06 1105.61 1031.06 1106.88ZM1059.97 1120.45C1057.93 1120.45 1056.16 1119.97 1054.69 1119.01C1053.21 1118.04 1052.07 1116.71 1051.28 1115.01C1050.48 1113.32 1050.08 1111.38 1050.08 1109.2C1050.08 1106.99 1050.49 1105.03 1051.31 1103.34C1052.13 1101.63 1053.28 1100.3 1054.74 1099.35C1056.22 1098.38 1057.94 1097.9 1059.91 1097.9C1061.45 1097.9 1062.83 1098.18 1064.06 1098.75C1065.29 1099.32 1066.3 1100.11 1067.09 1101.14C1067.87 1102.16 1068.36 1103.35 1068.55 1104.72H1065.2C1064.94 1103.72 1064.37 1102.84 1063.49 1102.07C1062.62 1101.3 1061.45 1100.91 1059.97 1100.91C1058.66 1100.91 1057.52 1101.25 1056.53 1101.93C1055.56 1102.6 1054.8 1103.56 1054.25 1104.79C1053.71 1106.01 1053.44 1107.44 1053.44 1109.09C1053.44 1110.78 1053.7 1112.24 1054.23 1113.49C1054.77 1114.74 1055.53 1115.71 1056.5 1116.41C1057.49 1117.1 1058.65 1117.44 1059.97 1117.44C1060.84 1117.44 1061.63 1117.29 1062.34 1116.99C1063.05 1116.69 1063.65 1116.25 1064.15 1115.68C1064.64 1115.11 1064.99 1114.43 1065.2 1113.64H1068.55C1068.36 1114.92 1067.89 1116.08 1067.14 1117.12C1066.41 1118.14 1065.43 1118.95 1064.2 1119.56C1062.99 1120.16 1061.58 1120.45 1059.97 1120.45ZM1082.6 1120.45C1080.5 1120.45 1078.68 1119.99 1077.16 1119.06C1075.64 1118.12 1074.47 1116.82 1073.65 1115.14C1072.84 1113.46 1072.43 1111.5 1072.43 1109.26C1072.43 1107.03 1072.84 1105.06 1073.65 1103.35C1074.47 1101.64 1075.62 1100.3 1077.09 1099.35C1078.56 1098.38 1080.29 1097.9 1082.26 1097.9C1083.39 1097.9 1084.52 1098.09 1085.62 1098.47C1086.73 1098.84 1087.74 1099.46 1088.65 1100.31C1089.56 1101.16 1090.28 1102.27 1090.82 1103.66C1091.36 1105.06 1091.63 1106.77 1091.63 1108.81V1110.23H1074.81V1107.33H1088.22C1088.22 1106.1 1087.98 1105 1087.49 1104.03C1087 1103.07 1086.31 1102.31 1085.41 1101.75C1084.52 1101.19 1083.47 1100.91 1082.26 1100.91C1080.92 1100.91 1079.77 1101.24 1078.79 1101.9C1077.83 1102.56 1077.08 1103.41 1076.56 1104.46C1076.04 1105.51 1075.78 1106.64 1075.78 1107.84V1109.77C1075.78 1111.42 1076.06 1112.82 1076.63 1113.96C1077.21 1115.1 1078.01 1115.97 1079.03 1116.56C1080.06 1117.15 1081.24 1117.44 1082.6 1117.44C1083.48 1117.44 1084.27 1117.32 1084.99 1117.07C1085.7 1116.82 1086.33 1116.44 1086.85 1115.94C1087.37 1115.43 1087.77 1114.79 1088.05 1114.03L1091.29 1114.94C1090.95 1116.04 1090.38 1117.01 1089.57 1117.84C1088.77 1118.66 1087.77 1119.31 1086.59 1119.77C1085.41 1120.23 1084.08 1120.45 1082.6 1120.45ZM1100.08 1090.91V1120H1096.73V1090.91H1100.08Z" fill="white"/>
<path d="M1117.71 405H49.2888C41.9496 405 36 410.636 36 417.588V1039.41C36 1046.36 41.9496 1052 49.2888 1052H1117.71C1125.05 1052 1131 1046.36 1131 1039.41V417.588C1131 410.636 1125.05 405 1117.71 405Z" fill="#EBEBEB"/>
<g clip-path="url(#clip0_1_12)">
<path d="M284.457 947H77V1159H284.457V947Z" fill="#D9D9D9"/>
<path d="M245.086 978.8H110.314V1068.14H245.086V978.8Z" fill="#A6A6A6"/>
<path d="M776.457 950H569V1162H776.457V950Z" fill="#D9D9D9"/>
<path d="M737.086 981.8H602.314V1071.14H737.086V981.8Z" fill="#A6A6A6"/>
<path d="M1021.46 950H814V1162H1021.46V950Z" fill="#D9D9D9"/>
<path d="M982.086 981.8H847.314V1071.14H982.086V981.8Z" fill="#A6A6A6"/>
<path d="M528.457 947H321V1159H528.457V947Z" fill="#D9D9D9"/>
<path d="M489.086 978.8H354.314V1068.14H489.086V978.8Z" fill="#A6A6A6"/>
</g>
<path d="M287.457 445H80V657H287.457V445Z" fill="#D9D9D9"/>
<path d="M248.086 476.8H113.314V566.143H248.086V476.8Z" fill="#A6A6A6"/>
<path d="M248.086 591.886H113.314V632.771H248.086V591.886Z" fill="#A6A6A6"/>
<path d="M779.457 448H572V660H779.457V448Z" fill="#D9D9D9"/>
<path d="M740.086 479.8H605.314V569.143H740.086V479.8Z" fill="#A6A6A6"/>
<path d="M740.086 594.886H605.314V635.771H740.086V594.886Z" fill="#A6A6A6"/>
<path d="M1024.46 448H817V660H1024.46V448Z" fill="#D9D9D9"/>
<path d="M985.086 479.8H850.314V569.143H985.086V479.8Z" fill="#A6A6A6"/>
<path d="M985.086 594.886H850.314V635.771H985.086V594.886Z" fill="#A6A6A6"/>
<path d="M531.457 445H324V657H531.457V445Z" fill="#D9D9D9"/>
<path d="M492.086 476.8H357.314V566.143H492.086V476.8Z" fill="#A6A6A6"/>
<path d="M492.086 591.886H357.314V632.771H492.086V591.886Z" fill="#A6A6A6"/>
<path d="M287.457 691H80V903H287.457V691Z" fill="#D9D9D9"/>
<path d="M248.086 722.8H113.314V812.143H248.086V722.8Z" fill="#A6A6A6"/>
<path d="M248.086 837.886H113.314V878.771H248.086V837.886Z" fill="#A6A6A6"/>
<path d="M779.457 694H572V906H779.457V694Z" fill="#D9D9D9"/>
<path d="M740.086 725.8H605.314V815.143H740.086V725.8Z" fill="#A6A6A6"/>
<path d="M740.086 840.886H605.314V881.771H740.086V840.886Z" fill="#A6A6A6"/>
<path d="M1024.46 694H817V906H1024.46V694Z" fill="#D9D9D9"/>
<path d="M985.086 725.8H850.314V815.143H985.086V725.8Z" fill="#A6A6A6"/>
<path d="M985.086 840.886H850.314V881.771H985.086V840.886Z" fill="#A6A6A6"/>
<path d="M531.457 691H324V903H531.457V691Z" fill="#D9D9D9"/>
<path d="M492.086 722.8H357.314V812.143H492.086V722.8Z" fill="#A6A6A6"/>
<path d="M492.086 837.886H357.314V878.771H492.086V837.886Z" fill="#A6A6A6"/>
<path d="M1102 445H1064V1022H1102V445Z" fill="#D9D9D9"/>
<path d="M1081.5 445L1096.66 471.25H1066.34L1081.5 445Z" fill="#A6A6A6"/>
<path d="M1083.16 1022.25L1068 996H1098.31L1083.16 1022.25Z" fill="#A6A6A6"/>
<path d="M1098 481H1068V542H1098V481Z" fill="#A6A6A6"/>
<defs>
<clipPath id="clip0_1_12">
<rect width="944" height="105" fill="white" transform="translate(77 947)"/>
</clipPath>
</defs>
</svg>
